<mxfile host="65bd71144e">
    <diagram id="ZOYfaOb8CwxCDDQTnFxH" name="Page-1">
        <mxGraphModel dx="9307" dy="3133" grid="1" gridSize="10" guides="1" tooltips="1" connect="1" arrows="1" fold="1" page="1" pageScale="1" pageWidth="827" pageHeight="1169" math="0" shadow="0">
            <root>
                <mxCell id="0"/>
                <mxCell id="1" parent="0"/>
                <mxCell id="6" style="edgeStyle=none;html=1;exitX=0.5;exitY=1;exitDx=0;exitDy=0;entryX=0.5;entryY=0;entryDx=0;entryDy=0;" edge="1" parent="1" source="2" target="3">
                    <mxGeometry relative="1" as="geometry"/>
                </mxCell>
                <mxCell id="2" value="&lt;div style=&quot;color: rgb(171, 178, 191); background-color: rgb(35, 39, 46); font-family: Consolas, &amp;quot;Courier New&amp;quot;, monospace; font-weight: normal; font-size: 14px; line-height: 19px;&quot;&gt;&lt;div&gt;&lt;span style=&quot;color: #c678dd;&quot;&gt;【main.c】&lt;/span&gt;&lt;/div&gt;&lt;div&gt;&lt;span style=&quot;color: #c678dd;&quot;&gt;void&lt;/span&gt;&lt;span style=&quot;color: #abb2bf;&quot;&gt; &lt;/span&gt;&lt;span style=&quot;color: #61afef;&quot;&gt;u_prog_a&lt;/span&gt;&lt;span style=&quot;color: #abb2bf;&quot;&gt;(&lt;/span&gt;&lt;span style=&quot;color: #c678dd;&quot;&gt;void&lt;/span&gt;&lt;span style=&quot;color: #abb2bf;&quot;&gt;) {&lt;/span&gt;&lt;/div&gt;&lt;div&gt;&lt;span style=&quot;color: #abb2bf;&quot;&gt;&amp;nbsp; &amp;nbsp; &lt;/span&gt;&lt;span style=&quot;color: #c678dd;&quot;&gt;char*&lt;/span&gt;&lt;span style=&quot;color: #abb2bf;&quot;&gt; name &lt;/span&gt;&lt;span style=&quot;color: #c678dd;&quot;&gt;=&lt;/span&gt;&lt;span style=&quot;color: #abb2bf;&quot;&gt; &lt;/span&gt;&lt;span style=&quot;color: #98c379;&quot;&gt;&quot;prog_a&quot;&lt;/span&gt;&lt;span style=&quot;color: #abb2bf;&quot;&gt;;&lt;/span&gt;&lt;/div&gt;&lt;div&gt;&lt;span style=&quot;color: #abb2bf;&quot;&gt;&amp;nbsp; &amp;nbsp; &lt;/span&gt;&lt;span style=&quot;color: #61afef;&quot;&gt;printf&lt;/span&gt;&lt;span style=&quot;color: #abb2bf;&quot;&gt;(&lt;/span&gt;&lt;span style=&quot;color: #98c379;&quot;&gt;&quot; I am &lt;/span&gt;&lt;span style=&quot;color: #d19a66;&quot;&gt;%s&lt;/span&gt;&lt;span style=&quot;color: #98c379;&quot;&gt;, my pid:&lt;/span&gt;&lt;span style=&quot;color: #d19a66;&quot;&gt;%d%c&lt;/span&gt;&lt;span style=&quot;color: #98c379;&quot;&gt;&quot;&lt;/span&gt;&lt;span style=&quot;color: #abb2bf;&quot;&gt;, name, &lt;/span&gt;&lt;span style=&quot;color: #61afef;&quot;&gt;getpid&lt;/span&gt;&lt;span style=&quot;color: #abb2bf;&quot;&gt;(), &lt;/span&gt;&lt;span style=&quot;color: #98c379;&quot;&gt;'&lt;/span&gt;&lt;span style=&quot;color: #56b6c2;&quot;&gt;\n&lt;/span&gt;&lt;span style=&quot;color: #98c379;&quot;&gt;'&lt;/span&gt;&lt;span style=&quot;color: #abb2bf;&quot;&gt;);&lt;/span&gt;&lt;/div&gt;&lt;div&gt;&lt;span style=&quot;color: #abb2bf;&quot;&gt;&amp;nbsp; &amp;nbsp; &lt;/span&gt;&lt;span style=&quot;color: #c678dd;&quot;&gt;while&lt;/span&gt;&lt;span style=&quot;color: #abb2bf;&quot;&gt;(&lt;/span&gt;&lt;span style=&quot;color: #d19a66;&quot;&gt;1&lt;/span&gt;&lt;span style=&quot;color: #abb2bf;&quot;&gt;);&lt;/span&gt;&lt;/div&gt;&lt;div&gt;&lt;span style=&quot;color: #abb2bf;&quot;&gt;}&lt;/span&gt;&lt;/div&gt;&lt;/div&gt;" style="text;whiteSpace=wrap;html=1;" vertex="1" parent="1">
                    <mxGeometry x="179" y="320" width="450" height="120" as="geometry"/>
                </mxCell>
                <mxCell id="9" style="edgeStyle=none;html=1;exitX=1;exitY=0.5;exitDx=0;exitDy=0;entryX=0;entryY=0.5;entryDx=0;entryDy=0;" edge="1" parent="1" source="3" target="7">
                    <mxGeometry relative="1" as="geometry"/>
                </mxCell>
                <mxCell id="10" style="edgeStyle=none;html=1;exitX=0.5;exitY=1;exitDx=0;exitDy=0;entryX=0.5;entryY=0;entryDx=0;entryDy=0;" edge="1" parent="1" source="3" target="8">
                    <mxGeometry relative="1" as="geometry"/>
                </mxCell>
                <mxCell id="3" value="&lt;div style=&quot;color: rgb(171, 178, 191); background-color: rgb(35, 39, 46); font-family: Consolas, &amp;quot;Courier New&amp;quot;, monospace; font-weight: normal; font-size: 14px; line-height: 19px;&quot;&gt;&lt;div&gt;&lt;span style=&quot;color: #c678dd;&quot;&gt;【stdio.c】&lt;/span&gt;&lt;/div&gt;&lt;div&gt;&lt;span style=&quot;color: #c678dd;&quot;&gt;uint32_t&lt;/span&gt;&lt;span style=&quot;color: #abb2bf;&quot;&gt; &lt;/span&gt;&lt;span style=&quot;color: #61afef;&quot;&gt;printf&lt;/span&gt;&lt;span style=&quot;color: #abb2bf;&quot;&gt;(&lt;/span&gt;&lt;span style=&quot;color: #c678dd;&quot;&gt;const&lt;/span&gt;&lt;span style=&quot;color: #e06c75;&quot;&gt; &lt;/span&gt;&lt;span style=&quot;color: #c678dd;&quot;&gt;char*&lt;/span&gt;&lt;span style=&quot;color: #e06c75;&quot;&gt; format&lt;/span&gt;&lt;span style=&quot;color: #abb2bf;&quot;&gt;,&lt;/span&gt;&lt;span style=&quot;color: #e06c75;&quot;&gt; ...&lt;/span&gt;&lt;span style=&quot;color: #abb2bf;&quot;&gt;) {&lt;/span&gt;&lt;span style=&quot;color: #7f848e;&quot;&gt; &amp;nbsp;//'...' means that the number of arguments is uncertain.&lt;/span&gt;&lt;/div&gt;&lt;div&gt;&lt;span style=&quot;color: #abb2bf;&quot;&gt;&amp;nbsp; &amp;nbsp; va_list args;&lt;/span&gt;&lt;/div&gt;&lt;div&gt;&lt;span style=&quot;color: #abb2bf;&quot;&gt;&amp;nbsp; &amp;nbsp; &lt;/span&gt;&lt;span style=&quot;color: #61afef;&quot;&gt;va_start&lt;/span&gt;&lt;span style=&quot;color: #abb2bf;&quot;&gt;(args, format);&lt;/span&gt;&lt;/div&gt;&lt;div&gt;&lt;span style=&quot;color: #abb2bf;&quot;&gt;&amp;nbsp; &amp;nbsp; &lt;/span&gt;&lt;span style=&quot;color: #c678dd;&quot;&gt;char&lt;/span&gt;&lt;span style=&quot;color: #abb2bf;&quot;&gt; &lt;/span&gt;&lt;span style=&quot;color: #e06c75;&quot;&gt;buf&lt;/span&gt;&lt;span style=&quot;color: #abb2bf;&quot;&gt;[&lt;/span&gt;&lt;span style=&quot;color: #d19a66;&quot;&gt;1024&lt;/span&gt;&lt;span style=&quot;color: #abb2bf;&quot;&gt;] &lt;/span&gt;&lt;span style=&quot;color: #c678dd;&quot;&gt;=&lt;/span&gt;&lt;span style=&quot;color: #abb2bf;&quot;&gt; {&lt;/span&gt;&lt;span style=&quot;color: #d19a66;&quot;&gt;0&lt;/span&gt;&lt;span style=&quot;color: #abb2bf;&quot;&gt;};&lt;/span&gt;&lt;/div&gt;&lt;div&gt;&lt;span style=&quot;color: #abb2bf;&quot;&gt;&amp;nbsp; &amp;nbsp; &lt;/span&gt;&lt;span style=&quot;color: #61afef;&quot;&gt;vsprintf&lt;/span&gt;&lt;span style=&quot;color: #abb2bf;&quot;&gt;(buf, format, args);&lt;/span&gt;&lt;/div&gt;&lt;div&gt;&lt;span style=&quot;color: #abb2bf;&quot;&gt;&amp;nbsp; &amp;nbsp; &lt;/span&gt;&lt;span style=&quot;color: #61afef;&quot;&gt;va_end&lt;/span&gt;&lt;span style=&quot;color: #abb2bf;&quot;&gt;(args);&lt;/span&gt;&lt;/div&gt;&lt;div&gt;&lt;span style=&quot;color: #abb2bf;&quot;&gt;&amp;nbsp; &amp;nbsp; &lt;/span&gt;&lt;span style=&quot;color: #c678dd;&quot;&gt;return&lt;/span&gt;&lt;span style=&quot;color: #abb2bf;&quot;&gt; &lt;/span&gt;&lt;span style=&quot;color: #61afef;&quot;&gt;write&lt;/span&gt;&lt;span style=&quot;color: #abb2bf;&quot;&gt;(buf);&lt;/span&gt;&lt;/div&gt;&lt;div&gt;&lt;span style=&quot;color: #abb2bf;&quot;&gt;}&lt;/span&gt;&lt;/div&gt;&lt;/div&gt;" style="text;whiteSpace=wrap;html=1;" vertex="1" parent="1">
                    <mxGeometry x="124" y="490" width="560" height="200" as="geometry"/>
                </mxCell>
                <mxCell id="11" style="edgeStyle=none;html=1;exitX=1;exitY=0.5;exitDx=0;exitDy=0;entryX=0;entryY=0.5;entryDx=0;entryDy=0;" edge="1" parent="1" source="4" target="3">
                    <mxGeometry relative="1" as="geometry"/>
                </mxCell>
                <mxCell id="4" value="&lt;div style=&quot;color: rgb(171, 178, 191); background-color: rgb(35, 39, 46); font-family: Consolas, &amp;quot;Courier New&amp;quot;, monospace; font-weight: normal; font-size: 14px; line-height: 19px;&quot;&gt;&lt;div&gt;&lt;span style=&quot;color: #c678dd;&quot;&gt;【stdio.h】&lt;/span&gt;&lt;/div&gt;&lt;div&gt;&lt;span style=&quot;color: #c678dd;&quot;&gt;#ifndef&lt;/span&gt;&lt;span style=&quot;color: #abb2bf;&quot;&gt; __LIB_STDIO_H__&lt;/span&gt;&lt;/div&gt;&lt;div&gt;&lt;span style=&quot;color: #c678dd;&quot;&gt;#define&lt;/span&gt;&lt;span style=&quot;color: #abb2bf;&quot;&gt; &lt;/span&gt;&lt;span style=&quot;color: #61afef;&quot;&gt;__LIB_STDIO_H__&lt;/span&gt;&lt;/div&gt;&lt;br&gt;&lt;div&gt;&lt;span style=&quot;color: #c678dd;&quot;&gt;#include&lt;/span&gt;&lt;span style=&quot;color: #abb2bf;&quot;&gt; &lt;/span&gt;&lt;span style=&quot;color: #98c379;&quot;&gt;&quot;stdint.h&quot;&lt;/span&gt;&lt;/div&gt;&lt;br&gt;&lt;div&gt;&lt;span style=&quot;color: #c678dd;&quot;&gt;typedef&lt;/span&gt;&lt;span style=&quot;color: #abb2bf;&quot;&gt; &lt;/span&gt;&lt;span style=&quot;color: #c678dd;&quot;&gt;char*&lt;/span&gt;&lt;span style=&quot;color: #abb2bf;&quot;&gt; va_list;&lt;/span&gt;&lt;/div&gt;&lt;br&gt;&lt;div&gt;&lt;span style=&quot;color: #c678dd;&quot;&gt;uint32_t&lt;/span&gt;&lt;span style=&quot;color: #abb2bf;&quot;&gt; &lt;/span&gt;&lt;span style=&quot;color: #61afef;&quot;&gt;printf&lt;/span&gt;&lt;span style=&quot;color: #abb2bf;&quot;&gt;(&lt;/span&gt;&lt;span style=&quot;color: #c678dd;&quot;&gt;const&lt;/span&gt;&lt;span style=&quot;color: #abb2bf;&quot;&gt; &lt;/span&gt;&lt;span style=&quot;color: #c678dd;&quot;&gt;char*&lt;/span&gt;&lt;span style=&quot;color: #abb2bf;&quot;&gt; &lt;/span&gt;&lt;span style=&quot;color: #e06c75;&quot;&gt;format&lt;/span&gt;&lt;span style=&quot;color: #abb2bf;&quot;&gt;, ...);&lt;/span&gt;&lt;/div&gt;&lt;br&gt;&lt;div&gt;&lt;span style=&quot;color: #c678dd;&quot;&gt;#endif&lt;/span&gt;&lt;/div&gt;&lt;/div&gt;" style="text;whiteSpace=wrap;html=1;" vertex="1" parent="1">
                    <mxGeometry x="-300" y="480" width="320" height="220" as="geometry"/>
                </mxCell>
                <mxCell id="7" value="&lt;div style=&quot;color: rgb(171, 178, 191); background-color: rgb(35, 39, 46); font-family: Consolas, &amp;quot;Courier New&amp;quot;, monospace; font-weight: normal; font-size: 14px; line-height: 19px;&quot;&gt;&lt;div&gt;&lt;span style=&quot;color: #c678dd;&quot;&gt;【stdio.c】&lt;/span&gt;&lt;/div&gt;&lt;div&gt;&lt;span style=&quot;color: #c678dd;&quot;&gt;#define&lt;/span&gt;&lt;span style=&quot;color: #abb2bf;&quot;&gt; &lt;/span&gt;&lt;span style=&quot;color: #61afef;&quot;&gt;va_start&lt;/span&gt;&lt;span style=&quot;color: #abb2bf;&quot;&gt;(&lt;/span&gt;&lt;span style=&quot;color: #e06c75;&quot;&gt;ap&lt;/span&gt;&lt;span style=&quot;color: #abb2bf;&quot;&gt;, &lt;/span&gt;&lt;span style=&quot;color: #e06c75;&quot;&gt;v&lt;/span&gt;&lt;span style=&quot;color: #abb2bf;&quot;&gt;) ap &lt;/span&gt;&lt;span style=&quot;color: #c678dd;&quot;&gt;=&lt;/span&gt;&lt;span style=&quot;color: #abb2bf;&quot;&gt; (va_list)&lt;/span&gt;&lt;span style=&quot;color: #c678dd;&quot;&gt;&amp;amp;&lt;/span&gt;&lt;span style=&quot;color: #abb2bf;&quot;&gt;v&lt;/span&gt;&lt;span style=&quot;color: #7f848e;&quot;&gt; &amp;nbsp;//Initialize the pointer of ap, make ap point to the first unnamed arg &quot;v&quot;.&lt;/span&gt;&lt;/div&gt;&lt;/div&gt;" style="text;whiteSpace=wrap;html=1;" vertex="1" parent="1">
                    <mxGeometry x="760" y="555" width="560" height="70" as="geometry"/>
                </mxCell>
                <mxCell id="14" style="edgeStyle=none;html=1;exitX=1;exitY=0.5;exitDx=0;exitDy=0;entryX=0;entryY=0.5;entryDx=0;entryDy=0;" edge="1" parent="1" source="8" target="12">
                    <mxGeometry relative="1" as="geometry"/>
                </mxCell>
                <mxCell id="18" style="edgeStyle=none;html=1;exitX=0.5;exitY=1;exitDx=0;exitDy=0;entryX=0.5;entryY=0;entryDx=0;entryDy=0;" edge="1" parent="1" source="8" target="17">
                    <mxGeometry relative="1" as="geometry"/>
                </mxCell>
                <mxCell id="8" value="&lt;div style=&quot;color: rgb(171, 178, 191); background-color: rgb(35, 39, 46); font-family: Consolas, &amp;quot;Courier New&amp;quot;, monospace; font-weight: normal; font-size: 14px; line-height: 19px;&quot;&gt;&lt;div&gt;&lt;span style=&quot;color: #c678dd;&quot;&gt;【stdio.c】 //重点函数&lt;/span&gt;&lt;/div&gt;&lt;div&gt;&lt;span style=&quot;color: #c678dd;&quot;&gt;uint32_t&lt;/span&gt;&lt;span style=&quot;color: #abb2bf;&quot;&gt; &lt;/span&gt;&lt;span style=&quot;color: #61afef;&quot;&gt;vsprintf&lt;/span&gt;&lt;span style=&quot;color: #abb2bf;&quot;&gt;(&lt;/span&gt;&lt;span style=&quot;color: #c678dd;&quot;&gt;char*&lt;/span&gt;&lt;span style=&quot;color: #e06c75;&quot;&gt; str&lt;/span&gt;&lt;span style=&quot;color: #abb2bf;&quot;&gt;,&lt;/span&gt;&lt;span style=&quot;color: #e06c75;&quot;&gt; &lt;/span&gt;&lt;span style=&quot;color: #c678dd;&quot;&gt;const&lt;/span&gt;&lt;span style=&quot;color: #e06c75;&quot;&gt; &lt;/span&gt;&lt;span style=&quot;color: #c678dd;&quot;&gt;char*&lt;/span&gt;&lt;span style=&quot;color: #e06c75;&quot;&gt; format&lt;/span&gt;&lt;span style=&quot;color: #abb2bf;&quot;&gt;,&lt;/span&gt;&lt;span style=&quot;color: #e06c75;&quot;&gt; va_list ap&lt;/span&gt;&lt;span style=&quot;color: #abb2bf;&quot;&gt;) {&lt;/span&gt;&lt;/div&gt;&lt;div&gt;&lt;span style=&quot;color: #abb2bf;&quot;&gt;&amp;nbsp; &amp;nbsp; &lt;/span&gt;&lt;span style=&quot;color: #c678dd;&quot;&gt;char*&lt;/span&gt;&lt;span style=&quot;color: #abb2bf;&quot;&gt; buf_ptr &lt;/span&gt;&lt;span style=&quot;color: #c678dd;&quot;&gt;=&lt;/span&gt;&lt;span style=&quot;color: #abb2bf;&quot;&gt; str;&amp;nbsp; //该变量存储数组缓冲区头地址&lt;/span&gt;&lt;/div&gt;&lt;div&gt;&lt;span style=&quot;color: #abb2bf;&quot;&gt;&amp;nbsp; &amp;nbsp; &lt;/span&gt;&lt;span style=&quot;color: #c678dd;&quot;&gt;const&lt;/span&gt;&lt;span style=&quot;color: #abb2bf;&quot;&gt; &lt;/span&gt;&lt;span style=&quot;color: #c678dd;&quot;&gt;char*&lt;/span&gt;&lt;span style=&quot;color: #abb2bf;&quot;&gt; index_ptr &lt;/span&gt;&lt;span style=&quot;color: #c678dd;&quot;&gt;=&lt;/span&gt;&lt;span style=&quot;color: #abb2bf;&quot;&gt; format;&lt;/span&gt;&lt;/div&gt;&lt;div&gt;&lt;span style=&quot;color: #abb2bf;&quot;&gt;&amp;nbsp; &amp;nbsp; &lt;/span&gt;&lt;span style=&quot;color: #c678dd;&quot;&gt;char&lt;/span&gt;&lt;span style=&quot;color: #abb2bf;&quot;&gt; index_char &lt;/span&gt;&lt;span style=&quot;color: #c678dd;&quot;&gt;=&lt;/span&gt;&lt;span style=&quot;color: #abb2bf;&quot;&gt; &lt;/span&gt;&lt;span style=&quot;color: #c678dd;&quot;&gt;*&lt;/span&gt;&lt;span style=&quot;color: #abb2bf;&quot;&gt;index_ptr;&lt;/span&gt;&lt;span style=&quot;color: #7f848e;&quot;&gt; &amp;nbsp;//Use index_char to find the '%' in format.&lt;/span&gt;&lt;/div&gt;&lt;div&gt;&lt;span style=&quot;color: #abb2bf;&quot;&gt;&amp;nbsp; &amp;nbsp; &lt;/span&gt;&lt;span style=&quot;color: #c678dd;&quot;&gt;int32_t&lt;/span&gt;&lt;span style=&quot;color: #abb2bf;&quot;&gt; arg_int;&lt;/span&gt;&lt;/div&gt;&lt;div&gt;&lt;span style=&quot;color: #abb2bf;&quot;&gt;&amp;nbsp; &amp;nbsp; &lt;/span&gt;&lt;span style=&quot;color: #c678dd;&quot;&gt;char*&lt;/span&gt;&lt;span style=&quot;color: #abb2bf;&quot;&gt; arg_str;&lt;/span&gt;&lt;span style=&quot;color: #7f848e;&quot;&gt; &amp;nbsp;//Used to process the '%s'(string).&lt;/span&gt;&lt;/div&gt;&lt;div&gt;&lt;span style=&quot;color: #abb2bf;&quot;&gt;&amp;nbsp; &amp;nbsp; &lt;/span&gt;&lt;span style=&quot;color: #c678dd;&quot;&gt;while&lt;/span&gt;&lt;span style=&quot;color: #abb2bf;&quot;&gt; (index_char) {&lt;/span&gt;&lt;span style=&quot;color: #7f848e;&quot;&gt; &amp;nbsp;//Until the index_char is '\0'.&lt;/span&gt;&lt;/div&gt;&lt;div&gt;&lt;span style=&quot;color: #abb2bf;&quot;&gt;&amp;nbsp; &amp;nbsp; &amp;nbsp; &amp;nbsp; &lt;/span&gt;&lt;span style=&quot;color: #c678dd;&quot;&gt;if&lt;/span&gt;&lt;span style=&quot;color: #abb2bf;&quot;&gt; (index_char &lt;/span&gt;&lt;span style=&quot;color: #c678dd;&quot;&gt;!=&lt;/span&gt;&lt;span style=&quot;color: #abb2bf;&quot;&gt; &lt;/span&gt;&lt;span style=&quot;color: #98c379;&quot;&gt;'%'&lt;/span&gt;&lt;span style=&quot;color: #abb2bf;&quot;&gt;) {&lt;/span&gt;&lt;/div&gt;&lt;div&gt;&lt;span style=&quot;color: #abb2bf;&quot;&gt;&amp;nbsp; &amp;nbsp; &amp;nbsp; &amp;nbsp; &amp;nbsp; &amp;nbsp; &lt;/span&gt;&lt;span style=&quot;color: #c678dd;&quot;&gt;*&lt;/span&gt;&lt;span style=&quot;color: #abb2bf;&quot;&gt;(buf_ptr&lt;/span&gt;&lt;span style=&quot;color: #c678dd;&quot;&gt;++&lt;/span&gt;&lt;span style=&quot;color: #abb2bf;&quot;&gt;) &lt;/span&gt;&lt;span style=&quot;color: #c678dd;&quot;&gt;=&lt;/span&gt;&lt;span style=&quot;color: #abb2bf;&quot;&gt; index_char;&lt;/span&gt;&lt;/div&gt;&lt;div&gt;&lt;span style=&quot;color: #abb2bf;&quot;&gt;&amp;nbsp; &amp;nbsp; &amp;nbsp; &amp;nbsp; &amp;nbsp; &amp;nbsp; index_char &lt;/span&gt;&lt;span style=&quot;color: #c678dd;&quot;&gt;=&lt;/span&gt;&lt;span style=&quot;color: #abb2bf;&quot;&gt; &lt;/span&gt;&lt;span style=&quot;color: #c678dd;&quot;&gt;*&lt;/span&gt;&lt;span style=&quot;color: #abb2bf;&quot;&gt;(&lt;/span&gt;&lt;span style=&quot;color: #c678dd;&quot;&gt;++&lt;/span&gt;&lt;span style=&quot;color: #abb2bf;&quot;&gt;index_ptr);&lt;/span&gt;&lt;/div&gt;&lt;div&gt;&lt;span style=&quot;color: #abb2bf;&quot;&gt;&amp;nbsp; &amp;nbsp; &amp;nbsp; &amp;nbsp; &amp;nbsp; &amp;nbsp; &lt;/span&gt;&lt;span style=&quot;color: #c678dd;&quot;&gt;continue&lt;/span&gt;&lt;span style=&quot;color: #abb2bf;&quot;&gt;;&lt;/span&gt;&lt;/div&gt;&lt;div&gt;&lt;span style=&quot;color: #abb2bf;&quot;&gt;&amp;nbsp; &amp;nbsp; &amp;nbsp; &amp;nbsp; }&lt;/span&gt;&lt;/div&gt;&lt;div&gt;&lt;span style=&quot;color: #abb2bf;&quot;&gt;&amp;nbsp; &amp;nbsp; &amp;nbsp; &amp;nbsp; index_char &lt;/span&gt;&lt;span style=&quot;color: #c678dd;&quot;&gt;=&lt;/span&gt;&lt;span style=&quot;color: #abb2bf;&quot;&gt; &lt;/span&gt;&lt;span style=&quot;color: #c678dd;&quot;&gt;*&lt;/span&gt;&lt;span style=&quot;color: #abb2bf;&quot;&gt;(&lt;/span&gt;&lt;span style=&quot;color: #c678dd;&quot;&gt;++&lt;/span&gt;&lt;span style=&quot;color: #abb2bf;&quot;&gt;index_ptr);&lt;/span&gt;&lt;span style=&quot;color: #7f848e;&quot;&gt; &amp;nbsp;//get the next char from '%'.&lt;/span&gt;&lt;/div&gt;&lt;div&gt;&lt;span style=&quot;color: #abb2bf;&quot;&gt;&amp;nbsp; &amp;nbsp; &amp;nbsp; &amp;nbsp; &lt;/span&gt;&lt;span style=&quot;color: #c678dd;&quot;&gt;switch&lt;/span&gt;&lt;span style=&quot;color: #abb2bf;&quot;&gt; (index_char) {&lt;/span&gt;&lt;/div&gt;&lt;div&gt;&lt;span style=&quot;color: #abb2bf;&quot;&gt;&amp;nbsp; &amp;nbsp; &amp;nbsp; &amp;nbsp; &amp;nbsp; &amp;nbsp; &lt;/span&gt;&lt;span style=&quot;color: #c678dd;&quot;&gt;case&lt;/span&gt;&lt;span style=&quot;color: #abb2bf;&quot;&gt; &lt;/span&gt;&lt;span style=&quot;color: #98c379;&quot;&gt;'s'&lt;/span&gt;&lt;span style=&quot;color: #abb2bf;&quot;&gt;:&lt;/span&gt;&lt;/div&gt;&lt;div&gt;&lt;span style=&quot;color: #abb2bf;&quot;&gt;&amp;nbsp; &amp;nbsp; &amp;nbsp; &amp;nbsp; &amp;nbsp; &amp;nbsp; &amp;nbsp; &amp;nbsp; arg_str &lt;/span&gt;&lt;span style=&quot;color: #c678dd;&quot;&gt;=&lt;/span&gt;&lt;span style=&quot;color: #abb2bf;&quot;&gt; &lt;/span&gt;&lt;span style=&quot;color: #61afef;&quot;&gt;va_arg&lt;/span&gt;&lt;span style=&quot;color: #abb2bf;&quot;&gt;(&lt;/span&gt;&lt;span style=&quot;color: #e06c75;&quot;&gt;ap&lt;/span&gt;&lt;span style=&quot;color: #abb2bf;&quot;&gt;,&lt;/span&gt;&lt;span style=&quot;color: #e06c75;&quot;&gt; &lt;/span&gt;&lt;span style=&quot;color: #c678dd;&quot;&gt;char*&lt;/span&gt;&lt;span style=&quot;color: #abb2bf;&quot;&gt;);&lt;/span&gt;&lt;/div&gt;&lt;div&gt;&lt;span style=&quot;color: #abb2bf;&quot;&gt;&amp;nbsp; &amp;nbsp; &amp;nbsp; &amp;nbsp; &amp;nbsp; &amp;nbsp; &amp;nbsp; &amp;nbsp; &lt;/span&gt;&lt;span style=&quot;color: #61afef;&quot;&gt;strcpy&lt;/span&gt;&lt;span style=&quot;color: #abb2bf;&quot;&gt;(&lt;/span&gt;&lt;span style=&quot;color: #e06c75;&quot;&gt;buf_ptr&lt;/span&gt;&lt;span style=&quot;color: #abb2bf;&quot;&gt;,&lt;/span&gt;&lt;span style=&quot;color: #e06c75;&quot;&gt; arg_str&lt;/span&gt;&lt;span style=&quot;color: #abb2bf;&quot;&gt;);&lt;/span&gt;&lt;/div&gt;&lt;div&gt;&lt;span style=&quot;color: #abb2bf;&quot;&gt;&amp;nbsp; &amp;nbsp; &amp;nbsp; &amp;nbsp; &amp;nbsp; &amp;nbsp; &amp;nbsp; &amp;nbsp; buf_ptr &lt;/span&gt;&lt;span style=&quot;color: #c678dd;&quot;&gt;+=&lt;/span&gt;&lt;span style=&quot;color: #abb2bf;&quot;&gt; &lt;/span&gt;&lt;span style=&quot;color: #61afef;&quot;&gt;strlen&lt;/span&gt;&lt;span style=&quot;color: #abb2bf;&quot;&gt;(&lt;/span&gt;&lt;span style=&quot;color: #e06c75;&quot;&gt;arg_str&lt;/span&gt;&lt;span style=&quot;color: #abb2bf;&quot;&gt;);&lt;/span&gt;&lt;/div&gt;&lt;div&gt;&lt;span style=&quot;color: #abb2bf;&quot;&gt;&amp;nbsp; &amp;nbsp; &amp;nbsp; &amp;nbsp; &amp;nbsp; &amp;nbsp; &amp;nbsp; &amp;nbsp; index_char &lt;/span&gt;&lt;span style=&quot;color: #c678dd;&quot;&gt;=&lt;/span&gt;&lt;span style=&quot;color: #abb2bf;&quot;&gt; &lt;/span&gt;&lt;span style=&quot;color: #c678dd;&quot;&gt;*&lt;/span&gt;&lt;span style=&quot;color: #abb2bf;&quot;&gt;(&lt;/span&gt;&lt;span style=&quot;color: #c678dd;&quot;&gt;++&lt;/span&gt;&lt;span style=&quot;color: #abb2bf;&quot;&gt;index_ptr);&lt;/span&gt;&lt;/div&gt;&lt;div&gt;&lt;span style=&quot;color: #abb2bf;&quot;&gt;&amp;nbsp; &amp;nbsp; &amp;nbsp; &amp;nbsp; &amp;nbsp; &amp;nbsp; &amp;nbsp; &amp;nbsp; &lt;/span&gt;&lt;span style=&quot;color: #c678dd;&quot;&gt;break&lt;/span&gt;&lt;span style=&quot;color: #abb2bf;&quot;&gt;;&lt;/span&gt;&lt;/div&gt;&lt;div&gt;&lt;span style=&quot;color: #abb2bf;&quot;&gt;&amp;nbsp; &amp;nbsp; &amp;nbsp; &amp;nbsp; &amp;nbsp; &amp;nbsp; &lt;/span&gt;&lt;span style=&quot;color: #c678dd;&quot;&gt;case&lt;/span&gt;&lt;span style=&quot;color: #abb2bf;&quot;&gt; &lt;/span&gt;&lt;span style=&quot;color: #98c379;&quot;&gt;'c'&lt;/span&gt;&lt;span style=&quot;color: #abb2bf;&quot;&gt;:&lt;/span&gt;&lt;/div&gt;&lt;div&gt;&lt;span style=&quot;color: #abb2bf;&quot;&gt;&amp;nbsp; &amp;nbsp; &amp;nbsp; &amp;nbsp; &amp;nbsp; &amp;nbsp; &amp;nbsp; &amp;nbsp; &lt;/span&gt;&lt;span style=&quot;color: #c678dd;&quot;&gt;*&lt;/span&gt;&lt;span style=&quot;color: #abb2bf;&quot;&gt;(buf_ptr&lt;/span&gt;&lt;span style=&quot;color: #c678dd;&quot;&gt;++&lt;/span&gt;&lt;span style=&quot;color: #abb2bf;&quot;&gt;) &lt;/span&gt;&lt;span style=&quot;color: #c678dd;&quot;&gt;=&lt;/span&gt;&lt;span style=&quot;color: #abb2bf;&quot;&gt; &lt;/span&gt;&lt;span style=&quot;color: #61afef;&quot;&gt;va_arg&lt;/span&gt;&lt;span style=&quot;color: #abb2bf;&quot;&gt;(&lt;/span&gt;&lt;span style=&quot;color: #e06c75;&quot;&gt;ap&lt;/span&gt;&lt;span style=&quot;color: #abb2bf;&quot;&gt;,&lt;/span&gt;&lt;span style=&quot;color: #e06c75;&quot;&gt; &lt;/span&gt;&lt;span style=&quot;color: #c678dd;&quot;&gt;char&lt;/span&gt;&lt;span style=&quot;color: #abb2bf;&quot;&gt;);&lt;/span&gt;&lt;/div&gt;&lt;div&gt;&lt;span style=&quot;color: #abb2bf;&quot;&gt;&amp;nbsp; &amp;nbsp; &amp;nbsp; &amp;nbsp; &amp;nbsp; &amp;nbsp; &amp;nbsp; &amp;nbsp; index_char &lt;/span&gt;&lt;span style=&quot;color: #c678dd;&quot;&gt;=&lt;/span&gt;&lt;span style=&quot;color: #abb2bf;&quot;&gt; &lt;/span&gt;&lt;span style=&quot;color: #c678dd;&quot;&gt;*&lt;/span&gt;&lt;span style=&quot;color: #abb2bf;&quot;&gt;(&lt;/span&gt;&lt;span style=&quot;color: #c678dd;&quot;&gt;++&lt;/span&gt;&lt;span style=&quot;color: #abb2bf;&quot;&gt;index_ptr);&lt;/span&gt;&lt;/div&gt;&lt;div&gt;&lt;span style=&quot;color: #abb2bf;&quot;&gt;&amp;nbsp; &amp;nbsp; &amp;nbsp; &amp;nbsp; &amp;nbsp; &amp;nbsp; &amp;nbsp; &amp;nbsp; &lt;/span&gt;&lt;span style=&quot;color: #c678dd;&quot;&gt;break&lt;/span&gt;&lt;span style=&quot;color: #abb2bf;&quot;&gt;;&lt;/span&gt;&lt;/div&gt;&lt;div&gt;&lt;span style=&quot;color: #abb2bf;&quot;&gt;&amp;nbsp; &amp;nbsp; &amp;nbsp; &amp;nbsp; &amp;nbsp; &amp;nbsp; &lt;/span&gt;&lt;span style=&quot;color: #c678dd;&quot;&gt;case&lt;/span&gt;&lt;span style=&quot;color: #abb2bf;&quot;&gt; &lt;/span&gt;&lt;span style=&quot;color: #98c379;&quot;&gt;'d'&lt;/span&gt;&lt;span style=&quot;color: #abb2bf;&quot;&gt;:&lt;/span&gt;&lt;/div&gt;&lt;div&gt;&lt;span style=&quot;color: #abb2bf;&quot;&gt;&amp;nbsp; &amp;nbsp; &amp;nbsp; &amp;nbsp; &amp;nbsp; &amp;nbsp; &amp;nbsp; &amp;nbsp; arg_int &lt;/span&gt;&lt;span style=&quot;color: #c678dd;&quot;&gt;=&lt;/span&gt;&lt;span style=&quot;color: #abb2bf;&quot;&gt; &lt;/span&gt;&lt;span style=&quot;color: #61afef;&quot;&gt;va_arg&lt;/span&gt;&lt;span style=&quot;color: #abb2bf;&quot;&gt;(&lt;/span&gt;&lt;span style=&quot;color: #e06c75;&quot;&gt;ap&lt;/span&gt;&lt;span style=&quot;color: #abb2bf;&quot;&gt;,&lt;/span&gt;&lt;span style=&quot;color: #e06c75;&quot;&gt; &lt;/span&gt;&lt;span style=&quot;color: #c678dd;&quot;&gt;int&lt;/span&gt;&lt;span style=&quot;color: #abb2bf;&quot;&gt;);&lt;/span&gt;&lt;/div&gt;&lt;div&gt;&lt;span style=&quot;color: #abb2bf;&quot;&gt;&amp;nbsp; &amp;nbsp; &amp;nbsp; &amp;nbsp; &amp;nbsp; &amp;nbsp; &amp;nbsp; &amp;nbsp; &lt;/span&gt;&lt;span style=&quot;color: #c678dd;&quot;&gt;if&lt;/span&gt;&lt;span style=&quot;color: #abb2bf;&quot;&gt; (arg_int &lt;/span&gt;&lt;span style=&quot;color: #c678dd;&quot;&gt;&amp;lt;&lt;/span&gt;&lt;span style=&quot;color: #abb2bf;&quot;&gt; &lt;/span&gt;&lt;span style=&quot;color: #d19a66;&quot;&gt;0&lt;/span&gt;&lt;span style=&quot;color: #abb2bf;&quot;&gt;) {&lt;/span&gt;&lt;/div&gt;&lt;div&gt;&lt;span style=&quot;color: #abb2bf;&quot;&gt;&amp;nbsp; &amp;nbsp; &amp;nbsp; &amp;nbsp; &amp;nbsp; &amp;nbsp; &amp;nbsp; &amp;nbsp; &amp;nbsp; &amp;nbsp; arg_int &lt;/span&gt;&lt;span style=&quot;color: #c678dd;&quot;&gt;=&lt;/span&gt;&lt;span style=&quot;color: #abb2bf;&quot;&gt; &lt;/span&gt;&lt;span style=&quot;color: #d19a66;&quot;&gt;0&lt;/span&gt;&lt;span style=&quot;color: #abb2bf;&quot;&gt; &lt;/span&gt;&lt;span style=&quot;color: #c678dd;&quot;&gt;-&lt;/span&gt;&lt;span style=&quot;color: #abb2bf;&quot;&gt; arg_int;&lt;/span&gt;&lt;/div&gt;&lt;div&gt;&lt;span style=&quot;color: #abb2bf;&quot;&gt;&amp;nbsp; &amp;nbsp; &amp;nbsp; &amp;nbsp; &amp;nbsp; &amp;nbsp; &amp;nbsp; &amp;nbsp; &amp;nbsp; &amp;nbsp; &lt;/span&gt;&lt;span style=&quot;color: #c678dd;&quot;&gt;*&lt;/span&gt;&lt;span style=&quot;color: #abb2bf;&quot;&gt;buf_ptr&lt;/span&gt;&lt;span style=&quot;color: #c678dd;&quot;&gt;++&lt;/span&gt;&lt;span style=&quot;color: #abb2bf;&quot;&gt; &lt;/span&gt;&lt;span style=&quot;color: #c678dd;&quot;&gt;=&lt;/span&gt;&lt;span style=&quot;color: #abb2bf;&quot;&gt; &lt;/span&gt;&lt;span style=&quot;color: #98c379;&quot;&gt;'-'&lt;/span&gt;&lt;span style=&quot;color: #abb2bf;&quot;&gt;;&lt;/span&gt;&lt;/div&gt;&lt;div&gt;&lt;span style=&quot;color: #abb2bf;&quot;&gt;&amp;nbsp; &amp;nbsp; &amp;nbsp; &amp;nbsp; &amp;nbsp; &amp;nbsp; &amp;nbsp; &amp;nbsp; }&lt;/span&gt;&lt;/div&gt;&lt;div&gt;&lt;span style=&quot;color: #abb2bf;&quot;&gt;&amp;nbsp; &amp;nbsp; &amp;nbsp; &amp;nbsp; &amp;nbsp; &amp;nbsp; &amp;nbsp; &amp;nbsp; &lt;/span&gt;&lt;span style=&quot;color: #61afef;&quot;&gt;i_to_a&lt;/span&gt;&lt;span style=&quot;color: #abb2bf;&quot;&gt;(&lt;/span&gt;&lt;span style=&quot;color: #e06c75;&quot;&gt;arg_int&lt;/span&gt;&lt;span style=&quot;color: #abb2bf;&quot;&gt;,&lt;/span&gt;&lt;span style=&quot;color: #e06c75;&quot;&gt; &lt;/span&gt;&lt;span style=&quot;color: #c678dd;&quot;&gt;&amp;amp;&lt;/span&gt;&lt;span style=&quot;color: #e06c75;&quot;&gt;buf_ptr&lt;/span&gt;&lt;span style=&quot;color: #abb2bf;&quot;&gt;,&lt;/span&gt;&lt;span style=&quot;color: #e06c75;&quot;&gt; &lt;/span&gt;&lt;span style=&quot;color: #d19a66;&quot;&gt;10&lt;/span&gt;&lt;span style=&quot;color: #abb2bf;&quot;&gt;);&lt;/span&gt;&lt;/div&gt;&lt;div&gt;&lt;span style=&quot;color: #abb2bf;&quot;&gt;&amp;nbsp; &amp;nbsp; &amp;nbsp; &amp;nbsp; &amp;nbsp; &amp;nbsp; &amp;nbsp; &amp;nbsp; index_char &lt;/span&gt;&lt;span style=&quot;color: #c678dd;&quot;&gt;=&lt;/span&gt;&lt;span style=&quot;color: #abb2bf;&quot;&gt; &lt;/span&gt;&lt;span style=&quot;color: #c678dd;&quot;&gt;*&lt;/span&gt;&lt;span style=&quot;color: #abb2bf;&quot;&gt;(&lt;/span&gt;&lt;span style=&quot;color: #c678dd;&quot;&gt;++&lt;/span&gt;&lt;span style=&quot;color: #abb2bf;&quot;&gt;index_ptr);&lt;/span&gt;&lt;/div&gt;&lt;div&gt;&lt;span style=&quot;color: #abb2bf;&quot;&gt;&amp;nbsp; &amp;nbsp; &amp;nbsp; &amp;nbsp; &amp;nbsp; &amp;nbsp; &amp;nbsp; &amp;nbsp; &lt;/span&gt;&lt;span style=&quot;color: #c678dd;&quot;&gt;break&lt;/span&gt;&lt;span style=&quot;color: #abb2bf;&quot;&gt;;&lt;/span&gt;&lt;/div&gt;&lt;div&gt;&lt;span style=&quot;color: #abb2bf;&quot;&gt;&amp;nbsp; &amp;nbsp; &amp;nbsp; &amp;nbsp; &amp;nbsp; &amp;nbsp; &lt;/span&gt;&lt;span style=&quot;color: #c678dd;&quot;&gt;case&lt;/span&gt;&lt;span style=&quot;color: #abb2bf;&quot;&gt; &lt;/span&gt;&lt;span style=&quot;color: #98c379;&quot;&gt;'x'&lt;/span&gt;&lt;span style=&quot;color: #abb2bf;&quot;&gt;:&lt;/span&gt;&lt;/div&gt;&lt;div&gt;&lt;span style=&quot;color: #abb2bf;&quot;&gt;&amp;nbsp; &amp;nbsp; &amp;nbsp; &amp;nbsp; &amp;nbsp; &amp;nbsp; &amp;nbsp; &amp;nbsp; arg_int &lt;/span&gt;&lt;span style=&quot;color: #c678dd;&quot;&gt;=&lt;/span&gt;&lt;span style=&quot;color: #abb2bf;&quot;&gt; &lt;/span&gt;&lt;span style=&quot;color: #61afef;&quot;&gt;va_arg&lt;/span&gt;&lt;span style=&quot;color: #abb2bf;&quot;&gt;(&lt;/span&gt;&lt;span style=&quot;color: #e06c75;&quot;&gt;ap&lt;/span&gt;&lt;span style=&quot;color: #abb2bf;&quot;&gt;,&lt;/span&gt;&lt;span style=&quot;color: #e06c75;&quot;&gt; &lt;/span&gt;&lt;span style=&quot;color: #c678dd;&quot;&gt;int&lt;/span&gt;&lt;span style=&quot;color: #abb2bf;&quot;&gt;);&lt;/span&gt;&lt;/div&gt;&lt;div&gt;&lt;span style=&quot;color: #abb2bf;&quot;&gt;&amp;nbsp; &amp;nbsp; &amp;nbsp; &amp;nbsp; &amp;nbsp; &amp;nbsp; &amp;nbsp; &amp;nbsp; &lt;/span&gt;&lt;span style=&quot;color: #61afef;&quot;&gt;i_to_a&lt;/span&gt;&lt;span style=&quot;color: #abb2bf;&quot;&gt;(&lt;/span&gt;&lt;span style=&quot;color: #e06c75;&quot;&gt;arg_int&lt;/span&gt;&lt;span style=&quot;color: #abb2bf;&quot;&gt;,&lt;/span&gt;&lt;span style=&quot;color: #e06c75;&quot;&gt; &lt;/span&gt;&lt;span style=&quot;color: #c678dd;&quot;&gt;&amp;amp;&lt;/span&gt;&lt;span style=&quot;color: #e06c75;&quot;&gt;buf_ptr&lt;/span&gt;&lt;span style=&quot;color: #abb2bf;&quot;&gt;,&lt;/span&gt;&lt;span style=&quot;color: #e06c75;&quot;&gt; &lt;/span&gt;&lt;span style=&quot;color: #d19a66;&quot;&gt;16&lt;/span&gt;&lt;span style=&quot;color: #abb2bf;&quot;&gt;);&lt;/span&gt;&lt;/div&gt;&lt;div&gt;&lt;span style=&quot;color: #abb2bf;&quot;&gt;&amp;nbsp; &amp;nbsp; &amp;nbsp; &amp;nbsp; &amp;nbsp; &amp;nbsp; &amp;nbsp; &amp;nbsp; index_char &lt;/span&gt;&lt;span style=&quot;color: #c678dd;&quot;&gt;=&lt;/span&gt;&lt;span style=&quot;color: #abb2bf;&quot;&gt; &lt;/span&gt;&lt;span style=&quot;color: #c678dd;&quot;&gt;*&lt;/span&gt;&lt;span style=&quot;color: #abb2bf;&quot;&gt;(&lt;/span&gt;&lt;span style=&quot;color: #c678dd;&quot;&gt;++&lt;/span&gt;&lt;span style=&quot;color: #abb2bf;&quot;&gt;index_ptr);&lt;/span&gt;&lt;/div&gt;&lt;div&gt;&lt;span style=&quot;color: #abb2bf;&quot;&gt;&amp;nbsp; &amp;nbsp; &amp;nbsp; &amp;nbsp; &amp;nbsp; &amp;nbsp; &amp;nbsp; &amp;nbsp; &lt;/span&gt;&lt;span style=&quot;color: #c678dd;&quot;&gt;break&lt;/span&gt;&lt;span style=&quot;color: #abb2bf;&quot;&gt;;&lt;/span&gt;&lt;/div&gt;&lt;div&gt;&lt;span style=&quot;color: #abb2bf;&quot;&gt;&amp;nbsp; &amp;nbsp; &amp;nbsp; &amp;nbsp; }&lt;/span&gt;&lt;/div&gt;&lt;div&gt;&lt;span style=&quot;color: #abb2bf;&quot;&gt;&amp;nbsp; &amp;nbsp; }&lt;/span&gt;&lt;/div&gt;&lt;div&gt;&lt;span style=&quot;color: #abb2bf;&quot;&gt;&amp;nbsp; &amp;nbsp; &lt;/span&gt;&lt;span style=&quot;color: #c678dd;&quot;&gt;return&lt;/span&gt;&lt;span style=&quot;color: #abb2bf;&quot;&gt; &lt;/span&gt;&lt;span style=&quot;color: #61afef;&quot;&gt;strlen&lt;/span&gt;&lt;span style=&quot;color: #abb2bf;&quot;&gt;(str);&lt;/span&gt;&lt;/div&gt;&lt;div&gt;&lt;span style=&quot;color: #abb2bf;&quot;&gt;}&lt;/span&gt;&lt;/div&gt;&lt;/div&gt;" style="text;whiteSpace=wrap;html=1;" vertex="1" parent="1">
                    <mxGeometry x="124" y="740" width="560" height="840" as="geometry"/>
                </mxCell>
                <mxCell id="12" value="&lt;div style=&quot;color: rgb(171, 178, 191); background-color: rgb(35, 39, 46); font-family: Consolas, &amp;quot;Courier New&amp;quot;, monospace; font-weight: normal; font-size: 14px; line-height: 19px;&quot;&gt;&lt;div&gt;&lt;span style=&quot;color: #c678dd;&quot;&gt;【stdio.c】&lt;/span&gt;&lt;/div&gt;&lt;div&gt;&lt;span style=&quot;color: #c678dd;&quot;&gt;#define&lt;/span&gt;&lt;span style=&quot;color: #abb2bf;&quot;&gt; &lt;/span&gt;&lt;span style=&quot;color: #61afef;&quot;&gt;va_arg&lt;/span&gt;&lt;span style=&quot;color: #abb2bf;&quot;&gt;(&lt;/span&gt;&lt;span style=&quot;color: #e06c75;&quot;&gt;ap&lt;/span&gt;&lt;span style=&quot;color: #abb2bf;&quot;&gt;, &lt;/span&gt;&lt;span style=&quot;color: #e06c75;&quot;&gt;t&lt;/span&gt;&lt;span style=&quot;color: #abb2bf;&quot;&gt;) &lt;/span&gt;&lt;span style=&quot;color: #c678dd;&quot;&gt;*&lt;/span&gt;&lt;span style=&quot;color: #abb2bf;&quot;&gt;((t&lt;/span&gt;&lt;span style=&quot;color: #c678dd;&quot;&gt;*&lt;/span&gt;&lt;span style=&quot;color: #abb2bf;&quot;&gt;)(ap &lt;/span&gt;&lt;span style=&quot;color: #c678dd;&quot;&gt;+=&lt;/span&gt;&lt;span style=&quot;color: #abb2bf;&quot;&gt; &lt;/span&gt;&lt;span style=&quot;color: #d19a66;&quot;&gt;4&lt;/span&gt;&lt;span style=&quot;color: #abb2bf;&quot;&gt;))&lt;/span&gt;&lt;span style=&quot;color: #7f848e;&quot;&gt; &amp;nbsp;//return the value of the next argument, in 32bit system, the unit of stack is 4Byte.&lt;/span&gt;&lt;/div&gt;&lt;/div&gt;" style="text;whiteSpace=wrap;html=1;" vertex="1" parent="1">
                    <mxGeometry x="770" y="1125" width="560" height="70" as="geometry"/>
                </mxCell>
                <mxCell id="15" value="" style="shape=image;verticalLabelPosition=bottom;labelBackgroundColor=default;verticalAlign=top;aspect=fixed;imageAspect=0;image=data:image/png,iVBORw0KGgoAAAANSUhEUgAAAcQAAAGWCAIAAABpe2S0AAAgAElEQVR4AeydBVgUWxuAZ5elG2kspEMUAQNRFBBJFRUVsFBB7MDG7v7t7sBAUUxCQrq7l4ZdOrZ79n92bUURL+Lucs5zH1hmZ875zvsd3ztzpiA2KIAAIAAIAAL/mQD0n2sAFQACgAAgAAiwgUzBIAAEAAFAoAcIAJn2AERQBSAACAACQKZgDAACgAAg0AMEgEx7ACKoAhAABAABIFMwBgABQAAQ6AECQKY9ABFUAQgAAoAAkCkYA4AAIAAI9AABINMegAiqAAQAAUAAyBSMAUAAEAAEeoAAkGkPQARVAAKAACAAZArGACAACAACPUAAyLQHIIIqAAFAABAAMgVjABAABACBHiDA9zJlMpl4PL4ZFECgdwm0tLQQCAQYhnvgXyGoQiAI8L1MW1panjx5shcUQKB3CRw8eDA4OJhOpwuEB0AneoAA38sUjUb7+PgMGzZsxowZ7qAAAr1CYOrUqRYWFkuWLCGTyT3wrxBUIRAE+F6mJSUlS5Ys8fT0jIuLSwIFEOgVAm/evPHy8vL09AQyFQgN9kwnBEGmfn5+/v7+4ICrZ0YEqOU3CDQ2Nq5btw7I9DdQ9aFVgEz7ULJBV3uKAJBpT5EUpHqATAUpm6AvvUQAyLSXQPNVM0CmfJUuECxvEAAy5Y088FYUQKa8lQ8QDV8QADLlizT1cpBApr0MHDQnCASATAUhiz3dByDTniYK6usDBIBM+0CSu91FINNuIwMbAAJApmAM/EgAyPRHJmAJINAFASDTLgD1ya+BTPtk2nmv0zCLSafg2prr62qxdQ0dJCqDl58gAmTKeyPo30cEZPrvc9DHI+BolErCNdWWZr1/++Telcv3rj9ORmM7aDzMBciUh5Pzz0IDMv1n6EHDHAIwi0lpbyhNi3x0bsuqBdOdJk+w9pg+71pEVi2OxbuEgEx5Nzf/LjIg03/Hvm+3DMMsBpXQjinNCHt6+9CGxa6jVPrJCItIiCtYGNueepZU1QFk2rdHCN/1HsiU71LGwwFzBEmjkgk4HA6HJ5KoNBab3dnUJ8xiUPCN5ei00JCrB1e52llqDVTrJy2MEkKgxEQHWQ9b8jA8r57Cwx0Fe6Y8nJx/FhqQaS+gh2GYxWIyGHQajUqhUMicQqFQqDQ6g8n6/Kx2GGYxOatQqJxC4fxHo3LW4G5KpX7YkLMV8+M23Ho/VcutlVstlUr7qnxoo4tewiwmk85t92PjH4NjwSwGnU6lcmP+HPHPKuM4sh1TW5wWFxsbk5hVUFlPYrOZnazNoOKqs5+fOrPS1dlmlKGGmpKEmJiIEAKBQKDExIbYmq0MiS5s4uWnLgOZdpLVPr8IyPRvDwEYZtIoxLZmTEVJXlpKXGTYmxdPnz179iY0Ij4tpxTTQqTRucezLDqlva4kPys5KjY25v37qOiYsPdpMdmVdU2NmKrSnOSY0LfPXrx8EZGYVYAlkWkcCTNoxI7GypLc1MSYiLBXr54/f/7ybcS72ITE1NSU1NTU1LSU1Kz07HJMC4HW2f7hp57DLAapo6E6LykhMf59bFz0++iImKiozEJ0bWs7rrmqODsxNvzVm+cvwsLjM/Kr69soP3tVB4tOaimNeXdv7+oVK5avPXbtSUI9k91Z03RSS0HEyYVLxmuojrK3d/fymukwyWygtIQIAiUmPtjW3C8kugDI9FN+wG8+IQBk+tcSBcMsOhnXVJ2VFvcm5OHdK/87snvD1nU+C+fNtJk0yW7a9Nm+6wKO3nkWXVrVSGKy2QxSR2VyyO0TO5d5ey9auNBr3oKZ3msWbjl16fbtK2cOb1s5f4abndMU10UBp24kNjR0kMnt2LKc2OC7Zw5tX7N84UKP6XM9PGa7e833WOTnt2bNqjVr1qxZu2rt9q177kaklbd3tn/4qedMBrW5Ojf67uEdm9b4LfKZt3D+7AVz527cc+zi/UdP7p7Zv8VvkbvrtEmO7rN8N+698CQyo5FIp7E60TOTgqtLvXd962TtQZqDtaav2v6ojMqmdDL1yaLia7OeHTux03fe6SePY1OS3lw9t8amv5I0kOmnpIDf/EcAyPRv5QxmMigtlbkRN9f4eo4bO9pytIWN3cQ5c2dMn+lkoKupqqGuOlDbwNR11qKbL95XElhsJgVfl/bm1hY/t6EG2gMHqqtrqPTX7K9ram41cfy4sSNNdAeqKKgPGDTW0/9gaHUlpr48MfjKLp8JliOM9XUNDMZaWXstWDDH3m6snq72IE1NzSFaWnpDjUY4Tpm1/0F4bjPjF91kMWlt2KL3D4+td588SneIhoaGqoa6uo7B0JHjJjg4Tho/xtR4yAB1+X6qqgP1h4+ev3H/G3RHM7kTPXNkmhx4yX+SsrySgqKLz4aHZZROZcr530x7bVFJfnpyRSOmtRWT+Txw55TBqrJApr/IE/iKxwkAmf6tBLEYVHx1WuSlFeOGD0YihVQGaXusDTh76/bd6yf8F9hraihCCCGU8CAd43XnHqY30Nkwk07AlKQ9OrPN3bqftATELUhRWXmd8eMdpk6zs9QWE5WXkjeasmxrSElBQdabY/5zTfqLoZCiEjJDx7uvOfr40aN7xzfNtx+ugUIiEChxiQEWJi6bD5x7lVaEJXaye/i54zDMpBDbqnMi7+6YO2a4GvJD0yhhkf66xlO8V/r6zHUdbaIOQcIQJCIhZezotTuyGt1K/bz95w9MCh6b9vjKJicVeRVF5el+m4Ir6WxKJ7uw3C1gmM2d+2VSiY1ZLx7scgMy/UwSfOBHAkCmfytrHJlWJcdcXTHFxmKAppHt9MUPEopqOkiU5uL050emmOvJIJAIhHz/Ia77roeXEjiHzTCDhK+Of3h2tbqyPAQhIIS4tNIwuyXHT9wIenTxyHIbq0ljx01due9EWGFW0qsjC6YYCUEoSEhGQXPmmoOhVeTm1ubisEu75luJCgshxWTlLLymHorKrcdTOzsk/6HbDEJDwct9ru4mQhAEIVGi8ppDHZZsDozOSIh9dXXzPHtlhAwKQolJak6Y7fe4OL+BxGZzpoOphJbGekx1dU1NTU11eUHqixMHfSz6ycrL97P2WHYmpqIGXVtTW1tbU1ePacZ1el8TkOkPuQAL+JIAkOnfShvMpFNa0IVRN47s3bV87cGjl0LyaptxFDIVX1sSd3+t1XBtzi4gSmWg0YazgRnNnPM0MIOMr0l8dG6tuoo8BKGQyAGaBvOPP0rOrmqsLc55/+jW3evX7oZExuaV58bdXzHHToJjXDF5JUufrdezO1gEIg6TEXxs/XRRERRSQk5+3ILpZ+OLW4i/OsT/0nsGsakw9LCrhylHpsLSCnpTV26+n1TbgmttKE8O3LnFXk5VRkhYTFJ7wuw1j4sLG0hsmMUgNmFzw549uPG/U2fPnj1z9tTh3Wtc3SxlJcVQYhJKIya4rj9+9uS5s+fOnz935cGdl9ll2I4fZweATL8kAXziZwJApn8tezCLScV3NKBzszLjE7PSs0ura2trqsrLClLePzm/wtxIB8E5nlYaMHjNqVspDZyjYa5Mkx6dX6euooBAiAoLDx1qviMoobKRBjMopI6G2rqa6tr6ppaWenRKoM9sWxQEIRCS/ZTtlgbcz8WxiCQcNuvZiY0zP8p0gveMS4noVs7Zrd8oHJmGHXH1HMGRqbi8yugle0/H1pHpLAa5vTL22sXlpgMVJYTFJHUmzF73uLiogcS5EKq5JPvZztULnM3MLCwszC3Mhw/VU9Poh0AJQUghITllVT1TCzMLi5GjLMfYLfDY+DImt+HHm0SBTH8jO2AVPiAAZPp3k8Ri0oktmIrcxPDn986ePLJ3Z8C2DauXz506VkNFiTs3+XOZigkLjxg+8mBIcnXrNzqE2XQcNv/19nnO/ZGQECQqpzhi1urTYeX4lrbG0ujLu5eM5xzmS8rJ2y5xv55W3kb+1Xzpl95/I1MJBZUJfgcuJ9ZT6CwmldCQGXxvu/NgVdnvZEpqyEu85ediqflhmvVnPxFCIqKqo0097r9IqftxqhXI9EsSwCd+JgBk+teyx7nrHN9SlRcZfOvk9pUezhP1dEyHmo6daGtra2WurSAr9UuZQpAoCjVsqNnu54lVrd8dqLOoHXVZj3ctm6LZT1RISExKYYS956bzT4OePLyy19t93ABhlIi4gp6xx44toWWYX19j+qX338pUXmWC74HL8R9l2pgVErhz2mBVOWFxSZ2Js9c9+bBnyqS21xS+u7R11Vxrbhk/zmq0qYFOfzlhlDBKWF61v76FlfW48dYTJtrZzVi25HBkYnHLd11hs9lApl+SAD7xMwEg07+UPe7VP5WZ0dd3LXSzNdLVHKihrWPsvnDVkSt3bt8+s3O2sc7ArmVqMtRsVycyZbNoeGz+63M7vMZIiouipOTUdIxHTXR0cJhsY2lqojdIY4DB8DG+6469iq0lEj/cEtB1L38p0+yQwJ1ug9U4MtWeOGvNkyLOnCmb00d8U2V+dtp7bomOeBt0cce6WWZyUrLSshZOs7bfDX0fEf0+9n1sbFJmenFTC76TS/i/l6mmrdlycNF+1wkDa/AaASDTv5QRJp3YUBJ257CzmaGSNBIppDTQeLb/tceRhZjG6rLkJ1vGjTDkXoP06TCf+t2cKXfP9GcyZTPIbZUJN4+stJGSlxPXHzl8spun5xx3TvGa571iXcCx8zffJeZgcQz2b53J5zD4pUxzQgJ3TxusJsc5mz9+ht/9nHws4TM4+FNhkHG1SYEX1k9WlleSV3RctD6whAiTOTe/fiift/jmw3cyFdOyHbH6eRS4nfQbSOAPPiAAZPp3kgQzqO0VaTcPrVCTHiwECaFQQ0ytdgel5GAJVFxlXvgl3zHGA7kyVR6gufb0ndTGj2fzCTVJj7knoD7K1HzX86QfDvNhBqm5PPbm7mV2epIKKoqTfBcevB7yKuTp0+CnT1+9jUhKL6xpxJE6vUnp573lyDT0iKsH9wSUxNeH+RQ8Ju3xrS12g1SkhUQlVEe4up+Iz6hs//H6USYFj0l5fHmDk7K8soKi62L/x+jOL9r/JgomlYBND76zzWmQigxCSFRE3dLY88abrDrSjw18s92//APcm/8v6fNq20CmfyczMIPWUZl164i/urQWCkIKodT1hvscvh34Nibm1Z1z2zzMtdVEuYf5ihqD/A5ff19FZLBgJhXXXBR+69BiVSVZCBIREtLRH776bmQBhvT1Y+dhNoPQXBJ1dsVsC1lxUUlFlbELF+66+uztmxcvX758+fr169Dw8KiY+OTU/FJ0QweBxmR2bSUYZpJbqlJvbXOwN+A4XkxGadTsgOMv0G1kOrmjvuDFmSPu+hryYgiUmOSgCWOWPArPwJAZ35/Z4so06PJGF2V5FQXlaUs2PkFT2J2f/4JhJp1KIeLa21qwVYXxT0/unGumKi8BIVBCYtoDjJcffxibVdvY0t6BI1BojN/owd9J489qBTL9GZm+vBzI9C9ln0HD1+Q9PL1TT9VIDIVCICRk++mZW090mDrVebLtGKP+yrIiKI62pBXVnP323IopbaXQCa2VWa/PbZ9n1U9GHIKQCKSshtbEgMuv0qpav3qEEgzT2moygtbPmdQPgoRQYhIqevrmExxcXJw/Fycnl2kzZ67dHRD4Pq2mA0f93nrf9ZnzZNGOuoLoW0unj9SQ41yxhRKVHTTMa+meN9mYDkxZ2pvDq+dqyiiICiGQIiipodqjd18Izq5s+/7mJs55/6yXd/bMNdAx1DNevGF/aBWt8zugYCad1FRdkZsQ/vZ54JVD6xe7DNfqJy6K4vQaISWpYGK1ZOv264Eh797HZVZgW4nfXM7wXfT/4k8g039BndfbBDL9SxliMSltmJQ3j5bNcNNUVeFeUgpBIqJimjpG9jM8PVysjfXUpTmXx4tL64xyWH38TmZ9e2Xx+2sHfK30lMRFOBd7QhBCSn7AJI8Dt0ML2pjsT0aEYXpHTe6L9V6OChDEnSrgrvvtDwRKVGTgUL3ZG3c8y87BEn+9b8pikFvL4l4d97Aaqv6hGgRCVErOxNp9962k4qR3d0/4OOsiITHOd0IIhKKCmoPXrievcxq+OzUPM2iEuoK0sPuHDhw5dCzo5buSdib7u3U+4GbRSM0FUS+v7Z7vOcNpopnOoA/XiX3qg4iYqPZQI1tnd98N/ucjE0p47glSQKZ/6Z8NX1cLZPq30sd5EigOU50QfG3VYm+bCdbjx1tbOzg6r9208/7b2Ojgq7u3Lp1pY2NjY2vr4jYz4MTFxOqW0oKYSycCHO3tbG0539jY2NjZTfNccOLuy5wmxlcyZeBrC95uneuiDkHc+Vh5ReVBugZ6uro6Olqag/or9pNBCqMQCBEJCR3LUVseBSWX4XDtrW0/K+3t7S01BZGvT3r6edh/bNjGxt7RddHG/dfj8uLf3b+wb4W9jc3noOxdPRcffPIsDUP//tnPnKN3GoWEw+FxeDKZ8sNEwCfYHJkWvnt2KWCG2xQnx8n2k+w+t8v9YGtjP3mys+u0+StXnI2MLf7lc1o+1dmbv4FMe5M2v7QFZPr3MsW9db2jsSY/KyPufXRUVFR0XEJiXmEptqWjvbG2tDg3PZFbklNSCtEVrSQaAddcgS78sPDTz9T0DHRNfQcV/vTIephFx9flhp5e5DpKDIJERKQHa0+a7rFmz+H9e/bu3hWwcZ3vNJdxKsryIpCQsLDGMMMF58/cfJ4Q8TI4JOR5yA/lecjLV6Hv0gqyKmprS1JzMj41m5iYlJycVVBS1YJrbaqtKMn98kViYlJKWmYJBtvW2dP1fg8nzGLS8E3YyoLk5KSva/7mc1JScnpOdnlTF49j/b0We3YtINOe5SkYtQGZ9kIeOc+xZ9Dp9N966H0X8XBcWpv19rC7i5kKBEH9VPov3nD8cVhqQUlhQUFBXnZq6rvbNw64m+ipIoSERdRNdKcf3Dh/5f45U5xdXV1cfygurlNnzV1w7N7FzGYC5yUjoPwWASDT38LUx1YCMuWvhMMwi9JSGnNv2dCJmpz5Ug1N7WP3n5e0kugMJpPFpJNxHVVJMXc2jR42BCEkLKNlPtbvTMBcn802o0dYjLQY2UkZNcHeKeDS0aTGLs9T8RepvxotkOlfxcunlQOZ8lfiYJhFa69MeRZgP9lIFoIgBRX1hRt233wWFhufkJiYEBv15vntk7v9nPQ0VWWUNUY4z912L/pVyMuw+9dOX7h88dLlTsq1m4HhqSnVRBrPXYDEu6kBMuXd3Py7yIBM/x37P2qZ8yTntuqM4KNLZlgrKSmqa2iYWVo7Tp0xe46Hh8ec2e7TpznbjR85VE9fz2qK17bLwQloLLaxsQlTXV5ZXVVV/V2pqqqqqq7BNLV3kJm/fa/UH8UtWBsBmQpWPnumN0CmPcOxF2uBWQxyS03e80fXt2/xX73Cd4n3/Hlenh5z5njMmu3h4TlvweKlK9Zu3Xng2uO3qRUtRNrXF/z3YpgC3RSQqUCn9w87B2T6h+D+6WYwi0mnkNqb6ytL8zPTk+NjY6LeRUS8CwuPfBcdm5CWVVBWg23FEakMFtjd/CuJAjL9K1j5vFJBkKmPj4+3t3deXl5xHypFRUUFBXk52Znp6akpycnJSUlJSYmJSUnJKSlpGZk5uXkFhYVFfYhH73Y1ISHB29vb09OTTCbzuQFA+D1GQBBkOm/evGHDhvn6+vqBAgj0CoEFCxaYm5sDmfaYhwSiIgGRqbGx8cKFCxeBAgj0CgFPT09TU1MgU4FwYI91QhBk6sstFRUVnDdkggII/H0CWVlZPj4+QKY95iGBqEgQZOrn5+fv70+nf/VkJYHIDegEzxIAJ6B4NjX/MDAg038IHzTNrwSATPk1c38zbiDTv0kX1C2gBIBMBTSx/6lbQKb/CR/YuG8SADLtm3n/da+BTH/NB3wLCHRCAMi0Eyh9fhGQaZ8fAgBA9wkAmXafmeBvAWQq+DkGPexxAkCmPY5UACoEMhWAJIIu9DYBINPeJs4P7QGZ8kOWQIw8RgDIlMcSwhPhAJnyRBpAEPxFAMiUv/LVO9ECmfYOZ9CKQBEAMhWodPZQZ4BMewgkqKYvEQAy7UvZ/t2+Apn+LimwHiDwmQCQ6WcU4MNnAkCmn1Hw1gcYZjLoZBKurbm+trqitKQwPzc3N7ewsLi8qq6xnUBlfHj9HcxiUHDNDZjq0vLysrIyNLqsuKwKXdvSjifg25vrq8uLi/Py8/OKy2uwHTQqg8Vmc5/ST2xrrq+pKistLijIy8vLLywuKausqK6urqnh/FddW1PX3E6gMH6OBIZZdDKuvbG2orKirLwcjUaXlJaVVDc0thMoFGJ7I7a6DF2YX5iXX1pWXd+MI9NYbPjntfHdN0CmfJeyXggYyLQXIHevCZjFoJI66uvKC3KS4yJCHt8+f+Hkvt0B/kuX+S1d57/5wMmL90Pjc+saOjjvuWdQCNj82DcPLh/Yv3/fvn07d+3ZvOfkrvNPX0ZGv3sddPPUvi2blq9cs3L7yeuPM5oacFQGhdCKQWfGvXp88+yJvbu2rd+ywd/ff8v2bfuOHP7fqZOnTp06dfp/py6dv/Y6Ibca93MDshhUXE1+Zui9MyeO7N+3b/fu3dt27g04effeq+iU1LhXgVdP7tu1bpX/slUB+07dCY7JQzdT6SxYYHwKZNq9Md031gYy5a08c/b4iM1VWRFnj+9evNBzznRnV4cJ093sHZ0mDB4yuP8QLR0TCyv7BSu2PQ1PriPDbAYFX5Py6ua2ZVOHDzMfOtTQyFjH2NxwjKPrTPeZUx0njhqmpzNAU0fHas7qvW+q0PVtreVp7wKPLVswffKEMeYmlmbDHF2cJ1tZj9U3MTW1sLAYOXLkyNEjR9s7TN1+NTi1nsFm/QQPi05pL0+PvXFgqe34cSYmRkZGeoZD9c1tbKe4e82bM83eeuQwY61BWv0H6ZuMcZy59tzFt+WtFAbzJ7Xx3WIgU75LWS8EDGTaC5C70QTn1aONJYmBuxzGGkIQJC4lYzredtHqlf4bl9lZGivLS0MQUkhYQ8t4w8lbaU0MNoNOaUOnh/1vu4+ZrqKEGMQtCCERMYXBg3WNTQy0lERFpCSkdSfNX/e0NLcUnRl0OmDqCAUpUSGUmNLAUTbTt+3YtdXHw95wgJywEBJColDS6kp69tO8Dj14m9NM/6lMYSaD3FRZ+PrW/qnWJqryH9rlbq6qrGU6ysrSwkRzgJIEBEFIEZl+Bh4eAW9L2yhUQdk1BTLtxpjuM6sCmfJWqmEmnYjJjb/l72ZjKt9PzdDceu+Np7G5Rei8uJBLm+3NdCUQCCRSXkNz5q7zoWVEFpPFopPaGvLCHxzx1dRQgiAEBAmLSg8cOnnZih3HTu7xnzli6Ag9g7FzVgc8L0pPf393m4+toqSEkJC4lNL4GcsuRZVm5+fFPjy2aZaFjIQIQkRCQnfS6GW3nsYWYVqJv3pJNAyzaGQitjD50QEX62FcmSJRYooDzdxmbbxwJ+jB5UO+s2x0IQhCICWk+9m5LrieXk8kCMquKZApb/2z4Y1ogEx5Iw+fouDsmTajc16f2rJqicMUbx//k+/yKlsoVDoRi04IXDdplCYSgiARJfVhq4/eTm+mM1hsmEkh12eE3w3Q0VSDICQEKSj1n7z6WHBoWnFB6vtHx/cdDNi699zdR0nl2YnBu3ymKSMgIUhEWs7YfdmxhCZGGx6HzXh+YctMeRkJpJi0tNlM24OR6bUdtC73ImEWi4hFx191dx7NlamotNyIab7HHyZVVmOqC2Nv7ljqKAJBSIS4pPR451kXUzFEPJDpp0SD34JHAMiUx3LKsWlbY1lqZNjbB0HvQt8XYlraiUQcrqWqOD5o56QxJgiOuBRUNXz2n4vDUjhndTgyzQy/t50rU2EhIS0tg1XX3xRgyDCNiG8sKyjIycwuLKvANJSmPFrl7cQVn7iswrj5a6/nEdgECrG1OOLGgUUKcpIcmY6aZXciJhuL+8Wp/I/IYBaLVI9OuO7uPIZbp5SiquuGQyFoIpvOIHdUxd3Y5aOLhCQQ4lJcmaYBmfLYWAPh9CwBINOe5dkTtXEvXsK3NWEq0flZqXFR4a+fPw26d+3CgQ2zh+oN5nrrZzJFIERQKCN9kx2BkaXNDDYbhlkMOqcwGAwaHpv/arvvNHnOnqmYjPwo92Vn32Oprfh2TObT81vd5GXEkeLS0pZzJp2Oy6n/jZ3Ib2WKQMioqHtsPRpaTWUzWDRSY86bw2uniED9kECmPTEqQB08TwDIlNdSBLOYNFIbtigtJuTOmb3+PlMcXezsHF1cnB0njjFU6Sf7S5lCkIiQkIGe8bbAiJKW7/YtWdT26tTbAb4TlaQkhFDiUmqjXX2PPkuNT04Mv7NrvftQaQkxYSk19cnL5gbmlDSTfnYe/wuvTmTque1YWA1HpnRyc37Ecf854pCyEJDpF2bgkwATADLlreTCLCalrbYo+v7BTb5OE0eZ6Oioa1iOd1i0PmDnDn8fR30ttS5kKoxE6usabQ4ML275/m2tLGpHbVbw6e3TzRWkxIRExFS1jK2mzvOaN2+W0xgLXQVJSXnF/rbOKy7ezm1uIn1n4s4odSHTgncnNnhJcGTKnTO9AA7zO4MIlgkOASBTnsolzKLhG3Kj7vvPsNRVgyCEuLT6KIfNh65E5qDRxUnBO+3HDu1qzvTnMmUzqbiG7KfXdk5VUZZHKQ1Q0zcxNx9hamo6fLiZ+cixE+zd5y89c+NJbj2VTe96v5RzL9XXc6bcw/yv90wL353Y+EmmVk7uZ5NrCL8xEctT6fhpMOBs/k/R9OEvgEx5Kfkwk0HCFr+5vt1cy0BSGIFAKA82WPG/51EFjYQODDrxweZJo/U4Z/MhBdX+vgfOx2O5txV9ewLqo0wjir8/zGezaLj6/NcX9s4dqaiiIj1y6uSVe86cP3Pi5MkTJ86ev3Q36DPVQYUAACAASURBVFVsal4VtpVE//mNT9/A4sq07NMJqC8ypXEO80lNeaFH/aeLQYpIUQnJYXZu+yLQ7S2CcqEpkOk3IwH8wSUAZMpLAwFmMoh1hc8ubNVR0ReGEAiEiqbBijNPwzLLKgviX1/ZPMVcV/bTnumSvefe11CoTJjFIBFrk99e36gzWBWChJFIHW3DtbdC8xqo3+5esmi42swnB1ZPGdJPWlZR0cp73r67EXHv30VFRUbGvI9NSsvMLyqrrG1saSNSaczfuPeTxWDga4qjzs9wGMm5nhQhraw2c+Phl2UkJvdsfsLD3b5jhCAZBFJUXGWM0+L7GZhawocnCvAS8z+KBcj0j7AJ+EZApjyVYCaDhCl+fnmnjoqhMEdQUgrKllPnL1m7efMaH09H84GqctwpU0hGUXXa6gMP07DtVAaV1FSX/vT69pmD1OQhSAiBUOyv5XLgTkR+I+Frm8IMQkP+q/1LpvWHIGFhSZkhlpZTl2zYtm3z1q1bPpTNW7Zu37Xr3O1r0QVlLWRqF9eEwjCDhK/LjLq23mE05+J8CBKVVxy5cNOlmIp2PKG1KunBUT9XNQgS4dxFIGY01mF/cEYulsB5oAD/FyBT/s9hz/cAyLTnmf6HGllMakt1bPClKVa2yrLSCAiBQAqLSEhKqan3NzI1NzPW0VCRE+V4S1JuqJ3HlsuvCho7Gupyw2/tXjhRq5805ysIQsgoDpqx8n9BcWUE1pf7QWE6vi73+ebFU6Q4V/YjEEgUSkRM/NsiISMvazzebPmJSzGlZa2/PCaHGQwiBp30cM/C8cYDPypeXKqf5ZRVxx9lVFQURV7ctsRanzsnAQmhhFW1hrn7nwpJRTf/stb/gK5XNwUy7VXcfNIYkClPJQqGmVRSAzon6NyhWU72etraWlra2oZGxi5TZ+383+WrJ3b4zHcZraurq2dgOHL8JL+dx6PRmNKiuBv/2zxh1DAjAz1dbjE0Huk4fffFR2kNdPbnW0JhJqm+NHKf3yx1CEJBSCRSXEJSXllFWVlZSUmxn4KctKQ4EoVCIiXlZU1sHfY+eZJWTSD9rJDJJAK+sTAl9LLXVJsRJoYf2jUwHD7efuWWQ68zs5If7Vq9eOzwD8t19fSMh41wdF9w/W1i5W9cwMpTKek0GCDTTrH08YVAprw2AGCYQSY2lOWGvXh29fKl8xcuXrx24+bLNxG5ZbW16Nz46NePbnDL7Tt3XkXGlDXjmhsr0xPffVj46ee9wIfRqTm1eOaXPVMWDVeZ/njTAkc5CEIhxaRlDEeMdF3gu2jBwgXzPWdNd7K0MJSWl0ZCCCRKSUvL6+i+O5HpGVmdl+yc3PzSqip0eWnao4eBnxq9cfPmnXv3wyKiizCYmtyo0Ne3P3/D+RD48HF6SVXrdzO5vIb/9+IBMv09Tn1rLSBTHs03DLOYDDqVTKZQaPSPT4L+L6HC1Paa5Lub5k3ShyBIQqrfeIele04+fBcX9S4yIvxNSPDtI/tWjTfWVoA4z1EZoDh5pZPv9g0bNnVeNm/ftf9KSHR2C5PdxczqfwmZh7cFMuXh5Pyz0IBM/xn6LhuGYRhmseDfOK/eVVUwm83AY3OfB9i6GnEe06esMWDzyaspFY0deBwOj+tobWxEJ0bf2zxxlC6EQAor9VdxXWRo7zbS3Nyi82JlY+937HpoNZ1N7/J5KF0Fx4/fA5nyY9b+dsxApn+bMC/U/1mmdq5G4hAE9VNVX7br2OuU/PLKqqqaqgp0ftb74JsHFo0cOlhEXKr/UHO3HcfW7D2ybePGLd+XzVu2bNq8ZduOfVefReY0M9m/cacULxDo4RiATHsYqEBUB2QqEGnsuhMsSnt14q1NXracw3xxSWnTcXYei1es89+wYeOG9WtXLF0w08nKqL+a0gCjkTPX7b8XnZKUnZ+T0emkaWZmVlZ2XllNQwcVFqg3O3VN8dMaQKafSIDfXwgAmX5hIdifWHQSpijm9MHNE6ytLEePHGlhZmY2glNMTUeMGGFmbjFqzFgbe+elAUcfJFXU4ykMFsz6VYEF541O3U88kGn3mQn+FkCmgp/jjz2EOU+jqikvTIp99yYk6NH92zeuX7186dLlCxevXLpy49b9R89ev3uflFtS2Yij0JkCcW39X8stkOlfQ8vHFQuCTJcuXbpq1aq2tjY8KF0S6Ghva2nA1FSUo0uKiwoL8vML8vIK8guKitEV1XX1ja1tHbgu6wArVFRUrFy50tPTk0wm8/G/fhB6jxIQBJl6e3vb2dmdP3/+EiiAQK8QOHbs2OTJk4FMe9RFfF+ZIMh07ty52trarq6uU0EBBHqFgIODg6GhIZAp3/uvRzsgCDJdvHjxzJkz37x5Ew4KINArBB4/fuzu7g5k2qMu4vvKBEGmfn5+/v7+dPr3T5bn++SADvAqAXACilcz8y/jAjL9l/RB23xKAMiUTxP3V8MGMv2reEHlgkkAyFQw8/rfegVk+t/4ga37JAEg0z6Z9i46DWTaBSDwNSDwIwEg0x+ZgCVApmAMAALdJgBk2m1kfWADINM+kGTQxZ4mAGTa00QFoT4gU0HIIuhDLxMAMu1l4HzRHJApX6QJBMlbBIBMeSsfvBENkClv5AFEwVcEgEz5Kl29FCyQaS+BBs0IEgEgU0HKZk/1Bci0p0iCevoQASDTPpTs3+4qkOlvowIrAgKfCACZfiIBfn8hAGT6hQX4BAj8JgEg098E1adWAzLtU+kGne0ZAkCmPcNRsGoBMhWsfILe9AoBINNewcxnjQCZ8lnCQLi8QADIlBeywGsxAJnyWkZAPHxAAMiUD5LU6yECmfY6ctAg/xMAMuX/HPZ8D4BMe54pqFHgCQCZCnyK/6CDQKZ/AA1s0tcJAJn29RHQWf+BTDujApYBAr8kAGT6Szx99Esg0z6aeNDt/0IAyPS/0BPUbYFMBTWzX/oFwywGlUxoa25ubmpsam5p6yDRmQwmZyHxy0Icic7iLKSQPq/Z2o4n0VlM+EtV4NMHAkCmYCT8SADI9EcmArYEZjEobTVFWWEPnzwOvH3/4fPQmIIGQjuJ3F5VmB368MmjwDv3H4WExRY2kDqI5NbK/MzQh4+5C1++SyhqohDowKbfDwkg0++JgL/ZbCBTgR8FMIPSXp305MEm53kzHOydXJes3/kst766pbUy/uH9DU5ebg6TnaYs27TvVX5zbXNLecy9O/5Os6c5ODhPXbn98Ft0WxOZJfCMuttBINPuEusL6wOZCnyWYTqpseTN8ZPOInpKQqLiEqa2Uy/GVRRjsIUvDh11ENbqJyQmITXa0f1Wcl0Zti7v6Z799sID5YXEpaTHuXndz2nAEJkCz6i7HQQy7S6xvrA+kKnAZ5kr0/DjJ6eL6CojhEXFRti6Xk0sR9dji94cOjZVeEg/hIi4xEjHmbfSasvr6/JC9h5wER4gjxCTkLSa5nk/F8i0kxECZNoJlD6/CMhU4IcATCc3l78/e8FbyXSIjEI/xXGu7ndTKyuaGtCRp84vUDQZLNNPSXnijLkPsuuqmuqLw46e8lI0GCijqKxi77E4qKC5ngT2TL8fJECm3xMBf4M50z4wBmAmHd9UEhF5fcV2f1+/Zcv2nzybUNHchMc1FYVFXV2+bZ2P37LlB09fTK5pa8F3NOS/Dr+8fPNan2XLVxw5fy0NQ+iggTnT74cJkOn3RMDfQKZ9YgzALCaNSOpoaG5qaGhoaGlrJ9OZTBaLSSNxFjZyFra2tVMYnIUMKpHU3tD0YWF7B4XBYoGT+T+MEiDTH5CABeBsPhgDgED3CQCZdp+Z4G8B5kwFP8eghz1OAMi0x5EKQIVApgKQRNCF3iYAZNrbxPmhPSBTfsgSiJHHCACZ8lhCeCIcIFOeSAMIgr8IAJnyV756J1og097hDFoRKAJApgKVzh7qjCDIdMmSJV5eXgkJCSmgAAK9QiA0NNTLy8vT05NMJvfQv0RQDd8TEASZzps3z8jIaN68eQtAAQR6hcDs2bOHDx8OZMr3/uvRDgiCTBcuXDhhwoTjx4//DxRAoFcI7Nu3z87ODsi0R13E95UJgkz9/Pz8/f3pdDrfZwN0gE8IgDlTPklUr4YJZNqruEFjgkEAyFQw8tizvQAy7VmeoLY+QQDItE+kuZudBDLtJjCwOiDAZgOZglHwIwEg0x+ZgCWAQBcEgEy7ANQnvwYy7ZNpB53+bwSATP8bP8HcGshUMPMKevVXCQCZ/lW8fFo5kCmfJg6E/S8JAJn+S/q82jaQKa9mhp/igllMBp1KIRFwHe2tLc1NzY2NTY3NzS1t7XgSmcpgCNzD+oFM+Wl49lasQKa9RVog24FhFoNK6mhprKlA52Umvw9/++JJ0IO792/fvnPrfuDjkJfvktILKzEteCqDBQvQ60+ATAVyOP/HTgGZ/keAfXlzGGaQidjihEe3L+7ctnntSl9vrzkzp7g6TXaws7Of5ODoOsN9ru+abftuvYwpbCDRmYJjUyDTvjzuf9Z3INOfkQHLuyIAs1iUFkza093T7QzFRCUkpVU09Y3NRluNsxxjPlRXpZ+CiLCwiIisopqd16aLb4payQyB0SmQaVeDoy9+D2TaF7PeM32GWSxSfUXirYUuYyUglKTCoMm+e07cexUTHxn68NyOKVaj5EQhCBJCSalrui5Y9zC/hUwSlJdGA5n2zBASrFqATHk3nzAMs1hMJoNBp9NoNCqn0Gg0Op3BZLHgzzOQMOfsD4NOo3MKjVPoNM4a3E05S7jb0TlngT5u86HeD9Vya/1QLbeCDz8YdM5rnz838RNEMItFxJYlXPecNkFMTGWgzuR9d6OysAQ6k4rHFoSfWDVv1CAIghAIcUnp8U6zL6bUE/HMn1TFb4uBTPktY70RL5Bpb1DufhswzKLTKfiOZkx1WWFeVkpiXMy7yHeRsbEJGTlFFfWtRBqdu5fHYtAIzTXlJbkp6elpaWkpKakJabmphbX1La3N9TXovPTE+KjomKiEjPySRjKJxmJzKqYS2+qr0fk5aUkJ799HRUbFxCUkpWVl5ebm5nFKbl5hflFNfSuB/utJTpgFU1qwea8P79rg4rrAe+nJ6NyaDganr3RiS0HoyY2eFl9kOutiMoaIAzLt/lAAW/ALASBTXssUDDNopI7GsuLshJi3Lx5eO39s156tK5Yt8XJ2dXGeNXvuik27/xf4Kr6supnMZLMZZFxtxttHFw6uWb58+bJlS3yWzvXb6LPj0s3HTx7dvnB4y/L5Xq5uM90Wbz12JR5b10amEduwZVmRL26fPxKwYZnvwjnec728PBcuXrBs7ZrNmzdt2bJly9bNW/bsOnQ/LBndzmL/Uqcwm0mltteVFuQkJWWk51a0EsjcWVGYRmjIDTm4zn0YR6ZICWnFSa4Lb6Y3kAhAprw23EA8PUcAyLTnWPZETTCLScPVl8QH7dq4zMHextbacpLdhFlzps5wdzLQ01IfMEBjiJ6xucscnxvPIssJLDaDSsBkht3fuWrmcGMjba2BgwZrDNYdZDjScqL9JNsJY0cYDRmg3H/gwFEzlu98VVlS14jJjgj63wY3x/Hmw42NDcaMHDXLw2Om/aRx+gb6Onp6uvr6+kbDho6Y5Oi288bz9AYGu4tJTpgFM2gUMolAIBEpNM70AxuGYRqhseDtKW/P0f04c6aiMmqmXt4HwtHtVOov3dwT/HqpDnCY30ug+aoZIFPeShfMpJOwBfG3N08eowdBCFlFFae5vvtOnb50/tCyObZa/RUhCCGEUtPUX3XselI9nc1k0PB1xakPTm+fPk5NTgriFoSwhPQAsxHj7J0mjhoiKS4nIa1jN39NUHFWYX7s1X0rLbXlxIWFRSWGDLeft+nqleuXD/jPtTVRFxMRQgiJiCgbDBnnu27Xvci08g7mr/dMO0PHOcXfXJsVvHuxtZEyEoIgCVnFCfO3XYisbKUyBWXHFDw1qrPU9/llQKa8NQRgJp1Ylx1/Y80MOzMllUFm410uvU0payFQWtCZIcdmWA2VQiAQCBm1gc7bzrwsxrMYMBtmkEmY1NBbm3UGq0IQAoJExOV0Rrpv33X27oNLh33GjbIyGT5hnv/OF4WpyeGXVnlaoBBiCKSkjJqj9+bgUgK2uRkdef2Iz3g5KTGEqJTUULeJAW8TyltJzD+4bwmG6SRcRXrEmbW2ZtoIBCQiJmE8ynrflYcl7UxBug8K7Jny1j8b3ogGyJQ38vApCs4dRa2VRdHXD+3cOn/J1q2H7iWjMe1UCo1YX54ctGXyGD3O3p6Qopr+isPXUhppdBYMMynk+ozwuwE6mmoQJIRAqKgPnrHzyrtkNLamJCfq/rUb585cCnwZmlWZmxi0ZbGrDAJCQqLSciPmrDyd2sbsIOIbc19d3umpICuBFJOWtnC3PRKdUdfRxdmnTwF//RtmUgj1eakPjq8ZbaAjJykhLWdgMS7gXGBCUR2J8elagq834NvPQKZ8m7q/GDiQ6V+E+ydVwzCTim/HFmemJr+LSolPLa6uw9Rja6vROSmvb2y0tjBCcI7kFVQ1fPafi8NSPsk0M/zedq5MhYWEdHSM/G+FFtVTYQaF1I6tqi4vK6/G1Dc3l6cHrfN2FuJeriSnMG7emqtZOBhHJjQXhl7fN19BVpIj09Gz7E6+z8biuKflu9MDmEHBVeWGnj3uPWa4nISKjNzw8ZM3/O92XGFtG+dUmUAVIFOBSmcPdQbItIdA9mg1MItB7mjClOWmRL8OvH313P9OHD2wc+uKeZO1B6lzZ0V/JlMEQgSFMjIw2RkYWdrynQ4ZxMaisH1LZ6gjIRRCVFp++FSfY6EVhKb2lurk+6fXO8rLiCPFpaXHetifS8ip7+4loTCD2l6V/vjSZmcbbSE5GUkTK/sNx68nVeHwVEEzKRs8ab9HR7vAVAZkymOp5FwHSsE1lKdFPrt+fJvfbMdhRiMMjMxHjx1raWEyROHjOaafyRSChIWE9HWNtgRGFLd897ZWmIbH5Dzdt2raAHkplJCohPxwu9lbr4e+Cn3z+Mw6X0ctKXFREZmBmi5rljwpRLeSu3HiHWYxqfiWiuTAg3OnjRnQT17G0GLc5lN34oobyHQW5/4BJpPBZDLh7p/O4rHkfA4H7Jl+RgE+fCYAZPoZBU98gJk0Qn1JStD/1i6YZmGipzVAU1PHafr8gBMXLl88tm3OcAPOTUW/PMxHIvV1jTYHhv8gUzaLhm8oCr18cIGVoqwESlxKeYjBKDtXlymuDhPMTfU0VFQH65rM9g548Loc10b9/dvoYSaN2FyRGnF7+0xb48EDVAxG22w6fS86p6KNROc+VKqtAVNdWV3bSmbQurjSiidS8DtBAJn+DqW+tg6QKU9lnMWktFYnvzg/18a8vzwEIWQUBzl5H7v2PKMSU12W+nzP5LEmnBNQv5oz/blM2UwKDpPx6PJWJ2WVfqKaQ/XGTZ42bYqLi7Oz8zS3mfMWr9i2/0RwaHxlG53N+P39Uhad2Fj67vEpD4dhGurKGmYTPXZfjC7CNuGpdDqNgm+qzHpz7+qJo+euxlW0t1IExKZApjz1z4ZHggEy5ZFEcMOAGXRCbV7w+fVaKjooCIFAqOkYb7kdlV5HZJCw6Ph7GyeN0vko0/6+B87HY6k/noD6KNOI4u/nTGEWtaMuM/h/ATOG91NWlbOeO2PnhaDgoMAHD+4HPg1+EZ2YXYFpI9C6d0EUi0FqKYu8t3OhMwRBwpIy2pPmeJ98EPw2PDwiIizs7evge+d2zHWwMjKzd7uaUlON/24el5fgdycWINPu0Oor6wKZ8lKmYQaDWFf47GKAjoqBMEemSoN0Fh+6FRSdlhn34s4h34lDB4tzz+bLq2h47zoTWUmkMFgsOgFXGf/y0lrtQcoQJIxEDtEyWH7tVXYd+dv9SxalrTLx9tbFExQlJaX6KY2e57Xr5tvoqPB37yIiIiMj38fGJaVm5OShq6pb8CTa71xlCsNMUntlyqP186b0V+DcOSokJC6npKKpZ2BkzC1GRgZ6WgOUlZXkLRzcbqbV1ACZ8tJwA7H0LAEg057l+R9rYzJI9aWvbuwzGTRMXEgIAYlLyxlaTnKa7unlPt3ZevggNXlhFGfXVEpBefLibVejShuJVFJHXcn7WydX2g9QloEgJAIhqzrIevO55ymVrZxL+j9FBNMJ2LwXu5dMVYEgFEpMQs3QaIyju4fH7DmfyuzZc+YuWLD5wM6HsWnV7bguJzhhFoOARb+/us5l9AAh7lTuT36IiIlbOLjdSq+pIYA900/5AL8FjgCQKU+llMWktddnhD/wdXPTVFHiHtFz1IdSUx80xtbJ2Wa0gbYa555RYXEp7VEOyw/fTq1prilPCTq3wXmEuqyE8AebScqp2XnuvfE6r43J/nxdEswgYgpeB/hMk4egjxX/6D6UiPAAY+1Zm3Y/y8zBEj+LuFNGnHP4zaXpj7dNsTb4saavl4iIiY90cLuTXlMLZNopSrBQIAgAmfJWGmGYScfXV8c/ubJs3hxz0+HDh5uajh5juWDR8ktBb0MfXgjwX+BgZmZmZm5uNcHWb9v+iOLaovyYyyc2jx0z0tyc842ZmZmFxQSnaTvP3UvGfnUqCWaS69ExB5bNHghBwhBSSEhKRlZlwOCBAwYOGNBfXU1ZXlYKKYxCIIRFxQabmvvfuZtQTiQRcPifFQKBSMI1VeS8Prl28bSPDf/kF6cDK/3fFDY0kj67nbewdzcaMGfaXWJ9YX0gU17LMgwzaZSO+qqs1KSw0NevXr1+HRb+LjU9u6q+uQVbVZiXHv+OW6Kio9Nz8utxJBzneX05HxZ++hkTG5eHrmohs9ifzycxya0lsdfXeEyUhCBhlISqxphJLku27A7YsnXLZv/Vy72nOFiqqCqIQAgkSlFH1/Pk8VuvMxPehUWEh4V3UiIiouOyigswrY11JdnpiZ/a7fx3VFR0WlZOPZ7ajQuueC0t38YDZPotD/AXhwCQKc+OA+77kzkPzuc+9f6/hskit5THnPeZYzUAgiBZBZUZi7ZdC4rOzMvOzMrMSImPf3vryr6Z5kbqXJlqD5myZ73PltM+Hp4ec75Mqn6aXJ0ze47ngsVLj985n9HcShGQnc1uAQYy7RauPrIykGlfSDTMZtNxdZlB60c7cS+tUh0waN/1+8VtFAb3BSdMGolUn5v6dM8kS0MIiRRX1zOdf2id++Ito41NjIyNPp6a/3CCnvPTyMhoqMUYq1VHNkViGojf3WjVF3iCR/D1iSx3t5NApt0lxo/rw2w2g1Cf/3K381QTaQiC5JVU5/vvvP82Lj0zOzs3OzMtPvL59RMb3U31B4jLKOiOdVh18WVQ0POwm+eO/+/M/06d+a6cPn369LmL10PeR5XhiV2e9OdHYF3FDPZMuyLUF78HMu0jWYdpeGzms6PL3MfJyckqKauMsLR2dfdcsNDbe5H3wvlec6Y721qa6OoMGT7BZfmRm6E5lVUYbENNeUlpWSm67LuCRqPRZeVVmOZmAuN3rkcVPMRApoKX0//eIyDT/86QP2qAGZSW6uygO+dXLF28wGvOrBluU6e4ujg7uzg5uTi7Tp02Y7bXAt+V645cDowsaGgj/8HjTPmDQ49ECWTaIxgFrBIgUwFL6C+6A7OYdDKxrQlTXpSTmhQXHRHOvVrgxcs3r95GRMYlZxaiqxtacSQag/Mq6V9UBL4CMgVj4EcCgiBTX19fHx+f8vLyalC6IFBVXVVRUV5aXJifl5udlZWZkZGRkZ6RkZGZlZ2bV1Bcgq6oqKzqog7wdXV1Zmamj4+Pp6cnmUxmgwIIcAkIgkznz59vYWHh7++/ERRAoFcIrFixYsyYMUCmwKJfExAEmc6dO1dbW3vKlCnTQAEEeoWAo6OjoaEhkOnXKgGfBUGmvr6+S5YsKSkpKQcFEOgVAqmpqYsXLwYyBQL9moAgyNTPz8/f359O74tXj3+dS/C51wiAE1C9hpqPGgIy5aNkgVB5hQCQKa9kgpfiADLlpWyAWPiEAJApnySqV8MEMu1V3KAxwSAAZCoYeezZXgCZ9ixPUFufIABk2ifS3M1OApl2ExhYHRBgg6dGgUHQCQEg006ggEWAwK8JgD3TX/Ppm98CmfbNvP/NXsMsFpNGpZBJJDKJQhfIx0oBmf7NAcSvdQOZ8mvmeDVumEUnEZsri7NT4uNSE7OqWglUwXsWP5Aprw6/fxkXkOm/pC9YbcMsBpXYVl+VnxT2+OLRnRtXrti19cibnOo2imD1kw3mTAUuoT3SISDTHsHYtyuBORql4FrqitLfP7l0cN1cS3NjbU1tTV0nO/erkXn1OJag8QF7poKW0Z7oD5BpT1Dsu3XAnHdTU/DtmOLcqKBzG1d4O1iZ6qqLiqAQKHHxgbajvANjippIAvdwVCDTvjvkf95zINOfswHfdE2ASSc3V6W/fXNtb4CP2xgNJXnoY0GISEoauY7bGpZa0cbouh4+WwPIlM8S1ivhApn2CuY/aITzpmcqhYTvaG1qwNbWVFVwHodUVVWNaWhqI5DpTCZ3dw9mMWmkjrbmhloMpg6Dqa2rq65rqGvC4UlkEqGjtQFTU11eUVlRjWlsIdDp3G1gFoNGxne0NtZjaqsrKyvKKyqqqmswWGzDh9LY0NDU2NxBINO6OnEEs9lUYlNu6PGFPhMGq+sa6RsY6msN0FCUQgkhEcKSUvqu1v5hqeVApn+QfrAJ/xEAMuW5nHHeLkIhtDTVlpdkp8eFvXx888aFY4f3Baxbv37dtu27T1689TQ6raShhcB5TROTSmwoTAh/euv4iRPHjx8/dPjo7mMXD994/S4hKT7y1cPLJ/bu9t+0ZeP+83efZTc34mkc9TZVF6S9e/no6vnjh/cF7N6+bVvA7v37jp85c+nSxcuXL1++cunyrev3IlIKa/EsdlcH6HRSc1Hk+WWr5tmbLztw4NL1y8f8V0wb1LnqAQAAIABJREFUJispypGpnqv1eiBTnhtgIKC/RADI9C+B/dNqYRaD1FabH3vr0gn/Nct8F8yZ7eYw293R2Xmito72ID19o5Hj7N2Wbzrw6n1GPQVm08m4mpQXN7avcBs50tLcfLipmZGZlanNTE/vRQu9ZjpZWww11NQ11J/guXb/2+qyhvb26uy4Zxc2rZw/3cnGysJ61AgnZ6fJ4yaOH2YxZsy48eOsrcdbTxg/wXXqrD03QzIaGOyuTh2x6KSWiuSQlyGBl+NKiuqw5Qn3L663V5KTADL90xEAtuNXAkCmvJU5mMUgN5YmPdzrMNYIgiBRCUn9ESNnec/zXTZv5DBtORkJCEKihPtrD9186nZGM4PNoJNbipJeHtgwV29APzGRDxOWCKSwiIyq6oAh2oM05EWEJSWkde3nr3+KziuryHtxYfecUQrSYkghUXlV09F2q/z9V8+ZNl5TRRqFREBIISFJJfmBYye57rgZkt5IZ7O62jXl4GMxYRaLxWYzKHhMyuPLG5yUgUx5a1iBaHqDAJBpb1D+/TZgJp2IyY2/uW6K9VBpmX46JqO3X3wQmZFbmBkVdGa9jam2KAKBRCr015y9+0J4BQlmslh0Qgs2++3dA4s1NRS5MkWJSGnoTVi0eMPeg1tXuBjqGg0eYjFj+eZnhekZcQ92+DmoSEsICYlLKY6d5nvmbUFaVlbk3YPrpo+QlhBBCEtI6NiO9L36MDKvphlPh7s8zOf2DIbZMOd1pkwg09/PNFhT4AgAmfJWSjl7pk0lWSFH1y+dN2HS7PkrD4RmlTWRqXQitjTu7iq7kYOQnB1WJY0Ra47dzWihM1hsmEkh12eE39mmo6kGQUgIklfUsFm6/2FIQm5WfPitvVu3r1u79fi1e/FlWYnP9/i6qSEhFCQsJWcwc9nhuAZ6Gw6HSQ8+v2m6vIwEUlRa2mym7YHItNoOWvff9gxkyluDCUTTuwSATHuXd1etca5/J7Vgi+JePXt69dbL4NCcmqY2IplAaKstTQreZW9pwpEppKCq4bP/XByWQmfBXJlmht/bzpUpConUHKK/4urr/DoyTCV0YIuyslOTUrOLSmvqi5MfrvJ24u69issqjJu/9lo+gU2gEFuLI24cXKQgJ4UUk5YeNcvuREw2FvcH1zMBmXaVXvC9IBMAMuW97H64dqm9pb62Gl1UkJWeFB8VERby6M6pHfNNDYdwXfgzmSIQIiiUkYHJzvuRpc0MNptzZQCdTqPR6HQ6FY/Je7HFZ6o0AkIixGUVLGevuJDQSG8jdNRnP7+03V1eVoIj0zGzJ52Ky67Hd3VdVCfcgEw7gQIW9RkCQKa8lmoYZjIouOby3KTwx1ePbV89e/oMR0fXKVNcHG3GGCn3k/ulTCFIREjIQM94W+C7kpbv9i1Z1Laq5OubF1vJiYsjUeJS/a3cVpwJzU3PyYx9dHCLh6mMhBhKSlllks+sO5lFzaSuzuN3wg3ItBMoYFGfIQBkyluphllMakc9OjH41J51s50nWBjpq6tbjLKe7bNq7ZqlnhO1Bql0IVNhJFJf12hzYHhxy/dva2VS2qtTHxzf5GQiLymKEhHT0BsxyXPFspXLF7tPtDJUlBSXUVCzsvM5dTG9oZ7IuYi1uwXItLvEwPqCRADIlKeyCbPoxObC2KDtnuMMNCAIISapOnz8mt1n3mYUFxcmPNkxaawxgmPTnx3mQ9AvZMpmUvGNucE3dk9TUZYTkldRHKRtYKCvyyn6BkbDzUbbT5tz6OzdjDoKm/YH+6Xfnc0XkZQ0cLXeCG4n5akBBoL5iwSATP8i3G5XDTMZJGzx25s7R+kYSokgEAilQfp+x5++y6vHd2DLk4MC7McYfDwB1d93//l4LPWHE1CfZBpR/P1hPhumERqLIi4fWmSpqKIsZe5su3TbsRNHDhw8eODA8ROnr98LjojPLKttItJY7O6fyef0lUnB1SY9vLh+MveifQkJXUfLtc8T0S20P9jL7Ta7Xt0A3Jvfq7j5pDEgU15KFMxgEOoKn13YoqOiLwwhEAiVIQarL4RE5ldj0GkRt3bOHKmv8HHPtL/P3vOxtRQqE4YZZFJdSuiNzTqDVbl7pjo6hutvhxU0fucwFg2PyXl+dL27noqMrJLiOO95+++9i3sfGR0dFfU+Ni4lI6eorBrT0IrDU+gMVjd0CrOYTAbnLBexrb4g7PKhJZb9ZMQQSFERhZEmTsefJZc3Eqk0Op3BYHanVl7Kyw+xAJn+gAQsYAOZ8tQgYDJImOLnl3bqqBgKQxACIaOoZuO1Yv3uw4d3bVg6Y6yWhgJ3yhSSVVSbue7wk+xGHI1JI7dgs1/c2eOpqa4AQUIIhMoA7elHAmOKWr49icQgNha8OeTjpglBIiJScro2Np7+B44dO3KUW44cOXL4yNETp07dCX6cjK5up3T5mJMP4DhPWsG3tmCrSovz02KeX97vN81ykKSYMAShkELqalpuK888Ck7OLiqrqsa2ESn0P5o/4KkccYIBMuW5lPBAQECmPJCELyGwGJSmyqhHp23NrBQkJRAQAoEUFpWUlFZRVdPWN9Af0l9JXopzz6iYlLyp48IdN9+VNOObsQUx9/cvm6ynJCPGVS1SVnnwHP9zz5MrSfCXm+thOr4uO3jTIhdJzpX9CISQsIiohOS3RUpeUcHUbvT6C3eSKmtw35/A+hLmV59YNHJbWXr8q7snju7d5OdmNWKIiDASgeDuPyOEkDJKSjbTp63bfvjinTtvcsvq/+Ty1a9a45WPQKa8kgleigPIlJeyweZcgU/EFGXcPb7LdeK4ARoa6uoaGkOGaNnau248eOrM/g1z3W2H9e/ff+AgzWGjrJdsOxpViiktfH/t2Pqxw3WHDB7Yn1s0tYbaum4/9yC1gc5mfJqvhJmk+tLIfX6zNCAIxbG0qJiYtJy8HKfIyshIiYuJIoRQQkhpRYURDlMOh7zMxVDpVAr1p4VGZzBYMIOCx2a9uH1s7SQ7m/GWI4wNdD7E8PHnYM3BJmZm1nYOc9csOxuTXPbDRC5P4f/tYIBMfxtVH1oRyJTHkg3DMJ2IrytMCw68e/zI4YMHDx86cfLUg0fP0gorKgvSwl8/unqSW06fOfsw5E1RQ1sDtjQuMuTDwk8/z1+6/Pp9SmUHk/3hsaecp5HQ8NWZz7Z6uyhAEAohKimlYzTMzt1rlvusmTOmuTjamJnoSMhKISAEEqWsq7/w3NnnSVUVRfmFhQWFPxTOopKymoZGIp1GI3fU5iSGPfrUdGe//3f69LWH96JKK5qI4DCfxwYcCKfHCACZ9hjKnq2Ic18pnUYlkShkKp3xWYl/3AhMw9WlPdq5wGEoZ5ZAQsHcasGmPddfRbx59frli6cP7l3ctWWxuf5gWY5M+2lpTdu/fdfZoLOH9h/Yv29/J+Xg4RNngiJeoXH435xb/ePAeXJDsGfKk2n5x0EBmf7jBPyieRiGYRYLZnF+/2K13/gKZrMZBGxeyA77KcYSEAQpqw/YdOJKcll9W0d7e0d7W0t9Q2lC9N1NE0fpQgikqKqu4ax9q2YuDhg/wsK082JmaW2z7vi2aGwD8bemVn8jSH5aBciUn7LVW7ECmfYW6X/ZDkemeEzOsy0TXQxEIQhSVNNYvf9URDa6FlNf34DF1KALk18FHls62kRTWExCzWj0rL13L5y8cGf72hUrV69c1VlZvzHg8tPAnLYOyh/cxP8vWfRI20CmPYJRwCoBMhWwhP6sOyxKa2XsldUe1loQBElIy46xn+q7PmDv/gMHDx3Ytydg0yrvmZNGDOqvrKY7zMVv+42onOyiYnROalxicmJSJyUxOSWzqLKqlfbhvVI/a1VQlwOZCmpm/0u/gEz/Cz1+2pZFI9bmhR/avmL4sKHGhgaGBvofi56evr6+gYGhkfFQ89FWXmt23XhfWtdBZsAsFovF5Pz4WfnP0w/8xO+bWIFMv8EB/uASADLtMwMBZlIILeXF2dHhL4Mf3r11/dKFc2dOnTp16uTJ0/87c/7itduBT1+FxaTloTFtJCrzt95X0mfYfd9RINPviYC/2QJxB9TSpUvXrFmDw+HIoPyaAIlEIuJwbY3Y2spydHFRYUFeXl5eTm5ebn5hMbqiGtvY3I4jkH5dB/iWTCZXV1evWrXK09OTTCYDjQACHwgIwp7pokWLXF1dHzx48BgUQKBXCFy7dm3KlClApkCjXxMQBJl6eXkNGjTIzs5uEiiAQK8QsLa21tXVBTL9WiXgsyDIdNGiRVOnTn3y5MkzUACBXiFw69YtNzc3IFMg0K8JCIJM/fz8/P396fS+ePX417kEn3uNADgB1Wuo+aghIFM+ShYIlVcIAJnySiZ4KQ4gU17KBoiFTwgAmfJJono1TCDTXsUNGhMMAkCmgpHHnu0FkGnP8gS19QkCQKZ9Is3d7CSQaTeBgdUBAfDaEjAGOiMAZNoZld5exn3WHvNTYQnMe+d6m2OvtQf2THsNNR81BGT6j5PFeWQpg0YhEzraWjmlra0dTyDRmEzBeCT9P6b7t5oHMv1bZPm5XiDTf5c9mMWgEVvrq/Iyk9+FvX7+NOjJk6Anwc9eRsanVLa2kBj/LjLQchcEgEy7ANQnvwYy/Tdph2EGjdSIKYkLunxg3kyXEWbmoywtR1sMHWE2bKSbt9+DjJQ6wr+JrBda5cxqMJmMD4XJj7MaQKa9MEz4rgkg03+SMphB7cDmvXp+xmeGnflADfX+BqaTZnm42Q4x1e+nNtrJ7Uri+yr8P4msFxqFmXQKrrkRW1NZWVVdg2klkKn89rR+INNeGCd81wSQ6b9IGcwktZYl3N6xZoKKopSYpPTg8W7LTwe/CLzwf/bOA56q/o/jyIgoTZUGlerRXqRBicqeSUWSpKREStNIg4rMRBIhFUX0FDIrUfYse917cbnD3fP4d++pm3/k0ZKb8309r55zj3N+4/M9531++3fk7BFDg4MnXZ5WlLQS/0TKfn+cAEAnouAl/8ZFBri7u/v430wvqW0lchlNIZj+/geF+2KAYPonfMbaQyT7loOZnBDfKD7RseOVdx0OKejsQsAqywpep77KL23uwpC4jC8D1BEAGOSOqndh+3ZvmTd69Gjp+QudI54XI7lsXQUIpgN097C6DILp4LsbYFIxLUWPzlpqibO2sBcbN3Gr6ZE7BZ2YVjQK1dnZge7Ckxms3Z0/dfQT8F1YDPpTZz8Gi8MTyVQ68/NS+AAAMGgUEqGrC4fr6urCdmExXV1dRDKVSqPRKER8FwaDRneisBj2OTK515UUGss+XckaTYDtIpAodDprV1QmO2gcFsOKHcNaOZoVdW/J2JfSaRQyiYjHdWExmE8DE7A4Anun6s+3sAIkdtS+fuikqLpoFA8Pz3jJmXY3Y181YggEPJ4d+s/vat07eb/8DATTXy7pXxAgBNNBdiIAMKgkVF3eE/e9enI8PDy8vEJiYxYo6x8OSExOzCz60NhBArqB7m42drrQsJrS3Myk+NjIsDvBwbeCb0VEPvw3JbukGobCkWhsnjJoZFTT+6KspwlPn8Y/SYh9HBMd9yjuTWlVbWN9fVl2Slz03dDbgSEPI5/kVjTUV5bmZz5NSHwa/+QJ68r4x09yKurqm+rry16nPImKCAu5HRoZE5/+7n1LO4ZAJmCQjeVv0/6NiQwPDg6JjH78IrukBoFlcfaLbACTQaeS8dhOeMP7orevUp/GP4yKDA4JCboddu9hYsbbssY2NJF9A8Ckk7raanKf3tyvITNrIh9ra78JEhvtL1yKeZ6WlvoiLbu0Fo4i9wj7SyxD6wiC6dDyx9BIDQTTQfUDwKTTcC3N+dE3ThsqLZnKwzZ+QcGp8+ZtMDbfc8T73vMiJKObzqQTMYgPBZkPQ66fP2ZlqqehqrReSWndKvmNiluMzWxdfMIeZxXVtOGoTCaNjG149yzCw3af6S5DPQN1LbVNOhrati5XvW/4+bnZmmpvWicvv2il3tZd12PTM57G3r5weO+Onfp6+mraapt0tfXsL/n43fTzu3B4j77SeoUVq1YpqevuO3Xt9uPk9NdZz6NuXDy+b7ua0pqlS1cobdLaa+d2O/FVC45K+VSAZDJoOGRTcdHrxEf3bvt7OJ2wsTE1MtJVX7Fm9ZIVChu3GO53vHzr2ZtyJJHOYNLImMbCtHvnDhlKSowD884jLDpSbuMKI5O9Fub7DjoEx798j6L3RPWgumfAkUEwHbBUw+hCCKaD6mwmnUxoefU22tJcZ+k0iTFsoPCN4BcZJzFDdqXSZk3HgHuvEVQmEYcsz7jvartrjvSM6ZJTZs+RWae0boexpoLc4unTJCdISM5bvMrU4fL91x+wZAqJgPjw5lHASdO1S6SnThIXHzN6rPjYKdOl5i9YuHzpwrkzJSaMHT9q9PJFcmeinr/MSLl37ej2FfOnTZ4oLi4+euzYsVNnzpJdvGTlqqUL50tNmjB2lOho8bETpebMU9HYom+sL79afunC+dJTJcRFRo0ZLT5VSkbb0uFBWUcrgd7dDXQDFEJHeXKwzSGt+TIyMnNkly9dqaemsstEZ9FKmYkTxUaPGTdp9oLlFq4Bz6swZDIB05B91/fk6qXzJ4gI87MzP0JQaKzU3LnLVsnLyytv0bgc9qSkA4LpoD6TUGS/SgEIpr9KyQGFwxqn39XUUhxzx/Ow6rpFYDV/lKjsWpV9FwMjIh5kFJY34ym4tupXNx33Kc6dxsPDJyouoWxgdjkk8mnC/RsXbbQVFwrw8AgKCc9avNrK+fo7GBZNwqMRldmPvY9slZo7gZfFKF4+kTHjl6/ftHufxS71FQtmSYqJLlm80vFBevGHupK0iItWSpOkx7Ku5OXjGzVukvwWPWvH08dtdi2ZP1NgBCuAEfz8k6ZNW6G81fiQo53tgR0bV80S4BHi5REUFl2weYfz87rqDjILpkwCuik7xFZ301ShkaMnTFcy3XMmODrm6ZMId8ctK1eIsMISHjNh/d6zAS9b8GQKGd1Y9CruquN+lamTJrJhKjp2gtoeW2efW+HhYZH3HuaUViNJn1uDB6Ton7kIKpn+Gd2HdqwQTP+Af5gUTN3be0f2bGXDVHTs+M27bcLKMFQ8jQkw6DRsQ0Xy9b2blo3n4eHjE5WUVj1+7WEZmkohdcGKnnjaGEjx8Qjx8AiJjJLT3BGU09yEpTIZxPbK5LADsuulWQ2RI0aKzpTbauPmn5yekhDiZGdhrLpp1y4L37SS5k4SriUvJthsutx01pX8o8bMWq/v4BOZXVqen3H/qJHCHHb9m1dg5OjZKzdbucS+KnqXkxrlus9gNr+4EO+IkaOmrNE3DikshOFYTbtMIqbpbZiDpcE/cxevWGPgEvEwv4XSTScgq1PPH9gtO5mHh0dAdNw8raMn75d3ElnZYxDhtRl37RbNnsuKn2eC5MzjwfHvEEQGg06jsQbw/wF/fH+UEEy/X7O//w4Ipn/AxwAV21QYY2ehwYap2NjxGua20dUEJpHZDTCo+Jb8zJt7t6yawcvDyz9y2j+rXX2iStEAwASo+LaSp+6HDcbyjufnERg5avZ6/aPRZWUIApNB7PiQHHVEdsMcFqKEJ0xXPOwX/qqORu7qgpe/TXv+MPpJXFJePRJLoOAQhTF3LKfLz+Tj4eUVmTpn4+mIB/lwOoPaBS994qxuuIANWdHxM7Xs7O4VdRAoxK62yn/drxhPlBzLzysoMmqJusLF9Jd1KAarmk8loetzYkMDzzi4nHO9l1Hyvg1Pp9OIKHjx46t2hqt4eHj4RopPUti/1zsHhqfSuxlMalvjm/tnV8iwCtg8PBOnSZ2587SIPTRq6DeVcp4VCKYcKaADjgIQTDlSDN4BQMU2F8bY79PkwHSvbXQNgUlidjPpZHTN64RLBhsWTebh4eUXm/mPtmfg0yoiq1LNIGPr30WdOrGWX1KMl19IZNpqbfOQvILmLhCm9z7DVGyytLZzZFxJRzfAYFAJWFRHG6K9vQNLotJo1P+D6Zjp8ww84p69R3WzipOVSe6aO5ex6uYjxSfJmbt6pTcTaUw6uQuWey/0mNJMCVFeAWFhmc1ydk/TKzuoLMGYDBoJjWiqLysuLcivqKiuel/9oaI0Pzv14XU7E5UFLJgKi09ca2nmm43AUxkgTHMenFv5BaZn7yQWg4ENngd+NiYIpj+r4N94PwTTP+DVb8MUYNAIbWXPIo/Jr5ER5eHhHTFq+jzViwGPK9gwZVLwsPJ454taAjPG8vIJCo9buFndLeVldQeNXTLlwHT0FGlDt+jECnSvvAEM2heY8vLyjp0xf5fnkxdVaBCmKR5aO1ewYCoyTmKD1aWgN21kGpNBwbcXPbnnpCc1WZyXX1hYWkXu4JP08s/j7JkMOhHT0VhZ+CI++qLbhaNHj9gcOmC5x0hNYfEsVrso30jxiWss93h/C6Yzz95JgGDay1PQCe5TAILpH/BZvzDtail4ELxvxqqZfCyYCkvOXevsd7+EwO47p+LhFfEul0GYCgiPmb9J5XRi+vt2Sm+Yut5LLEP1ylsvmE6fv+vqkxcfesF0rMSG/ReDXrd+C6YZIEwBOo3Q0ZT74t8bl86Y62+dNnX+BMnZC+UU1q+XXzpnpoTop2q+nKW5JwTTXt6ATvxdCkAw/QP+7BemOHjx41DrufKzBFjV/DEz/9HzDPy3isTuO6fgYGWPnS6o8U8XZ1XzZypoWYW+K2rBMv4MTAGA1tX5IT388E7dWVMmjx8vMW7mWjWzk34Pn6QkR/scNtsyF4LpH3i8oCj/kAIQTP+A8H3DlAi2mZJQ1RlP3DYrLRz3qWSq6OR9vxjD7GYCDBKmPvfuSXt5vimivAIjReYo6jk8LCtvxX/VAcWq5n93yZRBQFZ+qeaPlVD6/5Jp1DndT9X8WSpy1gmskinAoGKaKp9ds966TGIED9+I0ZOlDGycot7UIuCIhncxLrb6Cz/BVN7S3PNNzzbTs5/bTCdIznS8FZfXRmIymazufC7pz4faTP/AazPko4Rg+gdc1AdMj0bXkFgwBRg0EqI0O/zoVoU5LBKNGDNNRu+sX2ItgUFnULrgRfevHdogyTNakEdQeNSSzUYeKXW1nWQmg4j8kBx5RFaJ3Zv/qc20vO82U3hhTCi7N/9Tm+m1hBdVmO5uBgH5ngNT4bES6/ZdCHgJB6v5bYVxkWc1pSaPYXVAzVGVs03MrOygMemk9sq3EXZa62TYQ1MnSsse9wh6i2GwCtAvrh40XTXtE0zXWO31yW3DU5mfO6BOLpeRZY/aHyMxzeTy3X8r2/F4DKK+oa0Dg+OGRbEhmP6B12bIRwnBdPBdxBoVWv3yto3JJnZv/qgx45SMDwa9Q5K6aEwAYDDw8A8vQ/caKIwTZTWbjpkwddvhC4/ewRCIpspXkcf3afLx8vCN4B8rKa21//jzalQHkU4noxsKHl/ZM3f5DNbAJtFJM9WPhdzPQVAYwP+NNwKYVALyw8swNyPJhVN4eXl5x0yV0T0bHV/QSqVTsM1Fj8+q6cuyOqCERk9Yqu/oFlvZSaSScci6tNAAyzXTJ4zi5R85UmrD8v3RSYVwIpVKan//NspBa/08NvfFp0qb2p69m5X3Mj3G/4zqqhVCrHkBfCPHTFhlZuKeVt9JpDLoTFpHc95jZ8X5i0RYfxUcPWGR0fFTwXEvUp5GBQXHZRaUomhDf6wpBNPBf22GfowQTAfZR8xuBgELy3/ka621djZ7EtAI4VFT5dT2X0soq0ES6KxFoEjolvxY3z07lCXHjxYdIzx29lztHRbet2/f8LDV2rxCkl90zKSZc5VM7a88fgPHUckUEqapICn0rOKSqaNHsgglMHLCXPnDZ/yyPnRSKfQvaGLSSJ21OTF+9qtkxomySMcrKDJ5wXqHy6GvauCNVZnh57XllomyCcgvOlFKY/uRiNe1Hc1Vuc/dj5hKi48TGsHLK8AvMld6xVGve7lVrV0UdH3pU3dTzVWiwoK8vPxCwlNmzl60et1apfVrVspITRcTEWDNOxAeNWmdktG1hzmNCCyZySCh6t88PLFRc5GYiCAPH7+gqIS0tOxKefl1iqqae7zu3XuPYfzfF2CQHTSg6CCYDkimYXYRBNPBdTjAYJJaGwpiHfZulZWeKMw20dHjZv6jYnQkPLMCgWctVgfQyZ1NxY8e+ttbaKusmzpdeszcufOVNTS2bFg1W2bR3OnKujtsnQIeZxbBcHQmk0ZCNbyJuGm/UWbGBDBAEZGxU6Q2GNoHPSxDY8mcdVEBGrGjOiP4mvW6aRJjP105avz0OSr7nW8mvHqWEmxmsma2JPgHYbGxExYo6Z8Mzqx8kxbhfVh3kZiwOOtPo0REJCRmbjI+F51QAKOS0YiK5Bsu+zeukBEWFh45cqTIKNHJM+cq6pjttTAzUlkzW1h4jLDoaPE581bvOeT/8l09mg4wKNjmyudXLlsprJYZJSoycuTIUSIiklNnrtexcPR4/DIHQfy/RakG1z8DjA2C6QCFGlaXQTAdXHczGUwCor4w4cyJw/pfzMjA4NBhu9DXFfCuT+hjr8bUWJYdc9vXap+Vjq6Oto6uro6uoZHBYUeb4EeJeTVwNIFd5gRopM76nKjoC9ssTL6EuN3EzM4r/H5JZ0+YUonI6qzbYS7bTHd8uXLn7j3nA0OfZCakhu8/abON84dt23ccdroS/rIiJ/NBiNcJznl9fX3DXXsPXHsUn99C62ZQSR0f3sTfvHxcV0dHW1tbV8/A4rBjQGzGq+zMp7d9junr72TdYGRk6WgXkPW2rpO1CjSTSuqoynviec1B30BXW1tbT1f/gNUR//upZXVIrmgy7YZgOrivDXfEBsF0kP0EdAN0GhmHbG9t+WKwlpbW1jYMkULnzE3/tDAzDoOCw1rq6utqauvrauvqGxphra0YHJ5MpX/eDJq18ikJ29UBQ8B7hAiHt6FJIUVPAAAgAElEQVSwXRRGz1IewGRQiRgMEgaH/d+VHWgMjogjYBHtrV/+AIPB2pCdWCKFROzCoNq/3NDS0gJDtHZ24cmsxk12mDh0O6Kxvqamurqmtr4J3orqIhCJRDz7NnaIMBiivQ1NJNPAlfvYi7riOpHwxtrqquqq2tq6FhgC3UWgUL8IMMh++b7oIJh+n17D42oIpkPezyysMhmsQUMMJoM5RJcCYTX1svcbZTC+6vTqR1/WTawtSlmZG/LNpP+XDwim/ycH9IOtAART6EGAFPhuBSCYfrdkw+AGCKbDwMlQFn+1AhBMf7Wif0N4EEz/Bi9CeRhkBSCYDrLgXBEdBFOucBOUyKGlAATToeWPoZEaCKZDww9QKrhKAQimXOWuQUrs3wBTS0tLc3PzsrKyD5BBCgyKAtnZ2ebm5jt37iSRSIP0pkLRDHkF/gaYmpqaLly40MzMzBwySIFBUWDHjh3Lli2DYDrk+TaoCfwbYGpmZqagoHDmzBknyCAFBkWBY8eOrVu3DoLpoLJqyEf2N8D0wIEDx44do9FYMxUhgxQYBAWgNtNBEJnrooBgynUugxL85xWAYPrnfTD0UgDBdOj5BErRkFcAgumQd9EfSCAE0z8gOhQltysAwZTbPfg70g/B9HeoOqhh/v9i+n1HzWQyaTQanU5nMlkLpn6XsdcwYVCpVNYiK99ejwS87HvWOfmuVAytiyGYDi1/DI3UDF+YAgBAo9FIJBKIif90BwAATCaTSqUSCAQsFksikRgMzrrLfd/N2iTuh/jFWvOTyVopik5nLb3fd+jsswAAUCgUIpFIIpG+dTGTycRisXV1dU1NTR0dHWQyuf8wv4qOTqe3tbV9+PABgUDgcDg6ve9Nmuh0OhKJhMPhHR0dRCLxP8X5Khbu+gnBlLv8NTipHaYwBRkEg8Hy8/Pr6uq6uro4fOEQEGAbB2oUCgWFQtXU1GRmZj58+DAvLw+N7r1j3RevMZlMHA7X0tLS1dVFY+27+R1Go9FwOFxbWxsMBqNQKF8C7XVEo9Gam5vz8vLevHkDh8PJZHKvS7qpVGpFRUVISEhgYGBcXNyHDx+oVGrvy/o8AwBAV1dXRkbGlStXQkNDX7161draytGq5y04HC45OTksLCw6Ovo/xel5IzceQzDlRq/97jQPX5ji8fi8vDw/P7/IyMjCwkISibXbMJPJ7Orqampq6uzs7OrqwmAwra2tdXV15eXl7969e/r0qb+/v7W1taam5sWLF9+9e9dPqZZGo9XU1MTGxmZmZhYXF1cM2MrLy4uLizMyMmJjY2NiYhobG/thH4FAeP369bVr1xwcHBISEmAwWO8nhkQipaammpmZqaurHzt2LC0tjUgk9r6szzMAALS3twcGBioqKuro6Hh7e5eXl/fZVtDe3u7h4WFoaGhkZBQcHFxfX99ngH/Hyb8Jpv233vTpr2HVpNOnAn2eHKYw7e7uJpPJhYWFbm5u+/bt8/DwKCkpwePxFAqltLQ0NDQ0Li4uNTU1JSXl3r17np6ep06dOnTokJGRkYqKioKCgqKioqmpaVhYGBqN/la1l0Qipaenm7HN1tZ24GPJz5075+DgsGvXLjU1tV27diUnJ3d2dvbpvO7ubjwen5SUtHfv3gULFjg4OOTl5bH2kAIAOp0ONkfQaDQikZiVlWVlZbVlyxZnZ+eysrJ+6PxVRAAAdHR03L59W1lZWU1NLTAwsKmpqc+SKRKJ9PLyUlNTU1FRuX37dmNj41dB/bafAMCkUUl4dEdHJ7ID2YFBYYi/e8V+roYp2MCFw+Ha21kbKNTW1tbV1cHh8M7OTjwe/61nAwAAMpmMRqPhcHh9fX1lZeX79+/r6upgMBgKhQLLIj0fDLDy1/HZ0Gg0jW0EAqG9vb2JbTAYrKOjg0AgfOsl+m3PzG8JePjClE6nw2Cw+/fv79y5U09Pz9PTs7a2FovFvnz50tbW1tzc3MbG5ty5c2fOnDnBNicnJ1dX1wsXLly5ciUgIODu3bs5OTngM9SnZ0gkUnJysq6u7ubNmw8cOODv739jwObu7r5t27bVq1cbGRmlp6djsdg+owBh+uzZsx07dsyePfvixYsVFRXd3d0MBgOJRL569SouLq6urg6FQmVnZx8+fFhTU9PT07OlpWXgzy4AACgUKjw8fMuWLdra2pGRkSgUquc7w0lYR0eHj4+PpqamlpZWUlISEonk/On3HgB0Og5eV5geEeB/0++Gb+CDsJh3dR14cn9NzT+bIu6FKYPBIBAINTU1iYmJXl5ex48ft7Cw2L9//5kzZ4KCgpKSkqqqqnrXt+h0OhaLzc/PDw8PP3Xq1J49e3ayzdzc/OTJk6GhoW/evGlvb+/ZJEWn06uqqvz9/f38/AICAu7du9fU1FRbW5uamurp6WljY2NlZeXo6Hjjxo309PTm5mYajdbnc/WzrhrE+4cvTMEvZ0lJibW1tby8/K5du3JycpBIZFpamqmp6dq1a7dv337lypXg4ODIyMj4+PisrKyioqLq6urm5ua2tjbwi9qPp8DK9bZt2zQ1NS9cuJCfn19SUlI6MMvIyLCzs1NVVbW0tCwsLOz5jH4VI4FASE5O3rVr18KFC8PCwlpaWrq7u2k02vv3769du2ZiYhIREfHhw4c3b97Y2dnp6ekFBAR0dHSAvUNgc3D/TzAAAGg0OiIiQk1NzcDAIDY2lkAg9HlLZ2enn5+frq7u9u3b8/LycDjcV0n9XT8ZFCKiOP3eFa31a9fJr1u9frfh3ttZVUjsdw9b+I4EcilMmUxmZ2dnbm7ulStXjI2Nly9fPnnyZNb2sKNGzZgxY/369bt37/b29q6oqCAQCBw5mExma2trcnLy6dOnN2/ePG3atBEjRrB3KecREBCQlJRUVla2t7e/f/9+Y2Mjp+ORTCYnJSWtWbNGXl5eQUFh+/btz549CwoKMjc3X7p06ZgxY4SFhadOnbpmzRpLS8vbt29XVVVx+6oxwxem4LPS0tJy6dIlDQ0NMzMz8OuamZm5b98+bW1tsBBHJBKpVCo4roi9ERO7YZU9SKhPpnAeQRCm27dv37ZtW0hICA6Ho1KpdDr9W51RrM2Q2NshMRgMOBzu7u6ura194MCB8vLyfgqSBAIhJSXFxMRk0aJFd+/eBdtMKRRKXl6etbX1nDlzDh48mJmZ+RVMqVQqHo+Hw+GNjY0kEqmfjPQDU7CDjnMvCoXy9/fX0dExMjIaTJgCDHJXU3a0j+2EsaP5+UWERZYvW3M+sRDW2fegA45/fuqAG2EKAADYwm5vbz99+nRBQcERbBMVFR01apSAgAA/P7+IiMiyZcsuXrxYUlICNqyDPZBJSUkfm8KnTp0qICAgLCw8YcKEKVOmTJo0SUxMTIBtEydOVFZWfvz4MQqFApUlEon37t0bOXIkPz+/oKCgtLS0g4PD2rVrhYSE+Pn5R4wYwcc2MFIFBQVvb++GhoZ+HvWfctig3DzcYYpCoeLi4i5evOjr69vU1ITD4TIzMz+WB7W1tb28vGAwGIFAoHw2MplMIpFwOBwajQbh2I+PQJgaGxsbGRmFhoYSCAQqlYrFYjs7O8lkMghosBWJSqUSiUQs20C0tba2enh46OjoDASmYMl00aJFERERHJjm5+cfOXJk+fLlH6FcWFjIgamPj09TU1NDQ0NKSoq3t/fFixfLysq+VSIAcYlGo+/evQuWTGNiYtBoNIFAAKXAYrEoFIpAIDAYDBCmenp6g1wyBRhkPCz30a2Tc+dISUhMk5ymtFHtUnIpHA3B9P+fTjqdXllZ6ebmJiUlJSQkJCAgICYmNm3aNFVV1Y0bN0pLS48ZM0ZQUFBMTGzJkiWXL18uLi4GaznFxcVOTk6TJ08WEhIaNWqUrKyslZXV6dOnjxw5oqamJikpCfJx8uTJ9vb22dnZYLREIjEqKoqfn5+Hh4eXl1dYWHj27NmSkpITJ06cNm2alJTUlClTxMTE+Pj4eHl5x4wZs2bNmsePH7e3t/9/qrnp1zCFKadURSaTa2pqcnJyCgsLwdGaWVlZlpaW6urqTk5Oubm5JSUlZZ+ttLQU7NO/fft2QkJCdXV1n/3aoP9BmO7YsYMDUwwG8/r164SEhKKiopqamka2NTQ01NbW5ufnP3369N9//y0vLyeTyQgE4j9hCmYBh8MlJSXt2rVr0aJF4eHhjY2N4ODZgoICe3v7tWvX3rx5s6KiIjs7++jRo9ra2s7Ozk+fPvX19bWystrItvDw8IaGhq8yAnZhUSgUEonU2toaGhq6detWPT298PDw0tLS7OzssrKy8vLyly9fxsTEgM0jHJgaGxv3LJmC6fyhd4I9tBccbcv+7HzZyfRLeyh712h0fdGbxEsXzp876+zk4usflPwBgSUx2T1xrNG67C1QOSV/1swDgDWKF6wmsOYyfPfuqNxYMiUQCGBzDQ8Pz4gRI6SkpLS0tNzc3O7duxcREeHq6qqlpTVt2jQeHh4hISEVFZWoqCg6nU4ikZ48eWJkZMTDw8PPzz9//vwDBw6kpKQUFBRkZ2dHRUVZWlrKysoKCgqKiopu2bIlMjIS9HVPmHJ4umHDBjs7Ow8Pj2vXrp06depj/U9MTIyXbeLi4seOHcvNzf2hR2VI3DQcYQqOvSezjUAgtLa2NjY2wmAwMpkMdnxbWFhs2LBhz549/v7+N2/eDPpsgYGBV65csbS0VFBQMDMze/z48bfGyXd3d/eGKRwODwgIOHDgwKVLl0JCQqI+2507dy5fvmxhYXHw4MHo6OjOzk44HN4/TJlMJpFIxGAwMBgsNjbW0NBw/vz5V69eTUpKKiws/PDhw6tXr+zt7devX3/z5s2CggKwx19ZWdnc3NzZ2XnHjh2rV6+WkpJasGCBh4dHWVkZp6kLfCppNFpLS0t+fn52dnZKSsr58+cVFRVVVFTOnTvn7+9/8uRJX1/fmzdvfhwbYGBgcP78+ZycnN4wBXuN8Xj8QCY4fP02AACTTiHjUG3NddUVRYX5uW/fvissKn1f3diCxBKoTAa7SZTJoBJQ8KaG2pLyiqKCwvy8/Lf5pcWVTaz+fABgUAi49sa62qqK95WVleXlFaXltc3NSCyFjEPCGqrLigvf5ua9yyv7UA/rwFGZ3QNvZeU6mDKZzLa2Nhsbm+nTp/Pw8IwcOVJDQ+Pu3bs4HA4c/9za2hoWFrZ+/XoQfJMmTXJycgJrYMHBwRs2bODh4REUFFy9erW7u3tDQwMej+cMFHF0dFRWVlZVVTUzM3vw4AHoyp4w5eXlHTlypKysrKenZ11dHfh5a2lpiYyMXLJkiaioKEhweXn5iIiIr77rXz8YQ/j3sIMpg8HAYrHv378vYXcH5ebmRkdH+/j4hIeHNzc3Y7HY9PT03bt3r1mzRlNT097e/tSpU2c+28mTJw8ePKiioiIpKblhw4bg4ODe/Z4cX5NIpLS0tJ4lUzgc7uXlpaKioqioaG5ubvfZbGxstm3btnLlSlVVVT8/v9bWVhgM1g9MAQDA4XDl5eWpqakJCQkg6aZMmWJoaGhiYmJlZXX9+vWoqKhDhw7Jy8tfuHAhJibG29tbWVl5yZIlmpqazs7OQUFBJ0+e1NDQ2Lp167Nnzzo7OzlNn2D68Xh8cnKyq6vroUOHDh48qK2tvWDBgsWLF2/duhXsUjMxMdm/f7+BgYG0tLSmpmZUVBQIU11dXUNDw6ysLBgM1t7eXlNT8+rVq6Kiovb29n4+PBzRPh0ATBqpq7W+4m1K3F3vC+dsLS1NjUx37diz1/rYOc8b9168LkW0Yyl0JkAnYhrfJkTeuHb8+CnHE472x44fPnbJ2SuuqAWNo9NJyPoPqWE+7i729vZ2dkcOHTl42MXXJ+p5/tsX9254nLO22KWjbWhoZH3S4+ajV+UIPI7K+FLk/TpN//ebu2AK9rV++PBBQ0NDQECAh4dHVFT0Y9UkKysLiUSi2IZAILKysrS1tXl5ecELLC0ti4uL0Wh0YGDgunXreHh4+Pj4Jk6cuHnz5lu3bmVkZFRUVLS0tNTX14M1tqKiooqKCs6cjp4w5ePjmzp1qr29fU5ODpVKBR82CoVSXl7u4OAwd+5cMPAJEyZ4eHh8a2zW/zlgSP4YXjBlMpkEAqGkpOT69euurq6XL192cnLas2ePlpaWtbX127dv29raXrx4YWpqumXLlqNHjz569Cg9Pf3169fZbEtJSbly5YqampqsrKyNjU1WVlY/A557wxSBQHh5eW3ZskVHR+fWrVtpaWkZbHv69Kmbm9v69et1dHTCwsJwOFz/JVM6nd7S0vLgwYOzZ8/a2dnp6OjIyMiIi4srKCioq6sbGRlZW1ufP3/e0NBw1qxZWlpatra2+/fvV1BQkJeXd3BwSE9PLyoqCgwM3LFjh46OTmZmZu+edyqVWlNTk5CQ4Mu2Q4cOycnJKSkpOTg4BAcH37p1686dOzdu3Dh06NCsWbPMzMxevHgBwlRLS0tFRSUwMDAmJiYqKurq1asHDx50dXVNSkrCYDBflX+/8UYADAqupTj11tXT2luV18utkFumpLpBzXTbJvkVSxYuWbVaydjE8sbjjOp2EpNOwjbnPgly2K+zdOkiWdl58xbOl9VUM/R+UdGKotLJHfXvk4JO7tBav+AfGZk5s2bPmr1oldxG9W1GBmrK6+QWzpslKTFlypRZsqvW6R629XqR14giMgeEU66DKQ6Hy8nJAQuYPDw8wsLC+vr6Pj4+YWFh4Wy7c+eOt7e3kpKSoKAgeIGhoWFSUhIKhYqNjTUwMBAUFOTj4xMQEJCQkFBQUNDQ0Ni9e/fJkyeDgoKePXtWUlLS3t4OFldBt/aE6YgRI+bMmRMcHNzQ0MBxOjhI4M6dO6tXrwbHBowaNercuXMYDOarTzvnliF+MBxhWl5eHhgYePny5StXrpw7d05TU3PlypU7duzIzc1ta2t7/vz5jh07tLS0wDlFtbW1eDwenJgPg8Fu3ryprq6uqakZERHR1tbWj3d7V/NbW1u9vb11dHT2799fUFAAdlwCAIDBYD7OT9XQ0Pg4wik2NpZGo/XfZkqn01tbW58/f+7r6wu2DyxdunTy5MlGRka2trY2Nja7du0yNzdft27d1KlTVVRUHBwcHB0dtbS0Nm/e7Ofn19HR0dnZGRkZaWJioqOjk5WV1Rum4GDVzs7O8vLyoqIiX19fFRUVXV1dsFm2tbW1ubk5Nzf34sWLCxYsOHHiRElJCQqF8vPzU1dXX7Vq1ZEjR86dO+fo6Lhv3z5NTU1zc/OPY2Kampr6nO36/xoC3QwiAVH+xMNeV24+q0IqMkZO2dTh7PXwG857NJfOnSrGyzt23OTNVh5PMutxTDoFW1/8wt/ZSmmxiCA/D4+ggODSJfKs3nwUjUknoFpLXgQdMVKWkQBfV16+ESLjp0mvUtPQM9BTU5CbN36k4AhePn7BMXNklA7dTi9rIQyo34q7YMpkMlEo1LNnz9asWcMZ0jRv3rxNmzap9rCNGzfOnDkTLLqC7QAPHz7EYDDFxcUXLlyYO3eusLAweDvYFCAiIjJjxgwlJaXdu3e7uLjExMTU1NRwOjO/gumCBQsSExM7Ojo47gbHCaSnp6uqqnJgeuLECRgMNrCPLiekoXIwvGAKqk6n07u6ukAivHv3zs7ODiyHNjQ0dHV1JSQk6Ovra2pqbt++/cSJE9HR0QUFBW1tbWg0Oicn5/jx40pKSidOnHj37l3/wzh6l0xbW1t9fHy+BVNNTU1TU9NHjx7R6fT+YQrOcaJSqeCMlGfPnu3cuXPhwoUBAQERERHu7u4HDhwwMTGRk5ObP3/+yZMnMzIy0tLSbG1tdXV1/f39BwhTUCvwPbz7uTc/NjYW/LRQKJSKiorLly8vWLDA0dGxtLSUA9MVK1bY2Ni4ubl5enpev37d29vbz88vJiamrq6O86Z98/EHGExCS3N2+GGFJbP4+Hj5R06atfTsjQflSDKxszEr6ICxkhQPD4+A2KSFOy9efVpDA7qZNBK2PivC01p89CgQpkvlz/9bCAN78+n4zvcJV20NVrFfVz5+oXHSK3XMPRP/ffXm5RMfd6v1M8VFWPVeXr4J02YdC3n+FvZlfOU3E9ndzXUwbW9vj42NlZeXB7HFx8cnLi4u2cumTp06hW1SUlI7dux49OgRHo8HB1TZ2dmtWrVq2rRp48aNExIS4uPjA5HKx8fHz88/fvx4RUXFoKCgmpoasMvxK5guXrw4IyOj5/QTAACIRGJBQYGGhgaYKhEREXt7+56DVftxwRD803CEKWdNOTKZ/HG+B9irePr06cbGxs7OzgcPHmhpaZmYmHh4eIC9nK6urrdv33727NmVK1dAzj548AAGg/VfGekTpr6+vjo6Oh9HC7x7945MJoP9yR0dHffv39fQ0DAxMRlIyRR8jMBHFmzcBHvz/fz8bty44e3tHRUVFRYWtmfPHnl5eR8fn+Li4levXtna2uro6Ay8ZMqJpc9B+1QqtbKy8iuYguNMtbW1nzx5Ul5e3si2Jra1tbX1M1sMjIv1kaBTCc35OXeOqiyaKcw7gn/MzNkq9v6x2S0oHKatseDRRXOtFazOaIEx0xbuO3YlvZ3eTaWzxplG+R4RH9MXTAmo94nXbA3l2G/+yFHj1qqZeD3/0A5DoTtbCjPvuhlIT5zCGoHOO1pixvbLsc8qUAOp53MdTDs7O3uWTIWFhTU0NJycnJy/YefPn79z505+fj6FQqHT6Wg0ury8PDY21t3dfe/evXJyclJSUhMmTBAXFxcWFuZn27hx41RVVW/dukUkEsEOUs7QqBEjRixcuDAlJaXn2kBgnSw5OXnTpk2ckumpU6fa29u5tA9qOMKU8+oymcz6+vozZ87o6emdO3eusbERDoeHhISoqqoePXo0MTHx/fv39+/fd3FxsbGxsbCw0NTUVFZWtra2Lioq6jlFhBNgz4M+Yert7a2lpbV79+6kpKTGxsaWlpbm5ubKysqQkBBwJn5MTAyVSv3PkiknIs4MqEWLFgUFBT1//jw7O7uqqorTmx8cHFxZWZmdnX3kyBFdXV1fX18kEtnR0REREbFr165+qvlgFN8atP8tmOrp6X01NIqT1IEcMGlk1IfMpCvbV86bzMOqk0+YslT7yAX/h89SEh89uO28Q1NBio+Pb8SI0RMmG+53jKundpNp5K7m/mBamXjtCAhTAbFxC032XngOpwBUJpNB6azPeXBh64zF43l5eHiFxkqutrkV9rp5IPV87oIpWKF+/fq1kpISiK3Ro0cfP3787du3JT2suLi4sLAwn20FBQUfPnxob28Hu+yxWCwaja6vry8qKnrx4kVYWJi7u7u9vf2uXbvk5OQmTJgA9iBJSEgcPXq0ubkZHDrdE6bz589/8OABAoHgPAZMJhOBQNy6dYtTXv44TMrV1RWs+nAu46IDCKZfYFpfX19TU3P16lVFRUV3d/fS0lKwdTIuLs7S0nLevHmzZ89evXq1g4NDcXExDof7z5Jpampqz9781tbW69evb968WUND49q1aw8ePIiJiXn48OHdu3c/VsaVlJSMjY1/BqZ3795tbGyk0+kUCqWwsPDjAlHr16/vCVNtbe2rV6/W1tY2NjaGhISAHVDfajMFH+JBhimDim8tTHhwfN1SaXHwtRcWFV29WW37Puud2wy3b5i9au64cePGjR03bco0433HH1dTukkDhimfsLjExiM2IXl4JsDsBph0QnvlswjrWWtn8fHw8I4Qmyy97dr1f6vI3d3/WTjlOphSKJSP31RO6+SYMWOcnZ2bm5s5zzAAACQSqaGhoYhtJSUljY2NOLa9fv36PttiY2Pz8/OxWCw4JKa6ujolJcXNzU1OjlXwB7utdu3aVVxcTCKRelbz+fj4ZsyY4erqWlpayil1gpOe7e3tZWRkQBZPmzbN29u7/9azocxWCKZfYFpVVZWbm+vo6Lhx48bIyEgEAgGuyJednX369OnFixcvWbJk5cqV2tra169fz83NRaPRnGext497l0wRCISnp+eGDRtWrVplZmZmb2/v4OBw7NixI0eOGBgYLFu2bNu2bT8D04iIiJaWFnAcDDho/2MfFAjT169fHz58eOvWrfb29vHx8QkJCU5OThoaGlpaWh/XAejq6uqd/m/BFI/HMxgMPB5fUlLSu5r/cyVTgE7urM+4GWgovkBiBGvijICQ6OSZazaqqmlorpaX19dWNzLQ1dXV1dLarqrh5uT1soXeTRk4TEeKT1E8cuRmHqEHTO9Zz1oHwlR08myDK95PP/x9MAXXGofD4cbGxuCgThEREWNj47i4OHClKDwej0QiCwsLr1+/bsW2o0ePRkZGNrDN2tp65syZkpKSs2fPPnz48OvXr7u6ukgkEoFA6OjoyM3N3blzZ0+YlpSUfAVTXl5eMTGx9evXh4aGNjU1YdjW3NwcFxenpKQ0duxYEMSqqqqxsbH9vFPfekqHyHkIpp9gevbs2aKioqioKAsLi71792ZlZYFN72VlZdeuXVNTU5OXlz98+DC4kN3mzZvt7e2fPXtGIBA4X9qvPNobpjAYzNPTc+vWrQYGBrdv305PT89kW1JS0pUrV9TV1ffv35+YmPifvfk9I+pZzb97925TUxOFQuns7Pw4hNDa2nrt2rUgTF+9emVtba2srKyvr3/o0CFjY2MlJaXly5erq6vHx8cjEIhv9Z/2LJnq6+vfu3cPgUDA4fCysrK0tLSPg1h7dkD5+/v/NExRDVk3g4xHL5g8godvBP+kWVIGx51v3n+WlBQfH5+amgoqlp6elZJaUlTRTgS6GfSBVvP5RopPUTpyOCgPxwAYYMm04t+og9LrpFklU0Hxqcv3B4ZkNtL/upIp+MDgcLjAwMCNGzeC0/ClpaW3b98eGhqalJQEruptY2Ozdu1aKSmp2bNnb9y4MSAgoLOzs62t7dixY8/iuc4AACAASURBVJKSkqx+PwGBVatWnTlzJiMjo6ysrLKyMi8vLywsbPPmzWBnlLi4uLW1de9qPnjv5MmTNTQ0nJ2do6OjHzx4cO3ate3bt0tISICrBEyePNnV1bWkpKTn481dxxBMP8HU0dExOTn57Nmz27dvDwgIqKmp6erqev/+/c2bN3fs2LF58+bjx48/f/48Li7u2LFjK1eulJOTO378OLgKap8u7w3T1tbWO3fuODg4BAYG1tTUcKbn4/H43NxcLy+viIiI0tJSBoPxA3PzFy5cGBoayq6iFT169MjT01NPT2/NmjUgTLOysvbv379x40ZTU9NTp07p6ektX75cQUHBwsLC3d39xYsXSCSyz68CCNO7d+9u3bpVQ0Pj8uXLDx48CAwMDAgIuH37trOzs6ysLKc3/+dhyqB2IfIfPLBbuFRKlDViadLCf3YGRbxsIH2RGAAYdBoZT6HRaOwZS6yFTgbWZsonOEZi2f4DV14iaQCNNcOqq7XkSejumQrTWW2mIhOmqZ6KfFjQ9p91/G5u680HxaPT6WVlZS4uLtLS0mB3vISEhIqKyi62bdmyRUpKSkREhI+PT0xMbOfOneB3nUgkgpNQeXl5+fj4xo4du3z58r1794L1KhsbGy0tLWlpaRCXcnJyvr6+YAmjZzUfnAE1g20LFizQ1NTU0tKSk5ObNGkSuOLJ+PHjlZWVk5OTe/ZQffE5lxwNd5jW1dWdOXNGR0fH2traz89vz549VlZW+fn5TU1NJSUloaGhpqamxsbGHh4elZWV4BInmZmZVlZWS5YsUVZWDgoK+la3fu9xplgs9s2bN6mpqQgEoueqeuAeTc3NzZwdlgYIUwAAsFhsYmKikZGRjIzM+fPnw8PDr127tnv37u3bt69hW3BwcEVFRUZGxt69e9XV1b28vEpKSqKjo21tbU+cOBEUFGRqaurm5lZYWPjVzBNw0i0ej6+rq/P391dWVl63bp2RkZGZmZmOjs6RI0c8PT3Pnj37zz///DqYdjPp5K66V5kBpvKyU3l4RvALTpf657DHnVd1XWQGwBqFQSPjkbC6gtzXee8bGlCsNUsBBhnXnH3P98jYb/Tmf+mA4hMdP9nAzPZxLZFJYnVAtTe+ifJQnbp0HKtFYfTkGbuuPE5+jxnIm8tdbaacHIEf+H379snKyo4ePRoc3gTW0MGi5ahRoyQlJRUVFR89egQOo2YwGHV1dV5eXrNmzQIHRXGu5xzw8/OLiYnNnTvX2dm5oKAAjK4nTMGpU/r6+qtWrRo/fryAgAA4z4oz8Wnjxo3Xrl3r2YbLSTMXHQxTmIILeRAIhMLCwqNHj27evBkcseTo6BgWFlZYWBgfH3/p0qX9+/fb2tqGhYV9nPcGro1Eo9FaW1s/bhCyb98+dXV1FxeX+vr6Plt5QJgaGxtzluAjkUgoFArcbw5c04/+2SgUCrg8FXgeBoO5u7t/a9UoTuLb29tLS0t9fX1VVVUnT56soqKyd+/eEydOXLp0yd/f/+PEpJ7V/KNHj1pbWz98+BCNRiMQiOLi4tLS0ry8vEOHDp05cyYzM7PniHpweemysrLk5OQbN25YWFjIycmBq1K6ubnFx8e/e/fu5cuX4KD9XwhTgEmjdFSUJrptUZARZr1xQmLj56vtdfaPf/OhsamhvqokN/m2j/OmLeo6p4JvvWpi1dZpBExNevhVq7GfxpkuXLTq1OO39e1UVsGVTkB9gSnvSDHx9dqmfpmNXW0YLLqx8FXY+W2zJ0wV4OUVEJ40d9np8NQC+IA2dOFSmDIYjM7Ozry8PB8fH21tbSkpKQkJiYlsk5CQmD59+saNG0+dOpWRkYFAIGg0GjiimUgkgnuImZmZLVu2TEJCYtKkSRPYNnHixMmTJ8+bN09DQ8PLyys/P5/T/t4TpiNGjJg7d25QUJCXl9eePXuWLFkyffp0CQmJyZMnS0lJ7d69OzIysrGxsecTyEUM5SR1OMIU7KJpbW198+bNx02NDA0N169fr6Kism3btkuXLoWFhV25cuXYsWPHjx/39PRMSEioqqoCh84x2UahUOrr68PDw93c3EJDQ5ubm/vcghSE6fbt2/X09Hx8fMBxV4iBWUlJiYuLC7ieaVlZ2Vf9m+B2oVlZWSEhIa6urtu3b1+3bp2SktKhQ4d8fX0TExNzcnJSU1NtbW3Xrl0bGBj4/v372tra+Pj4p0+fVlZWgsuqgl0EVVVVBw8e3LdvX0RERM8hKQQCIS0tzcXFxdjYWJNtJiYmLi4uEREROTk5bW1tXV1d5eXlYAcUOAOqs7Pzq2o+OJ6XQqFQqdRvtclyHsRPBwCTSelorUh0s1y7UlpYUIBfQEh4ytwV6zWNLQ4cPGBlaW5iqKIoN0VKZusxn7u5LUyAQcXDK1OD3Sw3iYkIsZZD4p8kLavtfv9lWSuO0d1N6wFTHp4RgiOnz5XbZe2VGP889Vmgh6vmmvmiomJCo8Skly8xcYl+U9VKHMjIKC4btN9TZLDXvrq6+smTJ9evX3dxcTlx4sTx48fPnTt39erV+/fvFxQUfLW5LHhLc3NzampqcHCwq6vryZMn7ezsjh49euLECRcXF19fX3Cjxp6P0FcwXbhw4dOnTwsKCtLT00NDQy9duuTk5OTm5ubn5/fixQuwTNpnoaRn4of48XCEKYVCqa2tTUhIcHFx2bFjh6mp6f79+/ft22dsbHz8+HEHBwc1NTWwav/69euWlhY0Go3FYru6urBsw2AwCATi7du3z549e/HiRVFRUUNDAxqN/qrNEYSpoaGhqqqqnZ1dTEzMo0ePHg/M7ty5Y2lpqaqqamVlVVpaCpYRwCcJ3IqntLTUw8NDU1NzzZo1SkpKZmZm3t7eaWlp4OedMzRKTk7Ozc3t3bt3SCSypaWlvb0dhUJxctHe3v7q1audO3eqqqo6OTm1tLRwIsJisdHR0To6OlOmTJGXlz906FBUVFR5eTkajaayjUAglJaWXrp0acGCBceOHcvPz29tbfX19QU7oN6+fQuucwqHw9+8eZOfnw+Hw7/6JIDZ6etf1ij8tw9OOe1TXPrPzJFCrAlKoPGN4BcdLzlrkYLatt2e95OK4V3dDFJXy7toTxv15VOEBNiD73n5xCVm6Vn7x72uIzC/gikPDx8/v/isySt27jLfb7ZBQU5QUExQYuY/qzfuPXM8puI9kvAfm3d/Ti6Xlkw/J5/1f3D/EgQCUcU2cBvd/n0ELm3B2WKytLS0uroaBoNxmqd6ht8bpuBMf1Z1gb0rOLgUDoVC4XaGcnI97GAKDhUGJwht2rTJysrqyZMnZWVlqampHweQ6urqKisrq6ur29ra+vj4PHjw4OnTp8nJyS9evEhLSwO32EtKSkpISIiOjg4JCfHx8XF3d793715lZSWHRKC4IEz19fVXr16tpaV19OhRe3v7YwMzcG2q1atX79u3r7i4uGdrJlhMKCgoOHfuHJhUNze31NTUtrY2IpEIrsxEo9HKysocHR3/+ecfcArpixcvUtj24rMlJyfHxsZeunRp/fr1ixYtMjc3z8vL49TRKBRKSUnJ1atX1dXVL168+HE5VCwWC26FVltbW1lZWVZW9vz5c0dHx/nz51tYWMTFxb17987V1VVDQ8PAwODp06dFRUV5eXn37983MzM7fPjww4cPkUhk/+8q56EEmFQCprH8zWO/8zZyK5bMnvXJ5v6zUEl3r93V6Odvq5o7cFQGA6Dh2t8nXzptuUh2nswc0GTmzZdXUj1362EBktZN7Vky5eUbITxmjITUHFnWMLfFsrL/zF66eOmOg6duxr4sbcHTWO2ynET0e/AXwBQcL8VgMMAVysEn5z+5xtn5HLwLbJVitWb3Uq4fmIJRg/tK9L6xX+GH9B+HF0zBCv7HXeecnZ0NDQ0tLS3j4+ObmpqIRCISiczOzr5169axY8e2bdumra2tpqa2detWLS0tXV1dAwODbWzT19cHVwxRVlZWUlJSVFTU19cHV/H4ihQgTLdt26aurn7u3Lm0tDRwWM9A/o2PjweXMT948GBJSUlPmIIfdnChk4CAgLCwsPz8/M7Ozp4L3DEYjKamJi8vr9WrVy9evHjLli07epmxsbGurq6iouLcuXOXL1/+caxrWVkZZ1oX2CdWUVGRkpJSUVGBwWDodHpnZ2dKSoqXl5eTk9P58+dtbW21tLSWL1++detWGxub8+fPGxsbb9q0SVtb+8yZM25ubq6urnZ2dmpqarq6uufOnXv9+vWA+2oBFk+xbXXvC5KfJT6KiXn44OHDhzGP4xNTXr4rroZ34ChUOpt7TBoZCy8tzEnoYYmJSckpRdWNneT/L5nyCo4aI6uufuDqvcdxMTGxMQ9jY2MTnz57U1DWgEATaMB/j9XnvMq/Cabgl7Kzh4GbenLi5aKD/mHKRRkZeFKHHUypVGpjY+P9+/f9/PxiY2MRCASIKvA5bmhoSE9PDwoKOnPmjIWFhZ6enpqa2ubNm1VUVDZt2gQCdO3atatWrQJHR23ZssXJyQkclNq7mp+WlmZmZnbo0KHHjx+DaySTB2ZwODw8PNzFxeX27dvNzc29GxxpNFp7e3ttbW1LS0vv1UPA6YNZWVlubm4WFhZ79uyx6Mv27NljYmKyZ8+e06dPx8TEgHMHez46DAaDs2AriNc3b97cunXLzc3t6tWrly9fPsc2Jyeny5cv+/n5gQD18PDw8/PzZdv169cvXrx4+fLlkJCQvLw8DGZAfeU90gAATAadSqWQWS2vNAZjwGXHT2F87oBiLXTCN1JcYu2hQwE5GBqDtW8MK0Q6a939HvEN8PA3wZREImVnZ1/oYd7e3vX19QNM1ZC6DILpkHLHgBJTVVV14MCBY8eOfVXL7udmJpNJIpHAZtCeBTrwFrAtqampqaCg4Pnz52B1PiAgwMfHx8vL69q1a1euXPFg27Vr1z5u2wCHw7/CKBgOhULJz8+/fPkyuNVHPyuf9k4qkUgsLi7Oz89HIpEDz1fPcMAyeFtbW2FhYU5OzptvWE5OTkFBQVNTE7j3VM8Q+jwG93qqqKior69vaWmBD8wQCAQSiQSHQ/QZ7O87SSN0lse7H9ZfzoKp4OhJyy0OXM1EUpm0HyBoj1T+DpjSaLTCwkIbG5vPTcSs/0+ZMiUlJaVHzFxzCMGUa1zFSegPwJTTWsQu6PTxVjEYDHCsEgaD6ejoaGtra21t5XAD9tngcHhHRwdn5XBOksADJpOJx+PBbh8ikfhdBSCwpR9cave7buyZBnDXEAKBwJ5g/c1/wCFZfX4PeoYGHoNhEolEsI8e7IwayL/gnqw/nJfeKRnAGQCgU/Ft1Wm37E02sdZy5+UTFpuopGXml/ahA0mgDWwZ6L7j+YUwZTKZGAympaWlpKRk7969U6ZM+TtgSiKR4uLiZs6cOW3atBkzZmzatCkzM/P7qyZ96z80zw6vav7Q9AGUqt+hAGsPKVR9TcbNs5Zbl8+bIsIysTHicxYsM7Y+c//N+1b8AHvu+0rcz8MU/Czh8fj29va7d+9aWlqamJjMmDEDJClrhK2QkKio6Jw5c9LS0vpKwlA/R6fTq6urg4KCAgMDg4KCHjx40NLS0nOuylDPwPenD4Lp92sG3cENCgAMGqm9suJf9+OHTMGhsux/dbS0LfZYBmQUN2P/KExpNFplZeXdu3dv3LjBWcyJUyYVEhKSl5c3NTU9fPhwWVkZN+jdRxrB/SnA0dkDrPr0EQr3nIJgyj2+glL6XQqwxv/j8O01FaVFb9/mfbb8d3mlBaUNSByJNb/nR+2HS6YAABAIhLq6uuLiYldX1zFjxowePVpISAjEKDj5XUZGZuXKlaGhoZxm/R9NJnTfoCrwN8DUysrK2toa7OVAQgYpwFGgvbUV1tTQUF9bW9fDGuobmuGtbe2cy77/oLKy8uDBgzt37uw9lOJbry+DwQCne7x48WLbtm2bNm2aP5+1yVVPExYWBrcXu3//fmFh4feniyvv6Ojo6HMXsm8pOWTP/w0wBSehu7i4uEEGKTAoCjg6OioqKn4XTNFodHBw8JkzZ3bu3Dlq1KieDOUcCwkJrV271mmY2fnz5588eTJkETnwhP0NMN25c6ekpOS6devWQwYpMCgKrF69evbs2QOHKQAAdXV1nD2NOfSEDsBloS0tLQfOrCF75d8AU0tLS3Nz87KysveQQQoMigLZ2dnm5ua/HKZ8fHyjR4+ePsxMRkbG0dFxyCJy4An7G2D6vYP2B64OdCWkQJ8KfG8HFAAADQ0NmzZtGs02UVFRfn7+3sXSkSNHbtq0ydfX18/PLzg4+M7wsIiIiDdv3vSpM3edhGDKXf6CUjskFPgBmCKRyMuXL+9nm4mJCbg6/Vc8HTly5JYtW4KCgsLDwysrK4dEVqFEDFgBCKYDlgq6EFLgswLfC1NwlWUKhUJi28d5cQcPHpSRkZk5cyZnXBQIVn5+fmFh4SlTply8eLGqqqquro5IHNB61Z+TBv3/jykAwfSPSQ9FzL0K/ABMe2aWSqWCOxLevXsX3AoJXLueA1YBAYF58+Zt3LjR0NAwLy+v573Q8ZBVAILpkHUNlLChq8BPwhTMGAAAHR0dt2/fvsy206dPL1y4UFBQsOcWSdy70MnQdd5vSxkE098mLRTw36vAL4HpV/KgUKizZ8+qqKjIy8uDu9tz9apRX+VuOPyEYDocvAzl8Rcr8DtgCm7xXVNTk5ycrKioOJNtq1atevny5S9OPRTc71EAgunv0RUK9a9W4HfAFBQMAAA0Gp2YmBjFtsePH7e2tv7VWv49mYNg+vf4EsrJoCnw+2A6aFmAIvrlCkAw/eWSQgH+/QpAMP37ffz9OYRg+v2aQXcMewUgmA77R6APASCY9iEKdApSoH8FIJj2r8/w/CsE0+HpdyjXP6UABNOfku8vvRmC6V/qWChbv1MBCKa/U11uDRuCKbd6Dkr3H1QAgukfFH/IRg3BdMi6BkrY0FUAgunQ9c2fSxkE0z+nPRQz1yoAwZRrXfcbEw7B9DeKCwX9tyoAwfRv9ezP5AuC6c+oB907TBWAYDpMHd9vtiGY9isP9EdIgb4UgGDalyrD/RwE0+H+BED5/wEFIJj+gGh//S0QTP96F0MZ/PUKQDD99Zpyf4gQTLnfh1AOBl0BCKaDLjkXRAjBlAucBCVxqCkAwXSoeWQopAeC6VDwApQGLlMAgimXOWxQkgvBdFBkhiL5uxSAYPp3+fPX5AaC6a/REQplWCkAwXRYuXuAmYVgOkChoMsgBb4oAMH0ixbQ0WcFIJh+VgL6P6TAgBWAYDpgqYbRhRBMh5Gzoaz+KgUgmP4qJf+mcCCY/k3ehPIySApAMB0kobkqGgimXOUuKLFDQwEIpkPDD0MrFRBMh5Y/oNRwhQIQTLnCTYOcSAimgyw4FN3foAAE07/Bi786DxBMf7WiUHjDQAEIpsPAyd+dRQim3y0ZdAOkAART6BnorcBfAtOjR48SCAQqZJACg6IADAaztbXduXMniUTq/VJBZ4anAn8DTC0sLLZt25acnJwGGaTAoCjw6NEjIyMjCKbDE5rfyjXXw7Surs7a2lpWVnYdZJACg6XAmjVrli1bZmNjQyaTuyGDFGArwPUwxeFwr169ioQMUmBwFYiOjn79+jWDwYBIAikAKsD1MIUcCSkAKQApMBQUgGA6FLwApQFSAFKA6xWAYMr1LoQyACkAKTAUFIBgOhS8AKUBUgBSgOsVgGDK9S6EMgApACkwFBSAYDoUvAClAVIAUoDrFYBgyvUuhDIAKQApMBQUgGA6FLwApQFSAFKA6xWAYMr1LoQyACkAKTAUFIBgOhS8AKUBUgBSgOsVgGDK9S6EMgApACkwFBSAYDoUvAClAVIAUoDrFYBgyvUuhDIAKQApMBQUgGA6FLwApQFSAFKA6xWAYMr1LoQyACkAKTAUFIBgOhS8AKUBUgBSgOsVgGDK9S6EMgApACkwFBSAYDoUvAClAVIAUoDrFYBgyvUuhDIAKQApMBQUgGA6FLwApQFSAFKA6xWAYMr1LoQyACkAKTAUFIBgOhS8AKUBUgBSgOsVgGDK9S6EMgApACkwFBSAYDoUvAClAVIAUoDrFYBgyvUuhDIAKQApMBQUgGA6FLwApQFSAFKA6xWAYMr1Lvy7MwAwmVQylfl3ZxLK3f8rAAAMMoFEB/7/7JD/BcF0yLuIaxLIpFPxnXAknv7rUsykdSGq05+kV3aSfpanAMBkfvPtBBh0IgaJwf8MtQEmg4LH4imMH8w+wKRTiERq37cDTDqhs+l9fdvPqgswqF3ID1WdpB9MZXd3NwAwqTgUmtB3UpkMMrqlur4N9+MsZFBxDRl34svaqd902I+n/jfe+SdgCnQD336s/zuvQDfAXRr/d5b+jitIHfUZwXau0e/gKGLfSPi+fAIMCrIq8/oBlRUqNpGlBNZrzCqmEmkDdj8Hn0waCQ0vq0XRwBQADAYJhyVxEgkQOxtT/c+GpTaxYvkxAyjY1ryHfrFF7T92P4OMa85PTCxB9nk7Hd+aFWA8ZYNTGhoAABr1h6lPwTYmuM+d71/UZzQDOQnQCMiCSOfr/75H9XE5g9iRH6i7WMfjJZLax58HcopB6iwKMZmp7JLY+GNB/BhefuyunhkafJgyydiOhsKi8h+1ig/1Td/pJyadSuzC4in9FG5YxQJCFwbViUJ34UnUH/+qcsQFmAwamfAfRiSRaf2kihMYVxwAdAK8+PFVG+PD1+ML4eifK0sCDBqmIf+exwFt+1u5n/gEkLtaC5Ifple34/6zzMKkE9Ft5WUteDY/ycgPyV6bjv4LZwkJMHCwmmchoa/bPn/TKajaNF8js5CKH3t52YFS0fXJXsYrHZMQP+YsWhfsTYiJYVhVn7czicjie/YzDMI/MCmEjsL0F5VIwqcvQ5/Xf/Mkg9BeHGGhG/bhm1f8xx8AGg6W6q4xzyykENv7UoCMqY1zmG0cUdP7bwM7AzCIbQU3Teafy8AP7IavrmLSya0Vhd9Nl7KKkjzETxTXWakYfJji6jKCrGdPkpq34Gv7Z/48mdmzZP75+nyP37LzZi9Yr3IkvuErBfv7yaR0VOXEBAY8LsX1dRnApBEx8OqiVykP79z08fINuPvwWXpOeR0CTfyp+ioN11716v79h9/+7/69qEdx/1ai+0rVT58DGBQcsuG7n6m+bnhfXduG55TiugGgv5oBg9Be9PCCmd6xcHZZsu989BsCG3c0TGPhQ7/je8/GVn4pLFIxsEyffWqrNE/cSq9H9QtrgISqSvQ0UncIL0CTgW4apuldlM2xfzu6u5n0rsaCO2e26V1JriOAuaJ3teREH9UIq+g7tQM5C1DR9en+ezSCS36Ux3QcoiTK2iahte/oyKiaZ5elrBPbyZiGJ+e3rtjuGJ3bBn4p+r7hG2cZhPbye5YHnvRdAP7GTT1OA7Su5jR3g01X3/TFOoCCbXp+XuNwIqzHLd91CNDwsDR3LdlLr/sK/7+DYpKxlbe3jxCf3psvPTjy1aGs7D+z50yb4PXuv8Pv74rBhykFXpga5XQho+PrZDFw8Oq85H8Lkf2U1SiIovR7Z85nDBhAAIOKLEu6uE1hkaJreh/VEgYV11wQ57lfa52CnoWL953Q4BvXTlnpbF2tedAjtgBF/PFiI7HtQ0rA3r37vvXfnl3btqzbuE4/9oe/4V8L+H+/aej6NH8z2a+emv/8KTtfRnra+Akzez6KClsNvF5hwNAZVGJHY1FpX8zlnCvKzf737s24/7V35mFRXNuizx8n53vn3Xfuyc3N5ElM4sBkEhMzaDQkMUZUhKjggIogKKI4AgqIKOKAIuKAsyLIKKAyCIjMg8zz0DTQzHRD003P81BDv696rO6uhgZR73vSn5/s2lV7196rqn611tpr7zJkfODaOzuITA2ctZqN6I1SAZVQl3brxJ4rBUO62hckYhJyL+3+62en4HQ8lTeWxS/lkiuifWx2XC4YEYmVMB0FJbTuF3eOOe+J71RTD+aPtKaftrpYo8G2TpvG3YREo53ZF1xcH/WOe6ihA4yE6ahMBkm4fSXX3K1sfWLqmWKjfR6KE78kTGExsy/jhK1jEuZdi7A078zawJKxQQhDUi5FfbtoJ5pryyIP/2jqFWeMctne0ann/JXyKQXBH7imTsTbAok5LbGO///AFBQNN6QE71/jdrd8RGDohpNNEKYwwB9qTD+1ZcF7JouwYAqKKS3Zwc7Wv7nefDGkOauURSy/dWTTL3ans0fUj5zBNk1qBwwweyrjQvaeK6FMqvz4hSAIlkoNIstQeSm9qyrhiF8O+laEYZlUBTUBtTUlaJ4+o1UQNlfgWmdTm+E/r1gX+kIJZ3Q7EFcLl05qr06/HeQTGNfMAuU/AJAIld4SHg/xxFAGO0vu7bf+cfG++9XksZQzWMTozrm1d09UO1cJUzJnuDzaZ733406R+sywgILPOLvhWOF4b2gIFLNHtB995Rau7kV62K75G68UYu5GZXYSuhmaU6vbIJPJjIcporpLeeTK6GPrDj/uwbjEyCATdkPb2lrrXqSHbnC4UYZqFCqJ7+gcYIrR7UKnYVAwikvw/TO4DJOWsJjZ//yk3fkKrL0og0bKpxSFmuvfRF/NszCf+9n7/+uDL5W3kfZ9o7/105JfH7ShGyiTyaR8auH5T99imEKAgFjzKGj36rXnUhvx6F87oZdI56vt7QnAFAYlvKHmnFuHt6+w3r/fZ48+TGEJDZ8d4m694nhGjwoWqisjprQ9Oedq6XS/9ZXQFBSQGjPDD3undOueWNWAN/QXC6bopsAwDGIxWkLvqUzwPPqcrjhYwtDaRNeAuAmkajij9kBidn9lpM8Om+9Xe0UWNODkv9aWxtrK3KzUrOzsvPyCvOfpiRF37ty/f+v6eU/HeQt+sjocXUMXYChnyNg9UrdUJCZ39/JVZv4ou8IYcAAAH8ZJREFUIOZRe0kc+Wlh+ZADxKfg00/ZH8nG9HWqvKpIARGzJyvYwmKe7s/cdM6nH/zjP/89R3cHxvaSP60TO1Cd1iQnBFO5KwQUMxhCQMwXiHTsJxGrN8X33f+aaYrRAAuktf9lYJ+ZyRyTGWui9PypMCjljuDx+Nb68ifn7SyDnqIe0Y5OApmLEF3u7IzdbXEgvgm1W5XswHdT1OoKDMNCnv6DBQOCkdrbu36/UIXhjdVISp2CYZlEz80JCBhVN1a8rTCFQQm9qyziiN0Cc/TFtzCb++WMDz+c+7tbRI3aJWAUTGEYFPPoA42F0QFbbFbbn0opr02+sk8fpmIKPu3iPhuPpHYMokmo+JTgnQvXRbVhvPrVl3NyCVgy2ln44OyOiGZML+7kKp2aUuPBVOssECDm0YYpbBEoGwOmMARJxWL1+1CrBvSGlDVYfG2jmbn5vPkLfrRa7+rq5urqstluxSIL043HbsYnZhZW11TXNjZ3j3C5PD5fLKQTMs/tsnO8V697+SCpgDZY26B6jvF4fEt1QXLoVpfbFZq8Nnx7ew8DgHjDDXE+CxzCizS7VClcZ3cbVaNHIi8SiV48EAywBipvey3flzK+ia9VAwwBAvqg6lz41tqStNAtW2+WKnM6u7qZmnPLRHRCZvAX7o/62AwajUImDvT3dXfiWqpKn8UmVKifD4U8Raze5yGfezzFcr+OZeaL2f25IZ/tTdfzp4pZA0+93/1kNvr5lKctzE3MTP/tkUGTwZCE0f/s2KqZJnoHzbMwN5kz5yPb+9hvEfU9AItZgxmBazfHd8mzYAgUMkm0iXraIBGLEL/NLrxMLdnxE7im2rQLa/+fN/MhQMzsq3tyK9T7VEYHS6QepIUARHe7ELDHIwGHMhqMgqmUO9SYGrRr9ZLFqw/eLyOLJSMtmDCVASIWdaC1B1MlkfEGK+8HLLc8WYjhaVVf/0klQN5gfVqY59FnA5MqPvFCMCjl00mG7qmunj6NYTcBmEISVld5nN9O/yetrDFgCgmZ5PrcrFoqdywHJ9IpGAREbBZfQxBIQu8uvOG9NhjLKSBDnIcSLomE9kgoZCNiEDLOap5pCzOTLz7+57t/+/u7//HhzLlqzXLhMpvzJVRWb8nFTV+hlEpz0zkzP/77+58jULBcsSZ5bAJAAHewNt5vs1sMKhIABiV8et8IVxfy2lcO5I82RrmpmoM08pN//v19lTppsWSpVVwzhzLQ39/XTcDjGyuzru3/aMXRew+uXLx46sjOLQ4OKxcjavLipSsT2rVrnnqYsgeKwj6/1qB9GplMJuEQC0I+PVnEgyTM/vyrO5YdK8AguIRLygv5xCND/0qhKoQB/khVxP7fz5Qq1VIpn15xy/ZChZ7uiSqEkYRELNy9NX/7eJbmBjAq9f2iJdE4jPomkPVGB6AgqWC4rSjifMDhM1ntZHJvfXHVIEMghSBQPNpZGnHa0+Xss16tO9IomHJJ9Zk3dpyNL+tVXBaDMB1TTiJyc+JFF8ugqYYpLEXU0jOvUy0FWf0FN5z/gWWHmpvM+sny53utKlEYC1MYFFPbC8IO2i87mdnPlxmGKSwcJaSc3rrY1i+6YgA7XAptSqvaIWcrZ7AhPsjZM70PlTtGEuWVQx0FAbzhtpRzWxd+963ZX2ce1fVRuaogTRjkDjbGndzs9kSjVMICakv6WVPvbAwooGpVJGGAM1Ab4bN5/X2tQXwxo6foyu8Hno4zpA1DsISvNHZhMbMr/fTK2arRfBiC+TRKZ9Yph/UbN1gt/nrBt1ZrViz+5COnU3Fx6QV19Y3dwzweT09NVjTrtcK0OHRmeJ2I2pUR7LLUOwtTahIuqTD032cr9A17tURhUEjBJXit3p6oUEsRUPPIJaEzrtarjzEugQznP3T96FKdcYdP5VFvEqYQl1QTE+qx6cyzboGER21IvxO0/3B4Zk1bZ3NpzKVj3qefdau9LMo+GwVTXflMCqYQsyvnyv75VmGVxvlvdE9qaBvikxpSr+z3TH9dainSEO5Q5fPrix9gvHh5Q1U5136OnCBMIYA7UB/v77hi89UyhU04hpmP6C+UmrhAtw0el56207RH4CGJkN3f0o71a6nMjQiwW3Q0GXu3bhE8gdBJ1b1fYFDM6C1/GLb3eGxW7K5d1x7HndpzKqGyh8YHZBDA7q+55221+Fg+yvgAOKSSmN3fhlSMO7QPAmJ6b8WdgK3rI5o12jQiboAz1PzQ40CWjvVt6JZAXhxCOuHh/vkff+n+qE9tnYFiwXBzaXXXCI8nlEnYpKyrq+feaByjFtWu1wvTC5+G5nYm+a38xi0Zc4hfJpNwScUXPw03jEUYFFJxDz2tl15EeUsnCVNYwiM9PzFpmL5M6P5UwhSU8HhMImeM9w9ytbVCowApIOCpngBYwuwpuuljO3/hsg0bDjxoYAA6jnXZREfzFXfXJGAKg0xC0VWv1VZni8e0TVS3r9F/QXZfVVKw6+miVzWIj9mSqYQp4uoj4/Ive21a7p/SpbIbxoQpQgsxc6Dopp+d/fHo8kGWZvqEcBSfdspC92duOvfzj9/7x79mzDbX3mVmMvuzD/7P//7vmSba+cjWr6vWPdIaOoFBEbO/NiPyhP8j3KgizpQqoLenh+7ceSapeqAbV3zd9Ycvvv7hNDqSR8zoyb9pvzXBABeU4oUBMbev9vmDYDfrg0kdunf8hGEKCUc7E/fO/+SLWVZHokowQ2hB7khVzA6DMAXR6v3rhem5j4IfPL9+8miaQZGNA1NEK22N37vov9eEFqJekS31pTFHPvR/jMpSJjs6CYMaz5TuHS/lU4vPv+/7SL+cETmduC76+O593VMqt6cOpjBAbUl+cHrl3bqx5xJqwVTTKhgCRFwSriT69K41v66y3+p8MiqnsYNM54pA1GDt69FMYYDXXxnnu9na/m69gvTIdCYxny8w5t8Ys5pgKY1QEB245Xqt6gWiEcCrTE0ZTOUu7obMMC/H9Uc1JEVsMnp3acy+A5nKd4SYTiiLcVcP7iv6JuWRq+L9nP7aF9WCcoPr9RuGpOyB+qQz7msOP9ZEWSAzSYU8zighO8zZxie2kaU7hK1VDwxJRQxia+7DEE/f+CY+OmgfFjF6sy+6rNrs4Rt43GOXp98+h5uN6mAgiEeuT/ZfcKFqLMUUhoSUtkf+y2bMXxeKFdo2UZiCvJHGOM8ft57w37hw9eaVTsGpOL0QWgSm0TvmXK1XKBgQiASMcdkMGpU82NNNaOhnaTSP1wvT0JlqZyoS3MahsUSoJxa5LGPBFIZBLqn+7s75f3vvM+03pLmZyRcf/e3jWTqvTXMzU1OTL63v6fiJNZdfyiNn+vzt4y91yo2/aW5mOvfL93emTFp9mjKYgtye0puu331osTQghaT7qtb0VEczle+AQamQTe5tyI49c2Svx6WMbq6ERax7fOHwrq3eF+LymgkD5FE2MscTgkQTDdqXX0tDA1DoZqnTSHBBZ8m9gw7Wa69UqQw1+XSm5OTHxvzLyC3pxIiilKtnI63P7hzZloAVPqBuwCtITBVMYSGN8Cx4h82ffokt2rQR0XoyI/dtSFFOhhRQcfkRay7qDRxJ2RR87oNUgkqh1esrMot0sPFR6P7tW66Uqe9qGBTT+/CFj5IrSRzWcHm0r+3O8OwubA8sMpAlYQ/WZ4R5O9p43q1F8A6LGX0v4g8H5CiuJyxi0Vqe5fUhwZ1DNUneW240qu5YMaO75OYGj3TDhgMMipl99YmBG3+w2Hi7TVVOqyMTgyksZQ+U39q7/HxWRcLePYnNtdGHly/3iqyhKZkEgYBULGCPdOVdd/z8UGJbfw8yHlVbV5r9ODHqyoVAT8fVq35ZFl6teUG9KZjCoIDakXT6Ytag9tibYZjCkIjanRW01nSW6Rx3nTh7A2Y+KGK1J7jsMog8SMTGPdwxGTMfENCKQ94/pArv07qkRm1MEUzlamngX++88847sxaOrZyqNVMIlArYtJGhfkJzWWbEaZ89bmdiClo7cHU40ihXDMoAEbOrPPqUu53NpkOnbidkljYOMbivFqYwJBVS2ksjfbeus9obVasJEeGPtOdcd3HZacw/r8DQAkyHKMwnNaSEexx4re5S+V0wVTCVyQABl9rZ2C9FonhpgwbtJjwO11hbV6f0dhK6eylcI4wnCBCNEmoent23wfVmhZKkMAQIGcSW3Ae+DkuXbD+V0MyXSTnkihjfNe6XM/FkpgBtuChueQmbXHrrkP3yI4hOiqBUwh9pzbl7/15Gi15cPsQjt6Ye33pDqZsCHGJZ/L7FdzG8y/KaQDGb1JYfddJppaP34e0Hs5CQICTASVsQuNri1Iubt92u0M4mdPegg50UjYUhwUj745N27olNyumkAJ9SG+u3emNU3VB/X1dbW2NVxYvc1KSYawHOVu9//tPa9ct//mr+gmX27vtOXY6Oe5Jf09A1zOWhwzZfBUzzQ2YEPNHuT3t7e0ttUawfSjOV8shF4Vt/33uvloGyHLBhCiOe0u7yqwf/mu8UnnjHdcpgysLFbp19rVkh3wn8DwhopSEfhE1+TunUwFSpliIsfeedcZRTFUxHRYzBquRL3jsd1qx1OHDjGY4mkFDbM0NdF/7uGBCV1zxIYQqkEDJ3bhifFxV86OAez/hW1quDKeJnYPTVPrm4a82fqwPimlRK6QSuxtiHwvyhhrRwj4NpmKQdu+xL7p06mKoaArAGy25vt7CwMDOZ/emH//yPDz43xbSjzExmffrBDIvfT+ar1UxVFVp/kdcYvbfh2VVvZ3sfhJgIBCGJgEXuqsu8G7hr89HIFyQ+kgcI2FTyyCi5LS3YzX5PWGpD7whLIEW7DOVlZTJlfDAM8oZaEk7Yb71WihUDB/FGcGknt12tE8IyGcgdrkk+/GNYtbbaLW+LVMCm9LbmRR13Xet8Nbutt+nhXgSmAI9SE7lTu+/mSK+RwHjt7CXLrBN1jFMYEtG6MsJ2rg6vZmvm5gMSCRnf0FkSYrvi5zmm875ZsHzjbt+zl26dPrL6S/9MsgqcMCBiDTZVttH4GgtfLlQRq/dZ8IzNN1/owa+9va2hLOPixs03dUAvP7K5Jj/SFzPOlD3w9Oi7eha3hYW52dyvLDQwlclkoIjVnHTkjw3Bmf3q9RzEnP68s9oDUIgvh4h/es519fydsU2jDHzCVMEUFDKa7qx0f6o0QiCAR8UQgzyrk9CFno4m5VPyAt40TFFqqQKnsxauumPQc6qCKU0GcUb6qrOzqns5aqsPBgS0ntKEc3udVm/yDntS2UXXdsC+Mp8pJOWRW57f3O/wx58eVwv6X4FLE+aT6tKuuh14Ayyd8tF8hC5KWglp3RlXt9v6Pe7BiK6GpIye8nv+27zHim6CQYmASe6oSr98ZNtaz7svSBJkej6bRuxpLUq5Frjbftv59Fa53wQCxPSeukeXD+87VzwMSbnkuthj21fZH7qRUtzYNTA8yuAKJCAyRUtAJ3aofq21RbHBm1cGpLSqcjo6u3oGmQg85dgV0DpyLq8/n8cEYT4Flxq0LKBAV4GFQTGrrzjy2FY7q/UnU3v4MoBNUsJUUYn2/9hmvkpimmNhSEzryrm4w8rn+YjudFJILKQ2lZW2DTKVOickoLWkHrMIeqEEPQzwhhof7F/5ncP1Ko2FL69cMQPqvc/mmuv/zEznzvr3e+99ZqK/C1lnyNTMAEwNxpkWo3ym8rMjU10LL2/+ZU9Mu2KuLyig18Y4o2AKQwCHWB21x/rbb3ZcqSDLQOEUwlTCG8oP+iJYGYclFYzmBf3rX5/qi8LMdPacz2aFa5YihMQcfJzjG4YpyO19cXPHAgVHFf9/aPG7Qc+pBqaauwoJwAZBiUiitNkAwWhbbrjXzq17blVrRSa9GphCUh6x/mnozjU2LmHPB14BSBH48Ifqkq46bUtWx9Fpdf+VbsBcUvnTC9+dy1DjRJ1oKEmKPj3h0Ch0a2HhaHvmZVe7s2kDmmm/8gMgKau3PDbQ1Rs1joQuKfducke6Ggriwny22az3j6yiSAEBjYivKky8FuC6cYXl9mAlRxFrn97f9PyWl8PytUci8juZEmSRYjGX0VsW6bvJ8utf/nT0CorNJzBBgDNcfXeHghVmJnM+/+Rf/zljthodpiazZ/77i2/WRWoiQ8WM/uI7zp4JvQxyW1qQ/eFsfYcpJGR051z3O/OoQ4GyycBUu+tI5/lkfOrp7cv2POySjDs3X4YERxXdWLc+rhtCyiIhX/f87G3O5euHdr6EmZ9z/lPXx3oavHiMoH09mCIrB/DJZVcdLN3v45A3rB5MASG7/oHXqp/cEZIi2uwUwhQUMuqj7LckExXiBkVsXIKza4p87UX0FYDEnO6Hzi4o1+v/AJjqqaVK5fSnlQaUU0yYwlL2cE/V8/yG7iEaR6QIiRLxBNRBsnqcVS6JVwBTGBAON2eF7rRft/NO1aiOwYQW/0ulYdFI05ObbqsiW9Va+EvVN6HCIIdUHnXATA0U7cTvtpseq0OKjA3a1zq/hEV8Eeu/5XhiM0Ooco0qVna+e8r9SEqfwS6LGYN5YVt++d7S5fxT+VJ7AGekNsLTct73lk6nk6oRux6x7KVCFrmz9umVQw42TiHZvYpcUMQgdlTk15G4UqmA2Zl94+QR90ul8uEmWCaRDwzBoIDclnl136E0ddg/xCe3pZx18s9FAwPkjTSnnNgU9DAr8vCfPs/Ru7T6qdl4eZjCAJ9cG31k1Xd74tvljR1nbr5MBosYHc/OfOOVRUVmDVZF+ztb749HzbvStE7CIb6I+COoEMtTNdZ0Ugl3qPD2rxvi9WKcJghTJNSWT6+IcF1zq0qIAVPkosKwylsxpTCFxZzutANzQ2qVI4OQiN2V4GosTNvjHGdeMSaSVyNrdOplfaYgt0dXLR1HOcWEKcAaqI3332q9ys7l1IPs2nbSKEeItRLflMMUBtg9lfcPO65wulE6rA1utJheOi0ZxT+9e2hZaIWWov3S1RpZwVgrSMEgLNWsMzwpmMpksGC049nlnW5nM5oZyDKwyCzLxoch+9dfeDG2r1QGAgCHxUKtfwBKAR6dhfAXCbThMch9uNK0awGutnZ+9+VuU7lCyyHhnt86YLvE0uV8roHgERgUjLRn3vA6lK6e3wRJ6L3Fd/0cdFcdhUV0Qs6ppb9Zrf8puExpRo8p2peHqZRHr0sI9g1IbFdOlxwXpjKQT61LPGh+OLmh/L6/06p98e065v2YTVbuHAumBstPHKYILSU8Rfv0NFPd80ydZgpLuKTsYz+cfKGSzMRg2pXgtD5eqdPqNtKI7ZeDKQxQmpMUg/hoK39M5RQTpvKWIg7TruLo07s2rHM8cTe9vI00qtJSVT2ZYpgiKC2/7bXhV5db9bp+MtUpp+QvwOh6FuG3yC9X34KckvqnrJJJwlQeTEiuTAx023XuSS2J3N9acCPAecuV8VCK0W5kNREBhzk63E9orXweHerj+pet45kn9RQF5JB18Ei4okjfbX9Yut4oHQPVElZ/SdTebVfye8k0tkAKyiApu78iNsAxIE9X94QhwXBLwoHf537rE99nzFeWXh6mej0fH6YyKYeUd3HFP775yebHfVFNKl7o1TRmxuuCKaoRUwVTxZLigIDacG+zexrWlYclrMF0v4UHNdFNE4OpjuGP6oNRyZeCKTKIf0PbW4pmKuI5TdVTGwzDVNlgSMLqq4oLcLb9zSEwprhPa2GlqYUpxB+senB0wy+uD5pejaNUdQlg7mD1vTN2q6LHXjVDdfgb/Dt5mCK+Lz615VHQ+iXLHZy3rbQ6mTkwCVUfkvIp+LzIC747/lq6+Ie/XELUGEXiRwW0/pacu0fWW/2y/UqewgtgSFiQmDNYHn1u75oV6z3Px+TU4nvxjcX3A7btS1UrqsqiEMAban0c7PKzvZvHtpWHY5pQM7QM1P7aYYpENtCJ+ML7h61nmZn559An64/6HwrTtgRXtxRtTUM7zhSGANYwoZPQjsfl3Ny7PKgENQVYeZGQUKu6KPfFJ4o0Yd6QiIWPsre/9qJT59feWp972X5jkmb9BEjM6UpwQntRDVx8g9kvAVMYoDYnG1JL1cqp3oQo8XBjTtQRz9gqnd5pb3a0VudFn/fffSiiHL0DV5YWf8N7AivtIx03NJ0UYBDyw3atsPRNITAM/JhsDl+1LIZBGY6/Q0xpeXTZ+edTxZrI1fELvZEjpPTumkRf7cWhjWkI8sVKIWuktzE3xt9h0az5P1seuPa0qmWQyuKLJ/RBLVjMGih7cGL3qTu59STlZ0UUbtOR3pbCpPN7HVbaH42q0n7uxmghDIgZfZXJl/bbf2e+2HblxvOZ7UQShc5Fwu4UDlneEC73mo/ThkslJO5IRczhlU6XcvvG4akKpqPIN/505vuMNzffwOxvbM0U+eSpgE0f6m0rfnzp0OYVdp7h4Wc3rT+TT1YvsY+sCcYgjmqHvRiUyGRhWhAy43gK+lGUp3H1JfFHtUKjME4MCuh1Mc6fh+svOqU8GBQycYl7XJMHtQprwxQQsCqv2VrM+/oPO4+ziTh9bxkyLQ2f4GW99EY9aiYFIKSXhJmYmJph/b77YeF9TUQxKOK0Rm58QzAVU3ApFxywGqnJs1zncrdGsRSvSlDi4cakEys+mDlXc5TxKdM5X3631Po01gdIVPXr/5VQ2zMijm24XKF5YckP4hLLogK+W7TJ6+z1a9ex/92OfVzQaYwTTf+s6BwusTL6wqoNidgfS0Mf+QbSsOYjyDAkHe2oSTx+NBfLiMJqGxKIJOQyR0m9rSXp149ut7beGhhV3DPUXxkXtNN2yfqjt1OK6wndA0NUOpsrEIqlIARBIAgCAMpNilWxIg+pnUMb6msry7p13Nna1jU0pZWJelYMl5TvQVon4jIp/fiKrLsnPfZfiYoJPuax3e1YeGphDxeGJHxKV83Dc3vWbrtaIcczLGL2ZYft+GtH2PMOmnp1Kf2zKGB64OkQf6SjoVWXMfj60vRLW7bdwdAXOjq7O/swv9miBVOEoeyRwYHezuba3Ce3z+11WmV9IDStiQnCYlZ/ftimLSHZ/YqvYMFCRk/W6d9OlOqravrtllsPE/8GlJg9kH703Y++0HtQTU1mzzMfB6bI2noVdzYvuW3QLAMlgt6ShIdV2t4XbZhi9QWVB4NCWmvkgZVf+eRp37owDIs1Q12oEnKvLlcASoUC5Mfn0ImErIubPXOU65ujDzUy/RKaqZFn0D1MNFSXG+N3umhSSpp4pKU48WRIkX44iO5pUNuQlEcb7mwbZOqMKgNCNrmjuqpqjH91zW19bJ1iqJqNTEJSPp2Ib8EPv1pngpGt0TkMkoiYRAJODgR8S03mnRDvzZeqdd476jIwMuudy2Yw6HTqCGmgr6u1tjwjLjzQw9HmL5fzidV9mjcnDIhoPRVJ17ydbVeu2REYGvUoK6eovKG5saGhsatnCD3opKwekoMWkIj4fC6LThke6O1qrs+Nu+Dptsbh6M1MYzGKBJoyh4mDAz2EtrqK5/HXgw86+USUEpUvRVDCHyZUlDWS+toKowPdN/zqFYOeG4vw9FmI8582R24XtJHp2F+HV8B0bxKuLtJVjzBjZnxvaRVchOWf14IpyKe3PfS0WfHzD2bfrXIMiivCawAMI2s4h7lYOQan4YZobOYIIfvS+pUPjPwaoEoz1UaO+vpiJxQDUBiqpYRDLLow80qdrtMBhgAejUgkEYlEYl97w5PQHb8FYhjm2GdT5kp45OLQGaHVxrx1YUBErX7gY3fMmFAMzVlhUEon5D+KiY1PSIwM99+zeseD1gkun6qp7E18nZQ3WJkZue+SZuI1ujnjpUXMoeaSp7nNWEEf45Wd3o8pAZA9WH5n16zZc+aamJh8/aPl9lOx9YafNFDC6qtLDj9xPCDAy93B2sry659snM/cy2tQm+T6J4FBKYfSVZ+dfDfYd+cGq0U//GFzJk/PTgelYmp/e1NNVW1p9pMn8RFhvvu22K3fdvpeTh1Jteqnft1YORL2UNk9d1vrVYsXfbtwk9+NjBYdZRYUsXuL7vnaLV+8yPFqPlFP04UlHGLpNfclFks2ByQ1YoXLSdnE+rjdBzL0eoHVHuPyAC65Kd5jd5rCiQeLeZS6tISCJiLWOBMs5ZGqIo6sXu4SdCs28vIJp53YH7jDODPAozTFbHN6NJHv+8rE7IGCULMLtXpcE3OI+efnnsjXsbphCY+cG2K3buPGjZvs7Vf89oOtb1K3npgxWofOkvIpL64vOFY4eU0RXRt2GhJz2x5sm/fV0nW7TkXmttL1OohdzEDu69dMDTRkOvtNSQAGRFza4CCdw+NrQqQMNgbkDtUnHrXZsMf/UuSzik6SEUV06pJ/A0r/rpWyh8puu1l+u8B2++5jYfefl/dQJ8ZQzWkgIZtUnRKZXd6rQ1HlIZCA1pF6wc3pTFaXQRcOJKAT0kI8th1PxTpGzB4ui/MKzOrRnPRlU1IepTbZ2/Wh0a4gUMTrLYw+G7A34E7hoNH6lJQzXHTLZmmMkYqsvFewmEMqvuF1q0rXkwBLuCMlNw/erNDbAYjYuGepBVXVdXUEsqFFrMcUGaLcUjrqCYyJQnjMWjF26t+KGAcZlTUNU6PENH3Q2ygB/Qmgr1AKkFRE62loGtRR8qb8jDAECZDVpqd/Uy6BaZhOuUinK5yWwLQE3kYJTMP0bbzq032elsC0BKZcAtMwnXKRTlc4LYFpCbyNEpiG6dt41af7PC2BaQlMuQSmYTrlIp2ucFoC0xJ4GyUwDdO38apP93laAtMSmHIJTMN0ykU6XeG0BKYl8DZKYBqmb+NVn+7ztASmJTDlEvi/8gt2RWP9towAAAAASUVORK5CYII=;" vertex="1" parent="1">
                    <mxGeometry x="814" y="1270" width="452" height="406" as="geometry"/>
                </mxCell>
                <mxCell id="16" value="" style="shape=singleArrow;direction=south;whiteSpace=wrap;html=1;" vertex="1" parent="1">
                    <mxGeometry x="1025" y="1210" width="30" height="40" as="geometry"/>
                </mxCell>
                <mxCell id="17" value="&lt;div style=&quot;color: rgb(171, 178, 191); background-color: rgb(35, 39, 46); font-family: Consolas, &amp;quot;Courier New&amp;quot;, monospace; font-weight: normal; font-size: 14px; line-height: 19px;&quot;&gt;&lt;div&gt;&lt;span style=&quot;color: #7f848e;&quot;&gt;【stdio.c&lt;/span&gt;&lt;span style=&quot;color: rgb(127, 132, 142);&quot;&gt;】&lt;/span&gt;&lt;/div&gt;&lt;div&gt;&lt;span style=&quot;color: #7f848e;&quot;&gt;/*Translate integer to ascii*/&lt;/span&gt;&lt;/div&gt;&lt;div&gt;&lt;span style=&quot;color: #7f848e;&quot;&gt;//buf_ptr_addr: The pointer of a buffer which is used to store the answer of the translation.&lt;/span&gt;&lt;/div&gt;&lt;div&gt;&lt;span style=&quot;color: #7f848e;&quot;&gt;//base: The base of the number system, such as 2, 8, 10, 16.&lt;/span&gt;&lt;/div&gt;&lt;div&gt;&lt;span style=&quot;color: #7f848e;&quot;&gt;//This function has two parts:One:convert the number's base;Two:convert the number to ascii.&lt;/span&gt;&lt;/div&gt;&lt;div&gt;&lt;span style=&quot;color: #c678dd;&quot;&gt;static&lt;/span&gt;&lt;span style=&quot;color: #abb2bf;&quot;&gt; &lt;/span&gt;&lt;span style=&quot;color: #c678dd;&quot;&gt;void&lt;/span&gt;&lt;span style=&quot;color: #abb2bf;&quot;&gt; &lt;/span&gt;&lt;span style=&quot;color: #61afef;&quot;&gt;i_to_a&lt;/span&gt;&lt;span style=&quot;color: #abb2bf;&quot;&gt;(&lt;/span&gt;&lt;span style=&quot;color: #c678dd;&quot;&gt;uint32_t&lt;/span&gt;&lt;span style=&quot;color: #e06c75;&quot;&gt; value&lt;/span&gt;&lt;span style=&quot;color: #abb2bf;&quot;&gt;,&lt;/span&gt;&lt;span style=&quot;color: #e06c75;&quot;&gt; &lt;/span&gt;&lt;span style=&quot;color: #c678dd;&quot;&gt;char**&lt;/span&gt;&lt;span style=&quot;color: #e06c75;&quot;&gt; buf_ptr_addr&lt;/span&gt;&lt;span style=&quot;color: #abb2bf;&quot;&gt;,&lt;/span&gt;&lt;span style=&quot;color: #e06c75;&quot;&gt; &lt;/span&gt;&lt;span style=&quot;color: #c678dd;&quot;&gt;uint8_t&lt;/span&gt;&lt;span style=&quot;color: #e06c75;&quot;&gt; base&lt;/span&gt;&lt;span style=&quot;color: #abb2bf;&quot;&gt;) {&lt;/span&gt;&lt;/div&gt;&lt;div&gt;&lt;span style=&quot;color: #abb2bf;&quot;&gt;&amp;nbsp; &amp;nbsp; &lt;/span&gt;&lt;span style=&quot;color: #7f848e;&quot;&gt;//tase one:convert the number's base.&lt;/span&gt;&lt;/div&gt;&lt;div&gt;&lt;span style=&quot;color: #abb2bf;&quot;&gt;&amp;nbsp; &amp;nbsp; &lt;/span&gt;&lt;span style=&quot;color: #7f848e;&quot;&gt;//tase two:convert the number to ascii.&lt;/span&gt;&lt;/div&gt;&lt;div&gt;&lt;span style=&quot;color: #abb2bf;&quot;&gt;&amp;nbsp; &amp;nbsp; &lt;/span&gt;&lt;span style=&quot;color: #c678dd;&quot;&gt;uint32_t&lt;/span&gt;&lt;span style=&quot;color: #abb2bf;&quot;&gt; m &lt;/span&gt;&lt;span style=&quot;color: #c678dd;&quot;&gt;=&lt;/span&gt;&lt;span style=&quot;color: #abb2bf;&quot;&gt; value &lt;/span&gt;&lt;span style=&quot;color: #c678dd;&quot;&gt;%&lt;/span&gt;&lt;span style=&quot;color: #abb2bf;&quot;&gt; base;&lt;/span&gt;&lt;/div&gt;&lt;div&gt;&lt;span style=&quot;color: #abb2bf;&quot;&gt;&amp;nbsp; &amp;nbsp; &lt;/span&gt;&lt;span style=&quot;color: #c678dd;&quot;&gt;uint32_t&lt;/span&gt;&lt;span style=&quot;color: #abb2bf;&quot;&gt; i &lt;/span&gt;&lt;span style=&quot;color: #c678dd;&quot;&gt;=&lt;/span&gt;&lt;span style=&quot;color: #abb2bf;&quot;&gt; value &lt;/span&gt;&lt;span style=&quot;color: #c678dd;&quot;&gt;/&lt;/span&gt;&lt;span style=&quot;color: #abb2bf;&quot;&gt; base;&lt;/span&gt;&lt;/div&gt;&lt;div&gt;&lt;span style=&quot;color: #abb2bf;&quot;&gt;&amp;nbsp; &amp;nbsp; &lt;/span&gt;&lt;span style=&quot;color: #c678dd;&quot;&gt;if&lt;/span&gt;&lt;span style=&quot;color: #abb2bf;&quot;&gt; (i &lt;/span&gt;&lt;span style=&quot;color: #c678dd;&quot;&gt;!=&lt;/span&gt;&lt;span style=&quot;color: #abb2bf;&quot;&gt; &lt;/span&gt;&lt;span style=&quot;color: #d19a66;&quot;&gt;0&lt;/span&gt;&lt;span style=&quot;color: #abb2bf;&quot;&gt;) {&lt;/span&gt;&lt;/div&gt;&lt;div&gt;&lt;span style=&quot;color: #abb2bf;&quot;&gt;&amp;nbsp; &amp;nbsp; &amp;nbsp; &amp;nbsp; &lt;/span&gt;&lt;span style=&quot;color: #61afef;&quot;&gt;i_to_a&lt;/span&gt;&lt;span style=&quot;color: #abb2bf;&quot;&gt;(i, buf_ptr_addr, base);&lt;/span&gt;&lt;/div&gt;&lt;div&gt;&lt;span style=&quot;color: #abb2bf;&quot;&gt;&amp;nbsp; &amp;nbsp; }&lt;/span&gt;&lt;/div&gt;&lt;br&gt;&lt;div&gt;&lt;span style=&quot;color: #abb2bf;&quot;&gt;&amp;nbsp; &amp;nbsp; &lt;/span&gt;&lt;span style=&quot;color: #c678dd;&quot;&gt;if&lt;/span&gt;&lt;span style=&quot;color: #abb2bf;&quot;&gt; (m &lt;/span&gt;&lt;span style=&quot;color: #c678dd;&quot;&gt;&amp;lt;&lt;/span&gt;&lt;span style=&quot;color: #abb2bf;&quot;&gt; &lt;/span&gt;&lt;span style=&quot;color: #d19a66;&quot;&gt;10&lt;/span&gt;&lt;span style=&quot;color: #abb2bf;&quot;&gt;) {&lt;/span&gt;&lt;span style=&quot;color: #7f848e;&quot;&gt; &amp;nbsp;//m is less than 10&lt;/span&gt;&lt;/div&gt;&lt;div&gt;&lt;span style=&quot;color: #abb2bf;&quot;&gt;&amp;nbsp; &amp;nbsp; &amp;nbsp; &amp;nbsp; &lt;/span&gt;&lt;span style=&quot;color: #c678dd;&quot;&gt;*&lt;/span&gt;&lt;span style=&quot;color: #abb2bf;&quot;&gt;((&lt;/span&gt;&lt;span style=&quot;color: #c678dd;&quot;&gt;*&lt;/span&gt;&lt;span style=&quot;color: #abb2bf;&quot;&gt;buf_ptr_addr)&lt;/span&gt;&lt;span style=&quot;color: #c678dd;&quot;&gt;++&lt;/span&gt;&lt;span style=&quot;color: #abb2bf;&quot;&gt;) &lt;/span&gt;&lt;span style=&quot;color: #c678dd;&quot;&gt;=&lt;/span&gt;&lt;span style=&quot;color: #abb2bf;&quot;&gt; m &lt;/span&gt;&lt;span style=&quot;color: #c678dd;&quot;&gt;+&lt;/span&gt;&lt;span style=&quot;color: #abb2bf;&quot;&gt; &lt;/span&gt;&lt;span style=&quot;color: #98c379;&quot;&gt;'0'&lt;/span&gt;&lt;span style=&quot;color: #abb2bf;&quot;&gt;;&lt;/span&gt;&lt;span style=&quot;color: #7f848e;&quot;&gt; &amp;nbsp;//convert int &quot;0~9&quot; to ascii '0'~'9'.&lt;/span&gt;&lt;/div&gt;&lt;div&gt;&lt;span style=&quot;color: #abb2bf;&quot;&gt;&amp;nbsp; &amp;nbsp; }&lt;/span&gt;&lt;/div&gt;&lt;div&gt;&lt;span style=&quot;color: #abb2bf;&quot;&gt;&amp;nbsp; &amp;nbsp; &lt;/span&gt;&lt;span style=&quot;color: #c678dd;&quot;&gt;else&lt;/span&gt;&lt;span style=&quot;color: #abb2bf;&quot;&gt; {&lt;/span&gt;&lt;/div&gt;&lt;div&gt;&lt;span style=&quot;color: #abb2bf;&quot;&gt;&amp;nbsp; &amp;nbsp; &amp;nbsp; &amp;nbsp; &lt;/span&gt;&lt;span style=&quot;color: #c678dd;&quot;&gt;*&lt;/span&gt;&lt;span style=&quot;color: #abb2bf;&quot;&gt;((&lt;/span&gt;&lt;span style=&quot;color: #c678dd;&quot;&gt;*&lt;/span&gt;&lt;span style=&quot;color: #abb2bf;&quot;&gt;buf_ptr_addr)&lt;/span&gt;&lt;span style=&quot;color: #c678dd;&quot;&gt;++&lt;/span&gt;&lt;span style=&quot;color: #abb2bf;&quot;&gt;) &lt;/span&gt;&lt;span style=&quot;color: #c678dd;&quot;&gt;=&lt;/span&gt;&lt;span style=&quot;color: #abb2bf;&quot;&gt; m &lt;/span&gt;&lt;span style=&quot;color: #c678dd;&quot;&gt;-&lt;/span&gt;&lt;span style=&quot;color: #abb2bf;&quot;&gt; &lt;/span&gt;&lt;span style=&quot;color: #d19a66;&quot;&gt;10&lt;/span&gt;&lt;span style=&quot;color: #abb2bf;&quot;&gt; &lt;/span&gt;&lt;span style=&quot;color: #c678dd;&quot;&gt;+&lt;/span&gt;&lt;span style=&quot;color: #abb2bf;&quot;&gt; &lt;/span&gt;&lt;span style=&quot;color: #98c379;&quot;&gt;'A'&lt;/span&gt;&lt;span style=&quot;color: #abb2bf;&quot;&gt;;&lt;/span&gt;&lt;span style=&quot;color: #7f848e;&quot;&gt; &amp;nbsp;//convert int &quot;A~F&quot; to ascii 'A'~'F'.&lt;/span&gt;&lt;/div&gt;&lt;div&gt;&lt;span style=&quot;color: #abb2bf;&quot;&gt;&amp;nbsp; &amp;nbsp; }&lt;/span&gt;&lt;/div&gt;&lt;div&gt;&lt;span style=&quot;color: #abb2bf;&quot;&gt;}&lt;/span&gt;&lt;/div&gt;&lt;/div&gt;" style="text;whiteSpace=wrap;html=1;" vertex="1" parent="1">
                    <mxGeometry x="124" y="1660" width="560" height="484" as="geometry"/>
                </mxCell>
            </root>
        </mxGraphModel>
    </diagram>
</mxfile>